<svg width="755" height="616" viewBox="0 0 755 616" fill="none" xmlns="http://www.w3.org/2000/svg">
<path fill-rule="evenodd" clip-rule="evenodd" d="M408.334 139.085C406.909 133.381 405.567 128.012 398.523 130.78C393.156 132.878 390.556 136.233 390.053 141.937C389.633 146.215 390.472 154.938 396.845 152.758C401.038 151.332 408.418 144.034 408.334 139.085ZM380.157 161.649C380.996 155.945 376.383 142.608 369.255 148.815C366.739 150.996 364.643 152.758 362.043 154.687C358.94 156.952 359.527 158.294 359.36 162.32C359.024 168.443 359.527 177.922 367.913 177.838C375.796 177.67 380.912 168.527 380.157 161.649ZM360.785 136.568C359.024 128.6 355.754 117.527 348.625 112.83C339.233 106.622 335.879 125.16 335.879 130.613C335.879 138.498 336.13 149.989 345.271 153.68C353.909 157.287 359.527 142.188 360.785 136.568ZM424.687 138.917C415.798 142.44 409.76 150.744 407.664 159.971C406.741 164.249 407.58 170.792 404.812 174.231C401.458 178.341 396.258 174.818 392.401 177.335C383.595 183.207 392.988 193.86 399.613 195.621C404.896 197.047 410.179 197.886 415.463 198.893C420.41 199.815 422.842 204.261 425.777 208.203C421.668 207.532 417.643 206.526 413.534 205.855C411.773 205.603 409.173 204.68 407.328 204.764C405.064 204.932 403.638 206.442 401.542 206.861C397.936 207.532 395.42 205.184 393.994 209.713C393.508 211.41 393.598 213.219 394.25 214.859C394.903 216.499 396.081 217.875 397.6 218.773C394.917 221.373 388.795 222.128 385.273 223.134C380.241 224.728 375.042 225.735 370.345 228.335C370.345 220.115 370.429 213.572 366.404 206.023C364.475 202.332 360.701 192.098 356.76 190.504C355.586 190.085 353.825 190.337 352.567 189.917C351.225 189.498 350.554 188.407 349.045 188.323C346.361 188.24 343.51 191.343 341.917 193.356C337.891 198.473 338.059 206.694 338.311 212.817C338.562 219.192 339.233 227.245 341.833 233.116C342.42 234.458 343.091 236.052 344.349 236.891C345.271 237.478 347.116 237.059 347.871 237.73C350.554 240.162 346.864 241.588 344.768 243.098C339.485 246.957 334.872 250.732 331.015 255.932C327.744 260.294 322.629 265.663 321.79 271.283C318.184 266.417 315.668 260.881 312.901 255.597C311.307 252.577 311.307 253.164 312.984 250.899C314.533 248.976 316.372 247.306 318.435 245.95C322.209 243.35 326.151 240.582 327.241 235.717C328.079 232.026 326.067 225.231 324.893 221.457C323.383 216.675 319.609 212.985 314.662 215.837C310.972 217.934 309.211 225.315 305.689 226.322C301.663 227.496 302.25 217.766 301.831 215.082C301.16 210.049 298.477 201.577 300.154 196.712C301.412 192.853 307.701 190.84 310.888 188.491C315.893 184.981 320.261 180.64 323.803 175.657C327.241 170.624 326.989 165.508 326.318 159.636C325.983 156.197 325.396 146.886 319.693 148.899C316.423 150.073 301.747 170.037 299.147 162.907C298.393 160.894 299.986 155.861 300.238 153.596C300.405 151.919 300.405 143.866 301.579 142.776C301.999 142.356 307.198 141.685 308.288 140.93C310.893 139.276 313.076 137.035 314.662 134.387C320.029 125.412 313.907 111.404 303.844 109.139C297.219 107.629 293.697 109.978 290.007 115.262C286.401 120.379 279.44 118.198 273.486 119.456C272.396 116.437 276.337 110.397 277.344 107.461C278.853 103.099 280.614 98.6537 281.201 94.0402C282.375 85.1487 280.363 75.5023 277.511 67.1141C280.866 67.6174 285.73 67.4496 288.078 69.9661C290.426 72.4825 291.432 77.7671 293.445 80.7869C297.219 86.6586 301.663 93.1175 306.863 97.8149C313.739 103.938 316.423 101.086 321.706 95.3823C326.989 89.5945 324.222 81.4579 322.377 74.4118C326.654 73.7408 331.685 74.999 335.879 75.6701C339.736 76.2572 346.948 76.425 350.135 78.7737C352.567 80.5352 351.728 82.3806 351.98 85.8198C352.237 90.4586 353.054 95.0494 354.412 99.4925C357.263 108.468 363.72 111.572 371.436 105.784C374.119 109.391 377.054 114.172 381.163 116.185C385.273 118.198 392.82 119.876 397.349 120.211C403.135 120.631 407.664 118.03 412.444 115.178C414.792 113.752 415.463 112.578 417.475 113.669C418.985 114.507 420.997 118.366 422.507 119.708C424.25 121.226 426.069 122.654 427.958 123.986C428.796 124.657 429.719 125.328 430.641 125.999C432.654 126.502 433.325 127.677 432.654 129.606C433.912 133.297 434.164 137.239 435.254 140.93C436.512 145.376 439.531 147.725 443.64 149.402C445.062 149.802 446.462 150.278 447.833 150.828C450.265 150.912 450.852 151.835 449.51 153.764C449.51 156.364 446.91 160.223 445.485 162.236C444.143 158.461 438.776 154.184 434.667 155.777C429.887 157.623 429.719 163.159 430.054 167.437C427.13 165.925 424.399 164.066 421.92 161.901C420.662 160.894 418.649 159.72 417.727 158.378C416.133 156.029 416.301 157.287 417.391 154.1C418.733 150.828 427.874 142.272 424.687 138.917Z" fill="#6D01D0"/>
<path fill-rule="evenodd" clip-rule="evenodd" d="M641.719 537.356C638.197 540.208 634.507 543.06 630.901 545.744C622.515 551.951 614.716 558.746 606.833 565.456C599.705 571.58 591.99 577.032 584.526 582.736C577.398 588.188 571.108 594.647 564.483 600.603C568.844 603.119 573.54 606.894 578.74 605.636C583.017 604.629 587.965 600.938 591.654 598.59C600.208 593.053 607.253 585.336 614.381 578.122C621.341 571.076 628.05 564.198 634.591 556.9C641.654 549.134 647.583 540.408 652.202 530.981C648.428 528.632 644.235 535.343 641.719 537.356ZM578.488 557.236C573.54 558.83 568.341 559.585 563.393 561.094C559.116 562.437 555.427 566.631 552.659 570.07C550.898 572.335 549.724 575.019 548.131 577.535C547.208 578.961 543.77 582.233 543.854 583.575C543.938 585.336 548.969 589.698 550.143 591.124C552.324 593.641 554.588 596.073 556.936 598.506C560.374 591.376 568.509 585.336 574.547 580.471C580.836 575.354 587.461 570.321 594.003 565.289C608.427 554.132 621.928 543.144 637.526 533.497C636.52 531.149 584.275 555.391 578.488 557.236ZM554.42 553.042C549.64 558.914 542.428 565.624 540.919 573.341C543.938 569.902 546.537 566.127 549.472 562.52C550.727 561.015 552.071 559.586 553.498 558.242C556.014 555.642 556.852 555.894 554.42 553.042ZM432.067 226.49C422.493 227.261 412.99 228.747 403.638 230.935C401.374 231.439 399.11 231.942 396.929 232.445C375.042 237.73 353.238 248.131 337.388 264.404L336.885 264.991C336.13 266.166 334.453 267.76 334.788 269.353C333.698 268.682 333.363 268.095 333.447 267.592C333.279 267.843 333.195 268.011 333.027 268.263C337.472 271.115 340.407 277.574 343.342 281.936C346.697 286.885 350.387 291.498 353.657 296.531C360.618 307.436 367.243 318.76 373.532 330.168C384.35 349.796 397.684 368.502 409.592 387.543C421.501 406.584 432.822 425.29 444.646 444.247C457.309 464.463 471.817 483.504 484.816 503.132C492.615 514.876 501.504 525.864 509.471 537.524C517.018 548.512 524.482 559.501 532.113 570.405C536.092 558.872 544.265 549.259 555.007 543.479C540.164 522.341 525.907 500.951 512.825 478.723C501.588 459.514 491.608 440.305 481.126 420.844C470.811 401.719 460.664 382.51 450.181 363.385C444.982 353.822 440.621 343.757 436.092 333.775C431.312 323.122 429.3 311.294 424.184 300.893C421.752 296.028 418.482 290.408 418.817 284.788C419.152 279.503 422.842 274.051 425.694 269.773C427.371 267.256 430.641 260.126 434.08 260.126C440.369 260.042 432.906 272.876 431.899 275.393C427.371 286.969 433.66 297.034 438.44 307.436C443.053 317.585 446.743 328.238 451.607 338.304C453.703 342.498 455.8 346.609 457.645 350.887C458.316 352.396 460.077 357.178 461.754 357.681C462.676 357.933 467.373 354.913 468.127 354.493C471.817 352.145 476.765 348.118 478.945 344.344C481.126 340.569 480.203 334.194 479.281 330.168C476.346 318.508 470.308 307.436 465.528 296.531C460.496 285.039 455.213 273.464 450.852 261.72C448.504 255.345 446.407 248.97 443.808 242.679C442.382 239.156 440.789 235.549 439.195 232.11C437.183 227.748 437.015 226.154 432.067 226.49ZM263.926 364.979C259.397 367.16 258.139 368.334 257.217 373.283C256.211 378.4 256.714 383.517 256.127 388.717L255.959 390.646C255.204 398.028 254.282 405.41 253.863 412.707C253.192 423.109 257.049 432.839 261.578 441.898C263.59 445.925 265.603 449.783 268.622 453.139C270.541 455.114 272.586 456.963 274.744 458.675C277.428 460.856 277.847 462.282 279.608 459.262C281.788 455.571 280.027 449.532 279.44 445.589C278.462 439.431 277.986 433.203 278.015 426.967C278.266 424.115 278.434 421.18 278.602 418.328C279.021 411.281 279.356 404.235 280.53 397.273C280.95 394.757 281.453 392.24 282.04 389.808C282.627 387.543 284.891 383.433 284.723 381.252C284.556 378.987 281.034 374.877 280.446 371.186C280.151 369.017 279.983 366.832 279.943 364.643C279.776 361.539 280.53 360.785 277.847 359.946C274.492 358.771 266.693 363.637 263.926 364.979ZM216.712 340.569C215.454 344.26 210.506 347.951 207.907 350.719C200.862 358.268 195.412 365.985 189.961 374.625C181.155 388.549 173.104 404.655 169.331 420.928C159.938 423.528 163.209 404.151 164.467 400.377C167.537 391.151 171.439 382.223 176.123 373.702C180.767 365.538 186.339 357.938 192.728 351.054C195.244 348.37 198.263 345.099 201.03 342.666C203.462 340.485 208.997 335.117 212.016 334.613C215.79 334.11 217.97 336.794 216.712 340.569ZM552.995 283.781C558.446 293.931 561.129 306.597 563.142 317.921C564.903 328.155 566.328 339.395 566.077 349.796C566.328 351.558 566.412 353.403 566.496 355.164V356.758C566.496 355.416 566.58 354.074 566.58 352.816C566.857 353.439 566.993 354.115 566.978 354.796C566.964 355.478 566.799 356.148 566.496 356.758C566.496 359.359 566.328 362.043 566.245 364.643C566.161 368.418 566.999 376.219 564.4 379.49C560.458 384.439 559.284 375.548 559.033 373.115C558.445 366.992 558.362 360.785 557.859 354.661C556.181 333.187 553.414 309.449 545.112 289.401C544.357 287.472 543.099 283.445 541.589 282.103C540.499 281.181 539.745 282.187 538.487 280.51C537.229 278.748 535.384 268.682 537.564 266.753C542.177 262.643 551.066 280.258 552.995 283.781ZM176.878 333.858C183.419 338.472 159.351 349.628 156.081 351.641C150.294 355.332 144.508 358.855 138.889 362.798C132.935 366.908 127.316 371.773 121.195 375.464C113.563 366.489 135.116 353.319 141.321 349.964C147.695 346.525 153.733 342.666 160.274 339.73C163.46 338.388 173.524 331.51 176.878 333.858ZM363.972 337.214C362.714 337.382 360.198 338.975 358.94 339.395C346.613 343.757 332.356 345.77 321.035 351.977C313.32 352.061 305.269 356.674 297.89 358.771C294.954 359.61 289.084 360.449 286.652 362.127C283.885 363.972 285.227 371.773 285.227 375.128C290.007 370.599 295.625 371.521 301.999 371.27C310.888 370.85 319.777 370.012 328.667 369.508C338.059 369.005 347.284 367.495 356.676 367.579C365.985 367.579 375.125 365.65 384.266 367.495C382.673 361.204 376.887 354.493 373.448 349.125C371.268 345.854 369.675 341.576 367.243 338.556C365.314 336.123 366.572 336.794 363.972 337.214ZM301.412 371.27L298.225 371.354C299.231 370.431 300.322 370.683 301.412 371.27ZM582.178 295.105C586.707 308.023 590.9 320.605 591.151 334.446C591.235 339.227 591.403 346.776 589.39 351.222C586.036 358.604 582.933 352.061 583.101 347.028C582.01 334.362 580.501 321.528 577.734 309.113C576.476 303.325 573.624 296.028 574.631 289.988C576.14 281.181 581.172 292.253 582.178 295.105ZM611.362 319.347C612.871 323.205 615.387 332.432 612.955 336.207C609.685 341.24 607.253 335.62 606.33 331.929C604.821 326.225 604.904 320.27 602.808 314.65C606.078 307.687 609.517 314.482 611.362 319.347ZM148.617 313.978C148.617 318.005 142.411 319.263 139.057 320.941C136.625 322.199 133.69 325.806 132.096 322.87C129.497 318.089 145.347 313.978 148.617 313.978ZM277.679 67.2819C280.53 75.6701 282.543 85.3165 281.369 94.208C280.782 98.8215 279.021 103.267 277.511 107.629C276.589 110.313 272.564 116.688 273.654 119.624C278.015 118.701 285.31 120.211 288.833 117.779C292.858 115.011 292.522 109.139 298.896 108.803C308.708 108.216 316.591 116.94 317.261 126.67C317.597 131.703 313.907 137.072 310.133 140.007C308.121 141.601 306.192 142.105 303.928 143.111C302.418 143.782 301.999 143.782 301.915 143.698C301.999 143.782 302.083 144.202 301.412 145.628C300.573 147.473 300.825 150.409 300.573 152.338C300.238 155.19 299.064 158.797 299.483 161.649C299.902 164.753 299.734 165.004 303.089 163.914C306.947 162.656 311.81 157.371 314.662 154.519C317.513 151.751 320.28 145.711 324.306 150.577C327.409 154.267 327.409 163.494 326.905 168.024C325.815 178.593 313.739 187.233 305.353 192.266C299.399 195.789 300.238 198.138 300.657 204.848C300.992 210.3 301.831 215.753 302.502 221.121C303.341 227.58 305.437 227.748 308.624 222.883C311.056 219.192 315.081 213.152 320.28 215.25C325.48 217.347 325.061 224.141 326.235 228.503C327.828 234.71 327.325 239.324 322.125 243.853C319.777 245.866 312.062 249.222 311.391 252.577C311.056 254.171 314.829 259.287 315.668 260.965C317.442 264.626 319.518 268.134 321.874 271.45C322.712 265.914 327.492 261.301 330.511 256.939C334.117 251.654 338.562 247.88 343.762 244.105C345.69 242.679 350.47 240.833 348.206 238.401C346.277 236.304 344.181 237.814 342.252 234.458C338.981 228.754 338.562 219.611 338.311 213.152C338.059 207.449 337.891 199.396 341.246 194.447C345.355 188.407 349.548 188.156 355.754 190.756C360.618 192.769 363.133 200.57 365.733 205.268C370.094 213.152 370.178 219.863 370.178 228.587C374.874 225.902 379.989 224.896 385.105 223.386C388.627 222.296 394.749 221.625 397.432 219.024C396.038 218.205 394.929 216.977 394.254 215.507C393.579 214.037 393.371 212.396 393.659 210.804C394.665 205.519 397.349 207.784 401.374 207.113C403.219 206.777 404.477 205.435 406.322 205.184C408.167 204.932 410.179 205.687 412.024 205.939C416.637 206.61 421.081 207.7 425.61 208.455C423.094 205.1 420.494 200.486 416.469 199.228C411.605 197.718 405.651 197.467 400.535 196.208C393.91 194.531 382.505 184.045 392.233 177.587C395.923 175.154 400.703 178.258 404.141 174.986C407.412 171.883 406.489 165.424 407.328 161.23C409.341 151.583 415.127 142.859 424.52 139.169C427.706 142.608 418.565 151.08 417.308 154.603C416.553 156.7 415.966 156.448 416.804 158.21C417.308 159.384 419.907 160.81 421.081 161.649L422.004 162.404C424.463 164.533 427.165 166.363 430.054 167.856C429.719 163.578 429.887 158.042 434.667 156.197C438.776 154.603 444.059 158.797 445.485 162.656C446.91 160.642 449.51 156.7 449.51 154.184C450.852 152.254 450.265 151.248 447.833 151.248C446.827 150.828 445.736 150.493 444.73 150.157C440.202 148.396 436.763 146.382 435.338 141.433C434.247 137.743 433.996 133.8 432.738 130.109C433.409 128.18 432.738 127.006 430.725 126.502C430.054 126.083 429.467 125.58 428.796 125.16C426.7 123.651 424.52 121.973 422.591 120.295C421.081 118.953 419.656 116.101 418.062 115.095C417.713 114.367 417.229 113.713 416.637 113.165C415.295 114.004 413.869 114.843 412.527 115.682C407.747 118.618 403.219 121.218 397.432 120.715C392.154 120.191 386.966 118.978 382.002 117.108C377.39 115.262 374.287 110.062 371.436 106.287C363.72 112.075 357.263 108.971 354.412 99.9958C353.171 95.9576 352.383 91.7938 352.064 87.5813C351.728 84.1421 352.818 81.1224 350.135 79.277C346.864 76.9283 339.736 76.8444 335.879 76.1733C331.686 75.5023 326.654 74.2441 322.377 74.9151C324.222 82.0451 327.073 90.1816 321.706 95.8856C316.423 101.59 313.739 104.442 306.863 98.3182C301.579 93.6208 297.303 87.1619 293.445 81.2901C291.432 78.1865 290.51 74.1602 288.497 71.2243C286.317 67.4496 281.704 67.869 277.679 67.2819ZM271.054 68.7037C268.489 68.9024 265.94 69.2666 263.423 69.7941C258.727 70.7168 254.03 71.4718 249.083 72.3106C238.013 74.0721 227.027 76.3369 216.041 78.3501C205.978 80.1955 194.741 82.6281 185.18 86.4866C174.698 90.6807 164.551 94.7909 154.571 100.075C144.592 105.444 135.954 112.406 126.394 118.278C108.448 129.35 90.3338 140.674 72.723 152.418C61.5695 159.883 49.5773 166.342 38.7593 174.227C33.1406 178.253 27.6896 182.531 22.4064 186.893C18.4649 190.165 11.3367 194.61 10.3304 199.979C15.6137 199.979 22.658 190.836 26.9349 187.9C30.0377 185.803 33.5599 184.125 36.7466 182.196C38.5915 181.105 44.5457 175.401 46.5583 175.401C49.4935 175.318 49.9128 179.512 49.158 181.441C48.2356 183.873 45.4681 185.887 43.6232 187.648C37.5852 193.352 32.6374 200.902 28.6121 208.115C35.9919 205.431 42.1137 196.54 47.3131 190.836C50.0805 187.816 64.253 174.814 63.2467 187.145C62.9112 191.675 59.5568 195.198 57.2925 198.972C54.7767 203.082 52.2609 207.193 50.0805 211.387C45.6948 219.921 42.2098 228.889 39.6817 238.145C44.2941 236.3 45.4681 231.267 47.5647 227.324C49.7451 223.298 52.2609 219.439 54.6929 215.581C59.8922 207.36 64.3369 198.804 69.8717 190.752C72.0521 187.564 81.7799 170.872 85.6375 173.22C88.2372 174.814 89.0758 182.28 89.8306 184.88C91.0885 188.99 93.0173 193.352 97.1265 195.198C97.2942 186.725 97.0426 178.337 97.1265 169.865C97.2104 163.239 100.816 161.309 105.345 156.696C115.827 145.959 129.245 138.997 141.741 130.944C147.275 127.337 152.391 122.64 158.513 119.62C165.389 116.265 172.098 112.322 178.807 108.548C192.816 100.734 208.891 97.4246 224.847 99.0689L225.518 99.1528C240.948 96.9719 258.307 99.9916 272.564 106.031C275.666 95.2942 276.84 83.9702 274.408 72.8978C273.989 69.6306 274.073 68.7079 271.054 68.7079V68.7037ZM411.27 229.757C410.599 229.757 409.928 229.841 409.257 229.841C409.929 229.855 410.601 229.827 411.27 229.757ZM721.22 51.2562C716.691 55.3665 710.821 58.7217 705.873 62.077C701.345 65.1806 697.068 68.7037 692.539 71.8912C680.799 80.0277 670.148 89.5903 658.827 98.2301C637.526 114.587 615.303 129.266 590.984 140.674C579.495 146.043 567.67 150.74 555.846 155.27C544.357 159.716 533.455 165.839 520.792 165.923C514.251 165.923 507.374 166.091 500.917 165.168C493.956 164.077 486.661 159.883 480.287 156.947C477.268 155.605 474.249 154.263 471.398 152.669C468.714 151.16 465.192 147.385 462.425 146.882C456.135 145.791 455.464 158.793 453.787 163.322C453.2 164.832 451.355 167.517 451.355 169.026C451.355 171.878 450.852 170.452 453.452 172.214C456.219 174.227 459.993 175.821 463.096 177.415C468.882 180.35 475.088 183.035 481.042 185.467C487.238 188.128 493.795 189.852 500.498 190.584C503.181 190.836 505.697 191.003 508.297 191.003H509.135C510.309 190.5 511.567 190.165 512.741 191.003H511.819C513.915 191.003 516.012 191.003 518.192 191.087C517.102 191.087 516.012 191.003 514.922 191.003C515.419 190.708 515.99 190.559 516.569 190.574C517.148 190.589 517.71 190.767 518.192 191.087C534.377 189.326 548.55 180.015 563.729 175.066C579.159 170.033 595.26 162.735 609.936 155.186C623.857 147.972 637.862 140.59 652.202 133.964C660.42 130.189 669.142 122.304 678.534 125.24C682.895 126.582 686.753 129.266 691.197 130.189C696.397 131.28 701.345 131.447 706.46 132.957C706.125 130.609 699.416 127.002 697.822 124.569C696.816 122.891 696.648 121.046 695.81 119.452C695.055 117.942 693.797 117.858 693.462 116.097C692.288 109.386 703.357 102.256 707.55 98.4817C720.968 86.4866 736.65 76.9241 749.984 64.5935C741.933 64.5935 732.289 74.827 726.251 79.5244C722.226 82.7119 718.201 85.8156 713.924 88.6675C712.75 89.4225 707.383 93.6166 705.873 93.1133C701.68 91.7712 705.705 84.5573 707.215 82.8797C710.15 79.6922 714.175 77.0919 717.53 74.4076C724.657 68.7888 731.254 62.5273 737.237 55.702C731.283 56.0375 722.981 65.9356 718.788 69.878C714.175 74.156 708.053 79.9438 702.015 82.2086C698.913 83.383 697.403 83.0475 697.151 79.2728C696.9 74.9948 700.254 72.73 703.106 70.2135C708.808 65.3526 718.033 58.3065 721.22 51.2604V51.2562ZM380.157 161.645C380.996 168.691 375.712 177.498 367.913 177.75C359.527 178.086 359.024 168.271 359.36 162.232C359.527 159.044 359.108 157.115 361.372 154.934C362.295 154.012 364.475 153.592 365.565 152.753C366.991 151.579 367.913 149.985 369.255 148.727C376.383 142.692 380.996 155.945 380.157 161.649V161.645ZM348.625 112.826C351.309 114.503 354.244 118.781 355.586 121.633C357.892 126.429 359.664 131.464 360.869 136.648C359.611 142.352 354.076 157.367 345.355 153.76C336.214 150.069 336.046 138.493 335.962 130.692C335.879 124.909 338.981 106.874 348.625 112.83L348.625 112.826ZM408.334 139.081C408.502 144.281 401.793 149.901 397.6 152.166C390.891 155.773 389.55 146.798 389.969 141.933C390.472 136.48 392.652 133.544 397.6 131.196C405.064 127.761 406.741 132.794 408.334 139.085V139.081ZM393.491 56.2053C390.975 56.9602 387.285 61.7415 385.357 63.6708C384.182 64.8451 382.17 68.452 380.493 68.7037C377.977 69.0392 378.228 67.8649 376.551 65.7678C370.178 58.1346 363.385 58.1346 359.779 67.4454C361.873 68.4212 364.187 68.8263 366.488 68.6198C367.243 68.6198 370.345 67.6971 370.932 68.0326C374.287 70.2135 369.423 72.1428 368.752 73.2333C368.331 73.9368 368.02 74.7005 367.83 75.4981V75.8336C367.41 77.4274 367.075 78.6017 364.224 79.5244C361.372 80.4471 358.94 79.6083 356.005 78.7695C356.341 84.3896 356.341 94.5393 360.282 99.1528L360.534 99.4044C361.624 99.9077 362.798 100.411 363.888 100.914H363.469C365.398 100.914 367.662 100.075 369.004 99.8238C368.417 96.9719 365.23 87.4932 366.656 85.48C369.423 81.6215 370.597 87.4093 371.268 89.9258C372.861 96.0492 376.383 104.102 381.918 107.877C381.834 107.793 381.834 107.709 381.75 107.625C383.092 107.877 384.434 107.877 385.105 109.386C384.697 109.236 384.276 109.123 383.847 109.051C389.13 111.483 398.942 115.594 404.141 112.826C411.437 109.051 417.308 102.76 423.429 97.4752C419.236 95.3781 418.649 92.1067 421.92 88.7514C428.88 96.2169 433.157 80.1955 435.422 75.3303C431.145 74.9109 427.287 77.5113 422.926 76.6724C419.32 75.9175 415.043 74.6593 412.024 72.73C407.915 70.0458 404.309 66.1872 400.871 62.8319C398.607 60.6552 395.755 55.4545 393.491 56.2095V56.2053ZM264.848 109.722C265.016 110.561 265.268 111.316 265.435 112.154C266.609 109.894 266.609 109.894 264.848 109.726V109.722ZM399.697 108.38C397.936 108.212 391.059 106.954 395.504 104.941C397.768 103.938 399.948 106.287 399.697 108.384V108.38ZM420.41 83.5508C421.333 85.8156 417.559 89.8419 416.469 91.8551C414.792 94.8748 411.857 107.709 407.077 106.367C401.793 106.367 402.716 101.334 405.567 98.9011C406.573 98.0623 407.664 97.9784 408.67 96.9719C409.508 96.0492 410.095 94.1199 410.683 93.0294C412.108 90.1774 413.366 86.9899 415.63 84.6412C417.391 82.8 419.236 80.7868 420.41 83.555V83.5508ZM224.008 98.985L224.595 99.0689L225.685 99.1528L224.763 99.0689L224.008 98.985ZM222.834 98.8173L223.505 98.9011H223.84L223.337 98.8173H222.834ZM395.084 80.4471C397.6 80.7827 396.007 81.957 397.265 83.0475C398.103 83.8024 398.271 84.1379 398.187 84.3057H398.271C398.607 84.3057 399.277 84.3057 400.368 84.3896C402.8 84.6412 410.263 82.4603 405.483 87.2416C404.477 88.2481 398.271 91.184 396.845 90.513C393.826 89.0912 395.084 83.0517 395.084 80.4513V80.4471ZM398.187 84.3896C397.6 84.3896 398.02 84.5573 398.187 84.3896V84.3896ZM195.076 83.6346C194.404 83.6207 193.732 83.6487 193.063 83.7185C193.735 83.7339 194.407 83.7072 195.076 83.6388V83.6346ZM292.187 60.8188C292.868 60.5419 293.599 60.4065 294.334 60.421C295.069 60.4354 295.794 60.5993 296.464 60.9027H293.78C296.899 61.0721 300.006 61.4081 303.089 61.9092C316.591 64.0063 332.273 65.1806 345.103 70.5491C345.019 70.4652 345.019 70.3813 344.936 70.3813C345.441 70.2512 345.974 70.287 346.457 70.4833C346.941 70.6797 347.348 71.0262 347.619 71.4718C347.535 71.4718 347.368 71.5557 347.284 71.5557C348.709 72.2267 350.135 72.9816 351.561 73.8205C353.657 69.3747 349.799 70.7168 346.193 69.0392C342.381 67.3104 338.958 64.828 336.13 61.7415C333.614 59.0573 331.434 55.702 332.273 51.7595C332.692 49.6625 335.04 48.9075 335.459 47.3977C335.627 46.8944 334.201 45.1329 334.117 44.4618C333.908 42.8382 333.993 41.19 334.369 39.5967C336.466 30.7891 335.543 19.465 345.523 15.6903C347.703 14.8515 347.619 15.7742 349.212 14.0966C350.806 12.4189 351.309 9.73471 353.154 7.97319C356.516 4.49052 360.787 2.0204 365.481 0.843231C370.429 -0.247233 374.622 1.4304 379.319 1.26264C384.434 1.09488 388.292 -0.918288 393.743 0.507704C397.852 1.59817 398.187 3.27581 401.29 5.12121C404.477 7.05049 410.599 5.45673 414.624 6.71496C416.721 7.38602 418.062 8.56036 419.907 9.73471C420.997 10.4058 420.914 10.8252 422.004 11.2446C422.591 11.4962 423.933 11.1607 424.687 11.3285C429.635 12.4189 430.054 18.2068 433.241 19.3811C435.673 20.2199 436.763 18.5423 439.447 20.3877C441.06 21.6317 442.353 23.2419 443.221 25.0851C443.64 25.9239 443.975 28.6081 444.311 29.0275C445.401 30.2858 444.982 29.6147 445.988 30.2858C448.168 31.7956 450.684 31.7118 453.032 34.2282C456.219 37.5835 459.993 40.2677 460.748 45.1329C460.9 45.9064 460.928 46.6992 460.831 47.4816V47.9848C460.747 49.4108 460.412 50.7529 460.328 52.2628C460.16 53.9405 459.993 54.0243 460.328 55.1987C460.58 56.0375 462.005 57.128 462.341 58.3862C465.024 67.9487 449.51 78.7695 441.543 73.4011C438.273 80.2794 435.925 87.5771 432.822 94.4554C431.145 98.2301 422.088 107.122 422.759 109.806C423.262 112.071 428.461 113.497 430.222 114.587C433.493 116.516 436.596 118.865 439.782 121.046C442.047 122.64 444.227 124.233 446.407 125.827L447.749 126.834L447.917 126.918C449.225 127.341 450.368 128.162 451.187 129.266C453.032 130.525 454.877 131.615 456.806 132.706C459.825 134.299 460.58 134.635 461.922 137.822C463.263 141.094 461.586 139.919 464.437 142.016C469.972 146.043 478.442 147.804 484.816 150.572C498.82 156.696 512.49 159.883 527.836 157.199C541.673 154.85 554.504 148.224 567.419 143.023C580.272 137.977 592.842 132.237 605.072 125.827C616.561 119.704 627.882 113.161 638.449 105.444C644.403 101.166 650.609 97.3074 656.311 92.6939C661.93 88.1643 667.129 83.1313 672.832 78.7695C683.985 70.1297 695.726 61.9092 707.466 54.1082C710.821 51.9273 714.091 49.5786 717.362 47.2299C719.375 45.8039 723.316 41.7776 725.916 42.2809C734.05 43.8746 725.916 54.3599 724.49 57.4635C728.516 55.2826 731.786 52.1789 735.979 50.1658C738.159 49.1592 744.03 45.5523 746.294 47.0621C751.577 50.5852 739.082 62.3286 737.069 65.0129C740.424 63.0836 751.745 55.5342 754.512 61.7415C757.364 68.2843 746.965 75.9175 743.107 79.6083C731.87 90.2613 718.871 98.7334 707.466 109.051C705.873 110.477 700.758 113.664 701.093 116.181C701.428 118.613 706.208 121.382 707.886 122.975C711.24 126.079 721.807 136.312 715.098 141.513C712.75 143.359 705.957 141.849 703.106 141.513C698.913 141.094 694.803 140.758 690.694 140.003C684.572 138.997 678.618 134.215 672.496 134.048C665.62 133.88 658.24 139.919 652.37 142.855C645.409 146.294 638.784 150.069 631.908 153.592C618.742 160.303 606.162 167.768 592.577 173.808C577.65 180.434 561.716 184.712 547.04 191.758C532.113 198.888 517.605 201.153 501.252 200.65C485.235 200.147 468.127 189.577 455.464 180.434C454.71 179.931 454.039 179.344 453.284 178.841C451.942 176.744 450.768 176.744 449.762 178.673C447.665 179.008 446.827 179.344 444.395 179.176C440.369 178.924 438.357 178.002 434.751 176.66C426.448 173.556 420.159 171.207 414.289 163.993C410.431 174.059 420.159 184.628 425.358 192.429C428.209 196.791 431.48 200.902 433.996 205.431C436.009 209.122 436.763 214.91 440.537 216.587C442.801 217.594 444.227 215.916 445.82 218.265C446.827 219.775 445.736 221.536 445.485 222.795C444.982 226.066 443.388 221.453 444.562 226.234C444.898 227.744 447.078 230.596 447.749 232.022C452.529 241.5 456.471 251.398 460.58 261.129C464.689 270.859 468.714 280.505 472.74 290.236C474.501 294.43 476.933 298.288 478.526 302.566C480.539 307.767 481.797 313.135 483.725 318.42C486.807 327.194 487.186 336.69 484.816 345.682C482.384 353.902 471.985 362.374 463.599 361.787C467.456 369.504 471.817 376.466 475.842 384.016C479.616 391.146 482.216 398.695 486.157 405.573C490.602 413.374 494.46 421.679 498.988 429.312C502.762 435.771 505.11 443.152 508.632 449.695C516.683 464.626 524.482 480.228 533.12 495.075C538.151 503.715 542.68 512.607 547.795 521.162C550.563 525.776 553.33 530.306 556.097 534.919C557.691 537.519 559.536 543.391 562.555 544.649C561.716 545.572 558.949 547.669 558.781 548.927C558.529 552.45 562.052 551.444 564.064 551.024C569.096 549.766 573.96 548.508 578.908 546.746C588.3 543.391 597.189 538.61 606.666 535.59C616.477 532.487 625.786 527.034 635.933 524.686C640.545 523.595 655.808 517.136 657.15 522.589C657.401 523.595 656.731 526.112 656.731 527.37C656.731 529.551 657.318 531.564 656.982 533.829C656.395 538.274 653.963 542.636 651.615 546.327C645.996 555.135 639.623 563.775 632.159 571.156C619.412 583.822 607.84 600.683 592.074 609.742C588.971 611.503 585.952 614.691 582.43 615.614C578.488 616.62 575.134 615.362 571.696 615.194C569.767 615.11 569.683 616.201 567.335 615.278C565.406 614.523 562.974 612.258 561.381 611C557.439 607.896 554.085 603.954 550.898 600.179C548.047 596.824 544.944 590.365 541.086 588.268C538.906 587.094 539.074 589.023 537.145 586.339C536.055 584.829 535.971 583.403 534.629 581.893C533.203 580.299 532.365 580.131 531.358 578.202C530.688 576.86 530.688 575.602 529.849 574.26C527.082 569.73 522.805 565.872 519.786 561.342C515.257 554.631 509.555 548.844 504.775 542.385C499.156 534.584 492.782 526.866 486.661 519.485C474.836 505.225 463.934 489.539 452.781 474.524C440.626 458.098 429.426 440.986 419.236 423.272C413.785 413.794 407.244 404.734 401.626 395.34C396.091 386.197 390.975 376.634 384.434 368.162C383.176 369.169 385.273 372.775 383.763 374.201C382.17 375.711 374.622 375.795 372.526 376.131C365.481 377.305 358.018 378.731 350.89 378.983C336.214 379.57 321.706 382.506 306.863 383.177C303.508 383.345 300.909 382.757 297.722 382.17C292.942 381.164 292.019 380.576 291.013 385.274C289.503 392.488 287.742 400.121 287.072 407.419C286.401 414.968 286.233 422.434 286.149 429.983C286.065 433.59 285.981 437.197 285.981 440.804C285.981 446.004 287.407 451.121 287.155 456.322C286.82 462.949 285.646 468.736 278.769 470.582C274.912 471.588 274.828 471.085 272.144 468.988C269.293 466.807 265.519 464.794 263.171 462.194C253.946 451.857 247.535 439.32 244.554 425.789C241.535 411.026 245.644 395.088 247.07 380.409C247.657 374.201 247.908 364.303 252.269 359.438C256.882 354.238 266.358 354.405 272.647 354.321C273.807 354.338 274.964 354.197 276.086 353.902H275.415L276.589 353.734C278.367 352.986 280.078 352.088 281.704 351.05C284.64 349.456 288.916 348.618 292.103 347.359C300.741 344.004 309.882 342.326 318.603 339.391C325.731 336.958 332.776 335.616 339.904 333.854C345.187 332.596 350.638 332.344 355.921 331.422C355.341 331.31 354.748 331.282 354.16 331.338C355.418 330.499 356.76 331.002 358.102 331.002C359.379 330.745 360.64 330.409 361.875 329.996C353.573 314.981 346.026 299.63 336.885 285.035C334.872 288.726 331.518 288.726 327.492 287.551C325.228 286.88 324.306 284.616 322.293 283.861C320.951 283.357 320.197 284.867 318.855 283.777C318.1 283.19 317.597 281.009 317.094 279.163C309.462 271.446 305.856 262.722 302.25 252.489C304.85 257.354 307.198 262.303 309.882 267.084C310.55 268.213 311.278 269.305 312.062 270.356L311.81 270.02C310.679 268.376 309.643 266.667 308.708 264.903C300.322 249.217 295.877 233.783 293.193 216.252C290.761 200.566 290.258 184.041 290.761 168.188V168.104C290.761 167.013 290.845 165.923 290.929 164.832C291.353 158.103 292.364 151.423 293.948 144.868C294.535 142.268 295.877 138.41 295.877 135.809C295.877 134.215 295.458 126.498 294.954 126.079C292.942 124.401 285.227 125.743 283.046 125.911C279.105 126.331 275.163 126.918 271.138 127.337C270.299 127.421 269.545 127.505 268.706 127.589C268.08 127.353 267.389 127.36 266.768 127.608C266.147 127.857 265.642 128.329 265.352 128.931C263.255 129.266 265.939 131.028 263.003 129.35C259.649 127.421 259.733 120.039 259.733 116.768C259.733 115.51 260.655 110.225 259.817 109.303C259.146 108.548 254.617 108.883 253.443 108.799C249.082 108.464 244.722 107.96 240.361 107.709C231.723 107.373 223.002 107.541 214.448 107.625C199.185 107.709 184.677 114.671 171.93 122.472C166.06 126.079 159.519 128.595 153.733 132.37C148.03 135.977 142.998 140.507 137.38 144.281C129.497 149.65 121.278 154.095 113.983 160.219C110.46 163.155 105.848 166.091 103.332 169.949C100.733 173.808 102.494 178.253 102.41 182.699C102.326 187.564 102.577 192.681 101.739 197.462C101.487 199.14 101.236 202.244 99.6423 203.334C97.2942 205.012 97.8812 203.754 95.9524 202.663C87.3986 197.882 85.8891 189.074 83.3733 180.602C69.2008 199.643 59.8084 221.62 46.3906 241.249C44.378 244.268 40.7719 250.643 36.495 247.54C33.9792 245.694 33.476 242.255 33.7276 238.816V238.229C33.9739 236.19 34.3662 234.172 34.9017 232.189C36.495 225.982 37.9207 219.607 40.8558 213.819C42.3653 210.967 44.0425 208.199 45.552 205.347C46.3068 203.837 48.6549 200.985 48.571 199.308C47.9001 200.23 47.1454 201.153 46.4745 201.992C43.12 203.586 40.6042 208.87 37.8368 211.471C35.321 213.819 32.4697 216.168 29.7862 218.433C24.8736 222.564 20.3538 227.141 16.2845 232.106C13.6848 235.125 10.4981 238.061 8.23389 232.441C6.47281 228.163 9.24022 224.305 11.2529 220.614C13.7255 215.898 16.6461 211.432 19.9744 207.277C22.9096 203.754 27.0187 199.895 28.1928 195.449C22.3225 199.476 17.0393 204.257 10.7497 207.696C5.71806 210.38 -2.41645 210.212 0.686404 202.16C2.95065 196.288 9.91111 189.158 14.5235 184.88C19.3035 180.434 24.7545 176.324 29.9539 172.214C41.8621 162.735 55.196 154.934 67.7752 146.294C79.2641 138.41 91.0046 131.028 102.41 123.311C127.987 106.031 153.146 86.6544 182.832 76.7563C196.738 72.1152 210.981 68.5536 225.434 66.1033C232.813 64.8451 240.696 62.9997 248.16 62.6642C250.927 62.5803 253.527 63.0836 256.295 62.9158C259.146 62.7481 262.584 63.503 265.435 62.8319C268.371 62.1609 270.97 59.0573 273.821 59.225C274.744 59.3089 275.499 60.1477 276.421 60.3155H276.673C277.847 60.1477 279.105 59.225 280.195 60.2316C284.22 60.3155 288.246 60.3994 292.271 60.5671L292.187 60.8188Z" fill="white"/>
<path fill-rule="evenodd" clip-rule="evenodd" d="M222.06 208C225.36 210.9 223.76 214 222.66 217.6C222.06 219.8 218.46 227 219.46 229.1C220.56 231.5 225.86 232.1 228.16 232.8C232.135 234.004 236.013 235.508 239.76 237.3C241.46 238.1 247.36 240 248.46 241.5C248.789 241.858 249.003 242.307 249.074 242.789C249.146 243.27 249.071 243.762 248.86 244.2C248.06 246.2 246.76 245.1 244.76 244.7C235.36 242.8 226.06 240.3 217.26 236.2C214.86 241.8 212.76 247.6 210.66 253.4C210.06 255.1 209.46 259 207.16 259.2C204.36 259.5 204.36 255.8 204.56 253.8C204.86 250.9 206.36 247.7 207.26 244.9C208.06 242.6 210.66 237.8 210.36 235.4C210.16 233.8 209.16 233.9 207.36 233.2C205.66 232.6 203.96 232 202.36 231.4C199.66 230.4 196.96 229.4 194.36 228.3C192.96 227.7 189.96 226.9 188.86 225.6C188.26 224.8 187.56 222.1 188.36 221.3C190.16 219.5 201.96 224.3 204.36 225C205.96 225.4 207.56 225.8 209.16 226.3C209.76 226.5 210.46 227.4 211.06 227.4C213.76 227.5 213.96 225.4 214.86 223.2C216.871 217.958 219.278 212.877 222.06 208Z" fill="white"/>
<path fill-rule="evenodd" clip-rule="evenodd" d="M561.111 37.0337C561.484 35.8511 562.754 35.1985 563.946 35.5762C564.981 35.9039 565.618 36.9001 565.524 37.9307L569.269 47.914C570.349 50.7948 570.707 53.7381 570.315 56.5345C570.001 58.7776 569.211 60.8864 567.981 62.7634L566.043 65.7219C565.319 66.9509 564.411 68.0023 563.514 68.65C562.606 69.3064 561.783 69.4944 561.227 69.1724C561.208 69.1613 561.189 69.1503 561.17 69.1391C560.63 68.828 560.064 68.5014 560.182 67.4277C560.295 66.3977 560.523 64.7036 561.542 63.5197L561.539 63.5178L563.658 60.2836C564.63 58.8003 565.255 57.1337 565.503 55.3611C565.812 53.151 565.53 50.8249 564.676 48.5483L563.346 45.002L550.221 86.5739C550.084 87.6209 549.828 88.6685 549.443 89.6993C546.694 97.0565 538.449 100.773 531.028 98.0002C523.607 95.2275 519.82 87.0155 522.569 79.6583C525.318 72.3011 533.562 68.5847 540.983 71.3574C544.192 72.5564 546.721 74.7724 548.337 77.4965L561.111 37.0337Z" fill="white"/>
</svg>
