<svg width="804" height="616" viewBox="0 0 804 616" fill="none" xmlns="http://www.w3.org/2000/svg">
<path fill-rule="evenodd" clip-rule="evenodd" d="M250.582 280.105C253.47 309.561 256.45 339.017 259.338 368.474C275.267 359.367 291.196 350.354 307.125 341.248V425.992C307.125 427.572 306.193 432.868 307.125 434.262C307.87 435.377 313.738 435.47 315.136 435.656C324.171 436.957 333.207 438.072 342.243 439.001C366.09 441.603 391.52 445.413 415.46 442.346C436.233 439.744 456.353 432.311 475.356 423.762C482.063 420.788 488.584 417.536 495.011 414.098C496.408 413.355 501.345 411.682 502.091 410.195C502.743 408.987 501.252 404.713 501.066 403.412C500.228 398.023 499.482 392.633 498.644 387.244L487.466 312.07L508.611 333.163C510.288 334.836 513.455 339.482 515.691 340.225C517.367 340.783 521.559 339.11 523.236 338.739C535.252 336.416 547.176 334.093 559.192 331.862C561.987 331.305 568.321 331.305 570.65 329.632C571.954 328.703 571.954 326.845 572.42 325.172C575.308 313.743 578.288 302.313 581.176 290.884C581.735 288.84 584.623 282.335 583.877 280.291C583.598 279.548 582.294 279.083 581.549 278.525C563.477 267.468 545.406 256.503 527.241 245.445C517.367 239.405 507.4 233.365 497.526 227.326C493.334 224.817 488.304 220.264 483.553 218.777C480.666 217.941 476.381 218.591 473.4 218.498L454.956 217.941C454.024 217.941 450.671 217.197 449.833 217.755C449.181 218.219 449.46 218.87 449.181 219.985C448.758 222.788 448.479 225.61 448.342 228.441C448.156 230.671 448.529 234.759 447.504 236.804C446.852 238.104 447.69 237.547 446.852 238.197C445.827 238.941 442.474 238.662 441.263 238.848C435.208 239.591 429.246 240.242 423.191 240.985C416.019 241.821 408.846 243.401 401.58 242.658C390.682 241.543 378.944 241.636 368.232 239.312C365.438 238.755 364.413 237.175 362.27 235.038C358.079 230.857 353.98 226.675 349.695 222.494C347.646 220.449 348.484 220.821 346.341 221.564C343.64 222.494 340.939 224.817 338.517 226.303C329.202 231.972 319.887 237.64 310.665 243.215L253.935 277.689C252.896 278.598 251.773 279.407 250.582 280.105Z" fill="#6D01D0"/>
<path fill-rule="evenodd" clip-rule="evenodd" d="M793.282 283.704C781.544 328.027 758.07 376.347 710.656 390.378C699.106 393.816 687.927 396.418 675.911 395.117C674.854 395.055 673.795 395.086 672.744 395.21C670.788 395.21 672.464 395.953 670.322 395.303C668.645 394.745 667.062 393.444 665.292 392.887C660.634 391.307 655.604 391.028 650.76 389.82C638.84 386.74 627.088 383.049 615.549 378.763C610.146 376.811 605.302 374.024 600.272 371.422C595.149 368.727 589.746 367.054 584.529 364.546C580.431 362.594 573.444 360.085 570.557 356.368C567.483 352.466 571.768 344.103 572.979 340.014C577.077 325.89 582.014 311.952 585.088 297.549C595.801 309.908 610.705 317.62 626.075 322.545C634.429 325.229 642.999 327.188 651.691 328.399C659.609 329.514 668.086 330.815 676.004 329.235C681.966 328.027 689.418 325.333 693.703 320.779C695.193 319.2 697.056 316.226 696.218 313.81C695.1 310.837 692.026 312.231 690.256 310.001C688.766 308.049 689.045 303.496 688.486 301.173C687.654 297.012 686.533 292.914 685.133 288.907C682.431 281.102 678.985 273.204 678.24 264.934C677.538 257.838 679.138 250.705 682.804 244.584C684.481 241.61 688.766 233.526 692.958 233.898C697.522 234.269 691.374 253.597 691.188 257.5C690.349 273.111 692.492 289.837 700.503 303.496C703.577 308.7 708.048 314.833 714.569 315.483C721.555 316.133 727.144 310.744 730.498 305.169C738.602 291.695 734.503 273.204 730.404 258.987C725.374 241.61 712.24 229.716 703.949 214.105C716.339 215.313 722.952 223.212 729.287 233.154C736.463 244.464 741.573 256.954 744.377 270.044C745.774 276.456 744.843 282.96 744.843 289.465C744.843 291.602 744.843 299.593 748.383 299.315C752.202 298.943 753.413 290.022 753.972 287.235C755.276 280.916 756.58 274.69 757.698 268.279C759.654 257.128 760.492 245.606 762.821 234.548C763.194 232.69 764.032 227.486 766.827 228.88C768.969 229.995 768.69 237.986 768.69 239.938C768.876 244.584 769.155 249.137 769.155 253.783C769.249 260.659 767.851 267.721 768.503 274.505C768.969 278.965 771.298 283.89 774.279 277.85C777.26 271.903 777.818 264.469 779.495 258.057C781.265 251.367 783.035 244.491 786.668 238.544C787.692 236.871 788.81 234.269 791.046 235.013C792.723 235.57 793.934 239.473 794.399 240.774C796.728 246.907 796.262 253.783 796.169 260.287C796.243 268.186 795.272 276.059 793.282 283.704ZM565.247 295.226C563.956 294.98 562.648 294.824 561.335 294.761C560.589 294.668 561.428 293.275 559.565 293.646C559.725 294.076 559.986 294.46 560.327 294.767C560.667 295.075 561.077 295.296 561.521 295.412C558.726 296.341 556.677 294.018 554.721 293.739C552.858 293.461 552.765 293.739 550.995 295.691C549.039 293.275 549.411 294.761 547.828 294.761C547.269 294.761 547.176 295.691 546.244 295.505C545.406 295.412 545.313 294.111 544.847 294.018C542.146 293.182 539.444 297.27 536.37 293.739C535.625 297.456 527.148 292.81 523.981 293.461C520.534 294.111 522.025 295.319 519.323 293.275C516.715 291.323 517.46 292.624 514.386 294.204C514.48 294.204 512.71 295.412 512.803 295.412C510.66 295.133 510.847 292.996 508.145 293.089C505.351 293.182 504.14 295.412 501.532 292.717C500.973 294.761 500.879 293.832 499.482 294.39C499.136 294.486 498.77 294.486 498.425 294.387C498.08 294.289 497.768 294.097 497.526 293.832C497.458 294.092 497.316 294.326 497.118 294.508C496.92 294.689 496.673 294.809 496.408 294.854C494.918 294.947 492.216 295.226 490.912 294.483C488.956 293.461 490.54 292.996 489.142 291.881C488.49 295.133 487.186 294.39 484.392 294.761C482.249 294.947 481.783 294.297 479.734 294.018C477.685 293.739 475.077 294.483 473.12 294.854C472.282 294.947 471.164 295.598 470.419 295.319C469.674 295.133 469.301 294.576 468.929 294.39C468.37 294.204 468.463 293.739 467.531 293.461C466.879 293.275 465.761 293.925 465.109 294.018C460.452 294.761 456.074 294.761 451.696 292.996C453.838 296.806 446.665 294.761 445.361 293.182C443.778 295.691 441.822 293.925 438.561 294.111C435.394 294.297 430.737 295.226 429.432 291.323C428.769 292.637 427.851 293.805 426.731 294.761C424.682 295.784 424.402 294.297 422.539 293.646C419.931 292.81 420.49 294.39 418.906 294.761C416.205 295.319 414.715 293.368 412.293 292.345C412.199 293.925 412.106 294.854 410.802 295.876C409.591 291.509 405.306 296.248 406.051 290.394C404.375 291.416 402.046 292.253 401.58 294.483C404.375 293.739 401.86 295.505 401.766 295.598C401.394 295.784 400.183 294.111 399.903 293.832C399.795 294.633 399.732 295.44 399.717 296.248C398.68 295.633 397.684 294.95 396.736 294.204C395.898 293.739 397.109 292.81 395.712 292.81C394.966 292.81 394.221 294.297 393.476 294.483C392.358 294.669 392.917 293.089 392.358 293.089C391.613 293.182 390.402 294.204 389.843 294.204C388.073 294.111 389.284 293.275 387.887 292.903C385.372 292.253 385.558 293.832 383.788 294.39C379.69 295.691 380.155 289.558 375.964 293.646C374.939 294.669 374.38 296.155 372.983 296.062C370.188 295.876 371.12 292.531 371.772 290.952C372.331 291.23 361.525 296.806 361.618 296.62C361.711 295.319 363.388 294.297 361.898 293.089C360.687 295.784 359.383 295.784 356.495 296.341C355.098 296.62 354.818 296.899 353.328 296.341C352.396 295.969 351.744 294.483 350.813 294.39C350.22 294.92 349.598 295.416 348.95 295.876C347.366 296.62 346.435 295.784 344.851 296.062C343.547 296.341 343.081 297.456 341.777 297.084C340.007 296.713 341.032 294.668 338.703 295.226C337.865 295.412 337.399 296.992 336.095 297.27C334.139 297.735 331.623 296.806 329.574 297.363C328.136 297.703 326.671 297.92 325.196 298.014C323.985 298.107 324.544 297.177 322.308 298.2L321.377 295.876C320.259 296.899 319.234 297.828 318.117 298.85C317.895 297.968 317.77 297.064 317.744 296.155C316.16 297.735 314.111 298.014 311.875 298.2C309.711 298.436 307.565 298.808 305.448 299.315C304.703 299.408 302.84 299.686 302.281 299.408C302.374 299.408 301.163 298.943 301.536 299.036C301.349 298.757 301.256 298.385 301.07 298.107C300.884 297.177 300.232 297.177 299.114 298.014C298.555 297.921 297.437 297.177 296.878 297.363C295.388 297.828 295.574 299.036 294.084 298.85C293.152 298.757 292.593 297.363 291.662 297.27C290.171 297.084 288.774 298.85 287.47 299.222C291.662 298.107 282.067 298.943 285.048 299.036C283.092 298.943 281.042 298.85 279.272 299.779C278.248 299.129 279.459 297.735 278.434 297.177C277.503 296.62 277.409 298.014 277.316 298.014C277.875 297.828 277.596 299.036 277.037 299.222C275.267 299.872 273.776 298.2 273.683 296.62C272.193 298.943 271.727 298.014 269.492 298.107C267.256 298.292 265.393 299.408 263.157 299.408C258.779 299.408 255.798 297.828 254.308 293.925C258.965 294.483 263.716 291.509 268.281 292.16C269.771 292.438 270.703 293.553 272.007 293.275C273.59 292.996 274.801 291.23 276.851 291.045C281.415 290.58 285.979 291.045 290.637 290.301C296.207 289.388 301.86 289.076 307.497 289.372C311.782 289.651 315.322 288.071 319.7 287.699C325.382 287.328 331.065 287.235 336.747 286.956C342.522 286.677 348.857 285.748 354.632 286.027C356.335 286.181 358.045 286.244 359.755 286.213C360.5 286.213 361.246 285.655 361.991 285.748C363.016 285.841 363.481 286.863 364.599 286.863C366.462 286.77 368.418 285.283 370.561 285.283C374.1 285.191 377.733 285.19 381.273 285.005C384.44 284.819 387.794 284.075 390.961 284.168C393.197 284.168 393.755 286.12 395.06 286.306C397.388 286.677 409.125 279.987 410.15 285.934C416.298 281.752 424.495 285.283 431.295 284.54C440.052 283.518 448.994 284.447 457.75 284.075C466.795 283.75 475.851 284.03 484.857 284.912C488.504 285.345 492.179 285.5 495.849 285.376C497.526 285.283 499.389 284.819 501.066 285.283C501.438 285.376 504.512 287.514 504.14 287.606C505.817 286.12 504.699 285.841 507.586 285.841C509.822 285.748 511.964 286.306 514.293 286.398C518.392 286.677 522.397 286.12 526.496 286.213C529.85 286.306 533.203 286.77 536.556 286.863C540.189 286.863 544.568 286.956 547.176 289.93L546.337 287.142C550.436 287.421 554.442 288.907 558.633 288.257C557.609 289.279 556.491 290.115 556.118 291.509C558.354 291.23 559.844 289.651 562.173 289.651C564.129 289.651 564.595 290.58 566.644 289.372C566.924 290.952 567.11 292.531 567.39 294.018C570.277 293.368 568.414 291.23 568.601 289.279C570.929 290.022 572.885 289.186 572.047 292.531C570.929 294.761 567.669 295.969 565.247 295.226ZM561.148 324.125C560.124 326.912 551.461 325.333 549.411 325.054C546.71 324.682 543.729 324.032 541.307 323.753C541.014 323.367 540.669 323.023 540.283 322.731C540.013 323.184 539.58 323.517 539.072 323.66C537.954 323.939 537.954 325.054 536.463 324.775C536.37 326.448 537.581 325.518 538.513 326.169C536.184 327.749 537.302 325.89 535.998 325.983C535.869 325.763 535.673 325.59 535.438 325.49C535.203 325.389 534.942 325.367 534.693 325.426C533.956 325.599 533.26 325.915 532.644 326.355C532.085 327.005 531.619 327.005 531.154 326.448C530.779 326.059 530.289 325.798 529.756 325.704C527.521 326.076 526.869 327.098 524.26 326.912C520.628 326.634 516.715 327.656 513.082 327.098C510.847 326.819 507.121 323.288 506.096 326.726C504.512 324.218 502.09 322.452 500.6 319.943C507.493 319.572 514.293 319.107 521.186 318.828C527.241 318.642 533.762 319.293 539.351 319.014C544.567 318.735 550.157 318.178 555.559 317.713C561.335 317.156 563.198 318.364 561.148 324.125ZM382.298 324.496C384.813 325.147 387.142 323.66 389.564 324.125C390.402 324.311 391.986 325.704 392.358 325.797C393.01 325.89 394.966 324.403 395.805 324.218C401.424 323.119 407.19 322.994 412.851 323.846C415.646 324.218 416.112 322.917 418.534 322.359C421.049 321.709 424.682 322.173 427.383 321.987C433.717 321.523 440.052 321.895 446.293 321.43C452.72 320.965 459.148 320.687 465.575 320.408C469.953 320.222 480.479 317.713 484.112 320.965C487.093 323.66 483.274 328.306 480.293 329.328C478.057 330.165 476.94 328.492 475.356 328.585C473.493 328.771 474.145 331.001 472.468 328.957C471.444 331.001 464.83 330.165 462.967 330.258C458.868 330.536 455.328 331.373 452.534 327.563C452.72 328.678 452.907 329.793 453.093 330.908C449.367 328.957 445.361 329.607 442.194 330.258C440.611 330.629 435.674 332.952 433.997 331.93C432.786 331.187 434.928 330.072 432.879 329.421C431.854 329.142 429.991 330.815 428.687 330.722C425.147 330.443 426.172 328.12 422.632 331.094C422.072 330.546 421.652 329.872 421.409 329.127C421.165 328.383 421.106 327.591 421.235 326.819C418.72 328.957 418.906 332.581 414.342 331.93C412.665 331.651 412.293 329.979 411.454 329.607C409.591 328.957 409.405 330.165 407.728 331.094C407.106 331.544 406.413 331.889 405.679 332.116C404.188 332.302 404.002 331.558 403.723 331.651C402.698 331.744 401.487 332.302 400.276 331.93C399.251 331.651 398.879 329.793 397.016 330.165C395.246 330.536 395.246 331.744 395.525 333.603C393.755 333.417 392.731 332.488 391.427 331.373C390.123 334.439 387.328 331.93 385.744 334.532C383.695 332.116 382.484 332.766 379.969 330.443C380.062 331.373 380.248 332.395 380.342 333.324C378.385 332.952 377.547 331.558 375.87 333.417C374.287 330.443 369.35 334.718 366.835 331.837C365.717 335.461 358.358 334.625 355.191 334.718C352.396 334.811 350.347 334.532 347.646 335.182C345.06 335.847 342.397 336.159 339.728 336.112C338.099 335.823 336.442 335.729 334.791 335.833C332.182 336.112 329.854 337.505 327.152 336.855C323.054 335.926 320.538 330.536 325.103 328.12C328.27 326.541 333.859 327.098 337.306 326.819C342.988 326.355 349.415 325.24 355.191 325.797C359.662 326.169 363.761 325.147 368.232 324.682C371.679 324.311 377.268 323.753 379.503 327.098C380.528 326.076 380.435 324.032 382.298 324.496ZM319.7 370.864C319.048 367.798 345.224 366.125 347.832 365.939C353.235 365.475 358.731 365.196 364.226 365.103C368.698 365.01 372.89 365.846 377.361 365.196C381.553 364.546 386.583 363.245 390.216 366.218C390.775 362.13 406.517 364.174 409.498 364.174C422.539 364.267 435.021 364.267 447.597 363.43C454.77 362.966 462.408 362.315 469.674 362.687C472.934 362.873 475.542 363.709 478.803 362.966C480.945 362.501 483.181 361.479 485.23 362.873C487.559 364.546 488.583 370.307 487 372.63C485.789 374.395 484.764 374.209 482.901 373.838C480.014 373.373 477.871 372.723 474.89 373.931C474.289 373.992 473.696 374.117 473.12 374.302C469.767 374.581 465.203 376.904 462.315 374.209C463.433 374.395 465.203 372.351 463.712 372.165C462.594 372.072 461.942 373.187 461.104 373.559C458.216 374.86 456.633 374.488 454.956 371.701C451.416 374.767 451.044 373.931 449.46 370.121C448.249 371.05 447.97 373.187 447.038 373.931C446.945 374.024 447.504 375.324 446.759 375.324C446.107 375.232 445.92 374.209 445.454 374.209C445.175 374.116 444.989 373.28 444.709 373.187C444.43 373.094 444.057 373.745 443.685 373.652C442.753 373.652 439.958 375.696 440.983 372.816C439.493 374.674 438.841 373.466 438.375 371.793C436.698 373.094 435.021 374.395 433.252 375.603C432.506 373.373 431.109 374.024 429.432 374.767C429.991 373.28 429.619 371.793 428.315 372.909C427.569 373.559 427.104 375.417 426.265 376.254C423.191 373.094 422.073 374.024 417.788 374.395C416.112 374.581 414.156 374.86 412.665 373.838C411.361 373.001 410.616 369.842 408.473 372.351C408.939 371.793 408.194 376.161 408.101 376.811C407.16 376.151 406.34 375.334 405.679 374.395C404.375 376.904 401.114 374.674 398.413 375.139C394.128 375.975 389.75 377.276 385.931 374.116C385.651 375.139 382.577 376.44 382.577 376.44C382.764 374.581 383.881 375.232 381.553 374.953C381.087 374.86 380.621 375.696 380.249 375.789C378.761 375.928 377.264 375.928 375.777 375.789C369.909 375.603 364.599 376.904 358.824 377.369C356.868 377.555 354.539 377.833 352.769 377.09C350.906 376.347 350.906 375.51 349.043 375.975C349.602 375.789 347.832 377.74 347.925 377.648C347.646 377.833 346.621 376.904 346.248 376.997C346.167 377.412 346.042 377.817 345.876 378.205C345.41 378.112 344.944 378.112 344.478 378.019C343.267 378.205 342.056 376.904 340.939 376.904C341.125 376.904 337.771 378.205 337.865 378.298C335.443 377.09 336.188 377.462 333.114 378.205C330.226 378.855 327.432 378.763 324.544 379.134C315.695 380.342 320.725 376.068 319.7 370.864ZM312.248 413.329C310.664 411.099 314.949 410.263 316.254 410.077C318.489 409.705 321.47 410.356 322.96 410.077C325.196 409.52 327.432 408.219 329.947 407.94C333.207 407.475 336.374 407.475 339.635 407.197C340.772 406.986 341.924 406.862 343.081 406.825C344.665 406.918 345.317 407.754 346.528 407.754C348.67 407.754 351.372 406.453 353.514 406.174C356.309 405.896 359.196 405.71 361.991 405.524C367.953 405.245 373.821 405.338 379.876 405.338C382.577 405.338 389.843 402.551 391.24 405.71C393.103 403.294 397.947 403.666 400.649 403.573C405.399 403.48 410.057 403.015 414.808 402.736C418.906 402.551 423.378 403.387 427.383 402.829C429.619 402.458 430.271 401.807 432.786 402.086C434.649 402.365 437.443 401.343 439.027 401.807C438.934 401.807 440.983 403.108 440.331 403.108C441.076 403.108 440.983 403.573 441.822 403.294C442.846 403.015 442.38 401.714 444.523 401.25C447.876 400.506 452.254 401.343 455.701 401.157C459.055 400.971 462.408 400.878 465.761 400.878C467.345 400.878 469.208 400.506 470.698 400.785C471.444 400.971 473.027 401.9 473.586 401.807C475.356 401.528 476.288 400.32 478.616 400.413C481.226 400.537 483.841 400.475 486.441 400.227C489.049 400.042 489.422 399.67 490.726 401.807C492.03 403.944 492.403 406.732 489.981 408.219C491.471 408.126 493.427 410.17 491.564 411.285C490.447 412.029 488.211 410.449 486.907 410.542C485.23 410.728 483.926 411.564 482.156 411.564C480.293 411.657 478.337 412.121 476.474 412.121C474.518 412.121 473.12 411.285 471.257 411.657C469.674 411.936 469.487 413.329 467.531 412.121C466.6 411.564 466.413 409.427 465.109 409.427C463.339 409.427 464.085 411.657 463.06 412.772C462.781 409.52 460.266 414.909 459.241 410.913C458.309 412.214 454.863 414.073 453.279 413.051C451.789 412.121 452.254 409.891 451.602 408.312C450.578 411.099 447.783 414.073 447.97 408.962C446.572 410.635 442.939 410.356 443.871 413.329C442.753 413.329 442.474 411.75 441.542 411.564C440.704 411.471 440.052 412.121 439.958 412.029C440.424 412.029 438.654 412.679 438.654 412.679C439.865 412.4 435.208 412.029 435.953 412.029C434.835 412.029 433.531 412.865 432.32 412.865C431.202 412.865 429.991 412.4 428.874 412.307C425.893 411.936 426.545 412.586 424.682 413.515C424.03 413.887 423.843 414.444 422.819 414.352C422.073 414.259 421.794 413.329 421.794 413.329C420.769 413.237 421.515 412.865 419.931 413.051C419.745 413.329 419.558 413.701 419.372 413.98C419.134 414.331 418.774 414.583 418.361 414.686C417.949 414.788 417.512 414.736 417.136 414.537C414.808 415.002 407.169 417.139 407.914 413.236C406.703 413.794 405.586 414.352 404.375 414.909C403.909 411.75 397.482 415.931 396.084 416.21C394.221 416.489 394.128 415.745 392.358 415.374C392.079 415.281 391.427 416.303 390.681 416.21C388.818 415.838 388.446 415.652 388.166 413.608C386.769 416.117 385.651 415.002 383.229 415.374C382.67 415.467 382.298 416.489 381.553 416.303C380.994 416.21 380.994 415.188 380.621 415.002C380.249 414.909 380.342 414.073 379.783 413.98C379.224 413.887 377.174 415.467 376.616 415.745C375.311 416.303 373.169 417.232 371.958 416.953C370.374 416.582 371.12 415.467 368.884 415.56C365.344 415.745 363.947 418.719 361.805 414.073C360.78 415.931 360.966 416.489 359.383 417.046C358.265 417.511 355.284 417.046 353.7 416.953C347.18 416.675 340.752 418.905 334.232 418.347C331.344 418.068 329.015 417.511 326.128 417.975C323.147 418.44 320.166 419.184 317.092 419.462C315.508 419.648 312.248 420.02 311.503 418.068C311.13 416.489 313.645 415.281 312.248 413.329ZM325.01 485.158C316.533 490.826 309.453 498.539 301.722 505.136C293.897 511.733 287.656 518.981 280.67 526.322C274.149 533.012 268.187 539.424 260.363 544.535C255.426 547.787 250.954 551.69 245.831 554.756C242.012 556.986 236.237 560.053 238.1 553.084C240.056 545.929 243.502 538.774 246.576 532.083C250.954 522.605 255.333 513.22 260.083 504.021C261.853 500.583 262.878 497.052 265.672 494.264C268.746 491.198 270.889 487.295 274.242 484.414C288.308 472.335 309.547 481.627 325.01 485.158ZM351.651 489.246C347.832 491.291 343.454 491.755 339.448 493.056C336.002 494.171 332.741 496.216 329.015 496.401C332.462 493.892 335.35 490.361 339.169 488.41C343.454 486.273 347.366 487.853 351.651 489.246ZM520.814 506.065C506.655 501.326 493.427 494.264 479.641 488.596C477.219 487.574 458.589 481.534 458.961 478.56C472.003 476.144 485.51 472.056 498.551 476.516C510.474 480.605 520.162 490.361 529.384 498.446C531.806 500.583 546.617 510.247 545.313 513.313C544.381 515.45 537.209 514.893 535.532 514.428C533.389 513.871 532.085 512.57 530.409 511.083C527.536 508.853 524.287 507.153 520.814 506.065ZM494.638 426.338C496.781 424.387 498.085 421.321 500.134 419.555C502.743 417.232 507.027 418.347 509.915 419.555C518.578 423.179 526.03 429.312 534.6 433.122C544.102 437.303 552.392 442.971 561.055 448.826C568.88 454.122 577.45 458.582 585.461 463.6C593.658 468.804 602.787 472.149 611.078 477.167C619.554 482.277 627.938 487.295 636.042 492.963C650.481 502.906 665.571 513.22 676.283 527.344C681.913 534.805 686.84 542.768 691.001 551.132C694.634 558.566 698.64 568.88 693.889 576.686C689.325 584.119 681.5 589.973 674.979 595.549C672.464 597.686 670.135 600.195 666.875 601.124C662.963 602.239 658.305 601.96 654.3 602.239C632.689 604.005 612.475 602.332 591.236 598.522C570.65 594.805 550.063 592.761 529.291 590.159C517.647 588.672 505.91 587 494.359 584.584C489.422 583.562 484.392 582.354 479.641 580.96C475.449 579.752 471.909 576.964 467.531 575.942C449.18 571.389 428.128 569.624 409.964 561.911C426.079 555.221 443.126 551.225 459.707 545.65C477.033 539.796 493.986 534.871 512.337 533.291C521.745 532.455 530.222 530.039 539.258 527.53C547.921 525.114 556.863 524.371 565.806 523.349C569.718 522.884 580.99 523.627 582.294 518.424C584.25 510.804 573.165 509.875 568.507 510.525C561.8 511.455 556.305 513.127 551.181 507.645C545.965 502.07 540.841 496.308 535.532 490.826C525.658 480.605 515.504 468.804 501.532 464.158C484.485 458.582 464.83 463.879 447.783 467.038C429.898 470.383 411.92 473.635 394.314 478.467C387.049 480.512 377.64 484.972 370.095 484.229C362.643 483.485 354.166 482.277 346.993 480.14C343.733 479.211 341.032 477.352 338.144 475.68C334.325 473.543 330.226 472.149 326.221 470.383C318.117 466.945 310.199 463.786 301.349 462.485C293.99 461.37 286.072 460.719 278.9 463.228C271.913 465.737 265.672 470.941 260.735 476.423C255.426 482.37 251.048 489.153 246.669 495.844C244.62 499.096 242.012 501.884 239.869 505.043C238.006 507.645 236.982 510.618 235.026 513.22C230.741 518.981 227.76 526.322 225.152 533.012C222.264 540.446 219.004 549.274 219.749 557.265C220.028 560.331 220.308 564.327 221.425 567.208C222.916 570.832 225.058 570.739 228.132 572.039C233.442 574.363 234.932 580.774 241.826 579.566C248.253 578.358 253.842 573.062 258.5 568.88C264.648 563.398 270.516 557.637 276.292 551.783C282.44 545.838 288.022 539.336 292.966 532.362C294.829 529.574 296.319 526.508 298.555 523.999C301.349 520.84 304.61 520.468 308.429 519.167C342.056 508.109 375.87 497.423 410.523 490.083C418.813 488.317 427.197 486.087 435.394 483.764C444.057 481.255 448.528 483.95 455.701 488.596C470.605 498.446 488.304 505.415 504.885 511.826C510.101 513.871 518.485 513.964 522.584 517.959C498.364 521.676 475.263 528.738 451.882 535.8C440.331 539.238 428.687 542.305 417.136 545.65C405.586 548.995 394.408 553.269 383.043 557.079C371.679 560.796 359.662 562.376 348.204 565.814C336.574 569.199 324.755 571.898 312.807 573.898C300.697 576.035 288.588 578.544 276.385 580.495C270.796 581.425 265.207 582.261 259.711 583.562C254.308 584.77 249.091 587.65 243.689 588.301C219.469 591.274 195.716 597.872 171.589 601.589C153.611 604.376 122.219 608.279 110.575 590.252C98.8383 572.132 113.277 550.946 126.132 538.03C134.184 530.022 143.015 522.831 152.493 516.565C162.554 509.782 172.242 502.534 182.395 495.751C205.217 480.512 229.995 468.06 254.494 455.795C266.231 449.941 277.596 443.622 289.053 437.117C294.736 433.958 297.903 439.069 302.374 442.6C305.914 445.387 312.434 452.171 317.371 449.011C317.558 450.126 317.744 451.241 317.93 452.449C319.421 451.799 320.818 451.149 322.308 450.498C323.24 453.007 323.147 454.587 325.848 455.98C327.525 456.817 331.065 457.746 332.648 456.352C332.928 457.374 333.3 458.396 333.58 459.326C334.977 459.233 335.256 455.237 335.536 454.308C337.958 457.746 341.218 460.719 345.41 461.649C345.41 461.463 344.758 458.582 344.758 458.582C346.062 457.746 347.739 461.277 348.484 462.02C350.813 464.436 352.21 464.065 354.818 462.113C355.004 462.299 355.843 464.622 356.029 464.529C356.588 464.343 357.613 462.299 357.799 462.206C357.613 464.808 362.736 465.366 364.599 464.808C364.226 464.065 363.761 463.228 363.388 462.485C369.722 461.649 372.144 468.339 378.199 467.967C382.67 467.689 379.038 466.759 381.646 464.808C383.881 463.135 384.254 466.759 384.44 466.666C384.864 466.233 385.211 465.73 385.465 465.18C386.303 468.339 392.824 471.127 392.079 465.923C394.594 466.945 396.457 468.618 399.251 468.989C402.698 469.454 406.331 468.711 409.777 468.432C417.136 467.781 424.123 466.295 430.83 462.95C434.742 460.905 439.027 459.14 442.753 456.724C445.827 454.68 451.789 448.547 455.887 451.241C454.863 448.082 459.8 451.056 459.986 446.967C460.824 447.525 461.57 448.175 462.408 448.733C462.874 447.71 462.781 446.038 463.433 445.109C464.271 443.808 464.737 444.551 465.482 443.901C466.32 443.064 467.066 441.02 468.09 440.37C469.115 439.719 470.326 440.463 471.444 439.905C473.12 439.069 480.479 430.985 479.268 437.954C482.436 436.839 480.014 435.909 480.386 433.772C481.225 429.591 483.088 432.564 485.044 432.936C488.211 433.493 488.118 430.985 489.888 429.033C491.471 427.268 494.545 426.524 493.427 423.551C494.266 423.922 494.452 425.13 494.638 426.338ZM304.982 336.483C302.467 339.271 300.604 338.063 297.903 337.691C297.623 336.669 297.064 336.576 296.412 337.32C295.598 337.766 294.717 338.079 293.804 338.249C291.568 338.806 289.24 338.527 287.004 339.364C287.097 338.62 287.842 337.32 287.377 336.576C285.048 338.156 283.651 339.178 280.763 339.271C278.434 339.271 274.429 337.505 272.472 339.643C272.379 338.806 272.379 337.97 272.286 337.227C271.367 337.685 270.544 338.316 269.864 339.085C269.897 337.946 269.536 336.83 268.84 335.926C267.349 339.085 265.672 339.178 262.691 337.97C263.064 338.156 259.711 336.112 259.804 336.669C258.779 332.209 275.64 332.581 277.409 332.395C281.881 331.93 286.259 331.651 290.73 331.28C294.922 330.908 298.089 330.257 300.977 333.789C299.579 328.585 311.875 328.864 304.982 336.483ZM111.134 257.964C111.6 265.584 113.277 273.761 110.296 281.102C107.874 287.049 103.123 293.739 97.9999 297.549C87.4738 305.447 78.5313 295.784 77.0409 285.098C75.5504 274.04 78.5313 260.473 88.1259 253.597C93.8081 249.509 99.3972 249.787 106.011 251.181C107.595 251.46 110.11 251.367 110.948 252.947C111.041 253.318 110.855 257.964 111.134 257.964ZM251.234 359.899C249.371 360.829 247.508 361.386 245.924 362.594C245.365 363.059 245.179 363.988 244.62 364.36C243.502 365.01 242.012 364.546 240.894 365.103C239.031 366.032 237.727 367.333 235.491 368.169C232.328 369.5 229.248 371.02 226.269 372.723C221.028 375.39 215.649 377.779 210.154 379.878C207.453 380.993 199.907 383.13 200.187 387.126C199.535 387.311 198.976 385.918 197.672 386.103C195.902 386.289 193.573 388.241 191.803 388.798C188.45 389.727 185.748 389.82 185.748 394.095C184.631 393.351 184.351 391.586 182.954 391.307C181.37 391.028 180.625 392.794 179.321 393.351C177.831 394.002 175.874 393.351 174.384 394.095C173.702 394.786 172.953 395.408 172.148 395.953C171.342 396.063 170.522 396.032 169.726 395.86C166.559 396.511 163.578 397.719 160.318 398.369C157.151 399.019 155.009 399.205 156.313 402.922C152.959 403.573 152.121 400.042 148.395 401.343C143.88 402.863 139.276 404.105 134.608 405.059C132.186 405.524 129.578 406.639 127.063 406.918C125.293 407.104 123.617 406.453 121.847 406.639C119.704 406.918 118.027 407.847 115.885 407.847C113.792 407.768 111.707 407.551 109.644 407.197C109.921 408.013 110.297 408.793 110.762 409.52C109.364 409.241 108.712 407.568 107.501 407.29C106.29 407.011 105.173 408.312 104.055 408.033C103.589 407.94 103.868 406.546 103.123 406.267C102.378 405.989 102.099 406.267 101.353 406.174C101.074 406.174 98.0931 405.989 97.6273 406.267C96.789 406.732 97.6273 407.568 97.441 407.661C94.6465 409.705 94.5533 408.59 93.3424 406.453C91.4793 403.294 89.2437 405.245 85.8902 404.688C82.1642 404.037 79.1833 405.71 75.5505 405.431C71.5449 405.152 66.9805 402.179 63.4408 400.506C55.8955 396.789 48.5366 393.258 42.2023 387.59C29.8131 376.532 19.6596 362.966 13.698 347.448C7.27051 330.722 6.05955 313.346 6.61845 295.598C6.83231 284.95 7.79726 274.331 9.50615 263.819C10.624 256.571 10.9034 243.747 19.1007 240.402C20.498 257.314 16.0267 274.597 18.9144 291.509C19.7528 296.62 21.8021 303.31 25.7145 307.12C31.4899 312.695 32.794 304.611 33.3529 300.244C34.2844 291.974 36.1474 283.797 37.3584 275.62C38.6625 267.442 39.5009 259.079 41.2708 250.995C41.9228 248.022 47.1393 226.371 50.9585 227.393C50.2133 243.19 48.164 258.708 48.0708 274.505C48.0708 280.823 47.5119 287.514 48.3503 293.832C48.816 297.084 51.7969 306.562 56.9202 305.819C61.6709 305.076 56.4544 298.385 55.9887 295.784C54.7777 288.907 56.2681 280.452 57.3859 273.575C59.4353 260.752 63.9997 247.557 71.5449 236.778C78.2518 227.114 88.5916 218.008 101.074 219.681C106.384 220.424 110.575 221.725 113.277 226.557C115.419 230.367 123.617 234.734 118.866 239.473C114.488 243.84 107.408 240.309 102.564 239.287C99.5896 238.702 96.5263 238.73 93.5627 239.369C90.5991 240.008 87.7979 241.245 85.3313 243.004C76.8546 248.951 71.9175 259.637 70.334 269.58C68.1915 283.053 73.8737 318.271 94.9259 310.372C108.899 305.169 119.425 286.213 118.214 271.81C117.748 266.049 115.512 255.084 123.523 253.504C133.77 251.46 135.26 262.796 134.236 270.137C132.745 280.823 127.063 290.766 120.543 299.222C114.86 306.562 108.34 311.209 101.54 317.248C99.4903 319.014 94.367 323.103 95.2985 326.448C96.23 330.072 104.334 331.187 107.501 331.744C123.43 334.718 141.502 332.023 157.43 329.886C190.22 325.611 222.543 315.018 249.371 295.691C250.489 307.678 251.793 319.664 252.352 331.651C252.631 337.505 252.631 343.452 253.283 349.214C253.842 352.93 255.333 357.855 251.234 359.899ZM160.411 401.714C159.107 402.365 160.504 398.369 160.132 399.67C162.088 400.32 162.181 401.064 160.411 401.714ZM296.319 256.571C298.368 254.34 303.958 248.951 305.727 254.062C306.379 251.925 306.473 248.672 308.988 251.646C310.012 248.022 321.191 248.394 323.892 248.208C332.741 247.743 341.684 247.464 350.44 246.535C368.605 244.77 387.049 245.699 405.213 245.606C409.16 245.451 413.114 245.575 417.043 245.978C420.862 246.535 424.775 248.115 428.594 247.464C432.041 247 434.276 245.978 437.816 246.442C441.989 246.955 446.187 247.234 450.391 247.278C469.208 247.186 488.025 247.929 506.841 248.022C510.474 248.022 514.945 247.278 518.299 248.858C519.603 249.416 521 251.367 521.932 251.553C523.049 251.832 522.397 250.066 523.888 250.809C525.844 251.832 524.354 255.084 523.049 255.641C523.795 255.363 521.652 254.991 521.839 254.991C520.814 255.084 519.882 255.827 518.765 255.827C517.088 255.734 515.597 254.712 514.2 253.783C514.2 254.155 514.945 256.664 514.107 256.756C513.362 256.849 512.617 254.433 512.617 253.783C508.425 257.5 503.954 255.456 498.737 255.92C495.011 256.292 487.279 258.708 484.764 254.898C484.677 255.706 484.315 256.46 483.74 257.035C482.994 258.15 482.342 258.057 481.783 256.756C481.597 256.756 479.827 257.128 479.734 257.128C478.43 257.035 476.846 256.571 475.542 256.478C473.586 256.292 473.959 257.779 472.282 257.779C471.444 257.779 469.208 256.571 467.718 256.478C465.109 256.385 462.408 257.407 459.8 257.128C458.03 256.942 456.446 255.456 454.676 255.363C452.534 255.27 451.789 256.942 450.112 254.619C449.739 254.526 449.553 255.92 449.367 255.92C449.367 255.92 447.69 256.199 447.504 256.199C446.836 256.488 446.152 256.736 445.454 256.942C444.616 256.942 444.057 256.292 443.126 256.292C441.542 256.292 436.698 257.593 436.791 254.805C431.295 256.849 426.545 256.013 420.956 256.571C418.705 256.713 416.445 256.525 414.249 256.013C411.175 255.456 409.125 256.199 406.051 256.292C403.071 256.478 402.139 255.177 399.624 254.062C398.599 253.597 397.947 253.04 396.736 253.318C396.084 253.504 396.55 254.619 396.364 254.712C395.339 255.084 394.594 254.712 393.103 254.805C390.402 254.991 389.377 257.221 386.583 255.084C387.514 254.991 388.446 254.898 389.377 254.712C386.769 253.597 383.229 253.04 383.881 257.128C381.646 256.849 383.602 255.27 382.484 254.712C381.366 254.155 380.155 255.084 378.758 255.549C375.032 256.757 371.958 256.106 368.139 255.92C363.761 255.641 353.514 259.265 350.44 254.619C350.347 255.549 349.322 258.336 347.925 258.15C347.459 258.15 348.763 255.27 348.857 254.898C348.111 256.385 344.851 256.756 343.267 257.5C343.454 256.664 343.64 255.827 343.826 255.084C342.336 256.664 341.591 255.734 339.821 256.199C339.076 256.478 337.958 258.057 337.306 258.15C336.976 257.715 336.531 257.379 336.021 257.182C335.511 256.985 334.956 256.934 334.418 257.035C333.654 256.865 332.865 256.834 332.089 256.942C329.015 257.128 326.221 258.894 323.147 257.686C320.445 256.664 319.421 254.062 317.837 258.243C317.465 257.5 316.999 256.757 316.626 256.013C316.067 256.849 315.601 257.593 315.043 258.429C312.993 257.128 312.9 256.385 310.571 256.849C310.3 256.949 310.012 256.993 309.723 256.977C309.435 256.961 309.153 256.886 308.895 256.756C308.801 257.128 308.615 257.593 308.522 257.964C308.429 258.987 308.149 259.358 307.59 258.987C307.155 258.795 306.747 258.545 306.379 258.243C304.889 258.336 302.933 258.801 301.256 258.522C300.604 258.336 296.599 256.292 296.319 256.571ZM343.267 229.159L343.826 229.995C341.311 231.296 340.752 230.553 340.473 227.951C341.684 227.951 341.87 230.088 343.267 229.159ZM344.758 227.672C345.969 228.23 347.366 229.252 348.484 227.858C349.229 229.995 343.547 233.061 344.758 227.672ZM352.489 228.601C355.004 230.274 348.95 228.973 348.95 228.973C349.396 228.497 350 228.197 350.65 228.128C351.3 228.06 351.953 228.228 352.489 228.601ZM374.194 219.123C375.032 223.491 377.454 223.305 381.273 221.353C386.862 218.38 387.794 213.548 388.259 207.787C388.632 202.304 389.284 200.167 395.06 201.282C399.065 202.119 402.419 201.375 406.424 201.282C410.709 201.189 412.199 201.84 412.572 206.207C412.945 210.574 413.69 213.92 416.95 217.358C420.21 220.796 424.589 222.84 428.78 224.699C430.923 225.721 432.972 226.743 435.394 226.929C436.326 227.022 441.169 226.371 441.263 227.951C441.356 229.066 434.649 232.318 433.904 232.783C430.826 234.527 427.581 235.959 424.216 237.057C416.391 239.38 408.101 239.566 399.903 239.38C386.769 239.194 368.698 233.619 360.873 222.004C365.251 221.075 369.722 220.145 374.194 219.123ZM372.983 181.583C370.933 179.817 369.536 177.216 367.859 175.171C367.23 174.388 366.435 173.753 365.531 173.313C364.692 172.755 364.133 173.499 363.481 172.291C361.618 168.946 367.394 164.299 361.246 162.999C359.196 162.534 354.166 164.207 353.607 161.233C352.769 157.052 360.78 156.773 362.643 154.636C366.369 150.361 363.854 143.206 366.183 138.374C368.325 133.728 373.914 132.892 378.385 131.498C384.533 129.547 390.775 128.432 397.016 126.852C401.394 125.737 408.66 121.37 412.665 125.272C406.424 126.666 410.057 128.803 414.249 130.011C419.028 131.296 423.93 132.075 428.874 132.334C433.905 132.847 438.984 132.66 443.964 131.777C448.528 130.848 453.652 126.852 458.496 127.874C455.794 132.52 447.876 135.029 443.033 136.237C440.611 136.888 439.027 136.702 439.306 139.768C439.586 142.742 442.194 145.715 442.846 148.782C443.509 152.737 443.024 156.8 441.449 160.49C440.052 164.299 439.679 164.764 440.89 168.388C442.846 174.056 438.654 180.282 434.742 184.371C418.906 201.003 388.818 194.778 372.983 181.583ZM417.882 124.343C417.23 124.808 413.504 125.83 413.597 124.343C413.876 122.392 417.23 123.135 417.882 124.343ZM426.452 84.6656C425.613 84.0152 423.098 84.2939 424.868 81.785C425.52 82.9001 425.986 83.7364 426.452 84.6656ZM367.207 68.9619C368.447 66.149 369.414 63.2241 370.095 60.2272C370.374 58.2759 369.816 56.1387 372.424 55.8599C368.977 54.3732 368.977 48.5191 368.791 45.4527C368.511 41.2712 367.207 35.6959 369.07 31.7932C370.933 27.7976 373.542 27.8905 374.287 32.6295C374.566 34.4879 373.448 35.1384 373.262 36.4393C372.796 39.0411 373.728 38.4836 375.311 36.5322C375.964 38.4836 376.243 41.55 379.038 41.3641C378.851 40.8066 377.827 39.5986 378.106 38.9482C378.665 37.926 381.366 39.5057 381.646 39.6915C384.068 41.3641 384.627 42.9438 382.857 45.081C385.279 45.3598 383.229 47.497 384.813 47.9616C387.235 48.7979 385.558 44.8022 385.372 44.1518C386.557 44.6014 387.568 45.4148 388.259 46.4748C388.81 47.2457 389.308 48.0529 389.75 48.8908C390.216 50.4705 391.24 50.8421 392.824 50.0988C395.898 51.028 400.183 50.9351 402.977 52.6077C404.282 53.351 404.654 55.0236 405.772 55.6741C406.983 56.4174 408.566 56.0457 409.871 56.5104C409.405 57.5325 409.777 58.1829 410.988 58.1829C411.946 58.2665 412.887 58.4855 413.783 58.8334C414.443 58.342 415.163 57.9361 415.925 57.6254C416.015 57.828 416.148 58.0085 416.315 58.1544C416.482 58.3003 416.678 58.408 416.891 58.47C417.104 58.532 417.328 58.5467 417.548 58.5132C417.767 58.4796 417.976 58.3986 418.161 58.2759C420.476 58.6854 422.599 59.8254 424.216 61.5281C425.799 63.0149 424.495 63.1078 426.265 62.9219C427.01 62.829 428.221 61.621 429.898 61.8998C430.826 62.0798 431.732 62.3603 432.6 62.7361C432.979 63.1333 433.49 63.3803 434.038 63.4315C434.585 63.4827 435.133 63.3348 435.58 63.0149C437.257 63.8512 437.443 65.3379 439.586 65.5238C441.915 65.7096 441.169 62.829 442.753 66.9176C444.896 62.6432 445.734 69.5194 447.876 70.0769C450.205 70.6344 450.391 68.776 452.348 70.8203C452.907 71.4707 452.907 72.4 453.559 73.0504C454.676 74.0725 456.074 73.8867 457.098 75.3734C456.539 74.5372 457.191 78.254 457.191 78.0682C457.378 79.6478 455.887 81.5063 458.868 81.3204C458.868 81.5063 457.378 83.5506 457.191 83.2718C457.098 82.993 457.098 82.8072 457.005 82.5284C456.726 82.6213 456.539 84.6656 456.633 84.9444C456.912 84.9444 457.005 84.7585 456.912 84.3868C456.446 85.8736 457.191 86.8957 456.26 88.2896C455.701 89.2188 454.024 89.8692 453.186 90.4268C451.137 91.8206 449.087 93.1215 447.038 94.6082C442.287 97.9534 436.978 102.042 431.016 102.785C433.997 99.8118 451.323 88.7542 442.66 85.5019C440.623 84.8818 438.534 84.4464 436.419 84.201C434.369 84.0152 432.134 85.2231 429.898 84.4798C427.104 83.5506 428.128 80.9487 426.452 80.0195C422.819 78.0682 423.657 82.7143 422.539 83.9222C421.328 82.7143 421.608 82.0638 419.745 81.9709C417.788 81.878 417.416 83.6435 415.18 82.5284C412.106 81.0417 413.69 77.9753 409.405 77.9753C409.498 77.3248 410.15 75.4664 409.312 74.9088C408.194 76.3956 409.032 77.9753 408.008 79.3691C407.35 80.1194 406.468 80.6403 405.492 80.8558C403.536 81.4134 403.257 82.4355 403.629 79.462C402.232 82.0638 397.761 80.9487 395.153 80.7629C390.786 80.3624 386.476 79.4901 382.298 78.1611C378.572 76.8602 376.522 74.723 373.448 72.7716C372.237 72.0283 371.679 72.307 370.002 71.8424C368.046 71.8424 366.369 70.9132 367.207 68.9619ZM376.15 23.3373C376.802 22.9657 377.268 28.7268 376.429 29.7489C375.032 27.5188 372.517 24.2666 376.15 23.3373ZM378.199 21.0143C380.249 19.1559 378.851 23.9878 378.479 24.7312C377.733 24.2666 376.988 23.709 376.15 23.2444C377.081 22.7798 377.361 21.7577 378.199 21.0143ZM455.981 13.3018C475.077 17.2974 493.893 24.7312 509.17 36.9968C523.049 48.1474 532.924 64.037 538.419 80.8558C544.102 98.3251 542.239 117.746 528.639 131.219C521.466 138.281 512.058 142.556 503.022 146.644C498.737 148.596 494.266 150.268 489.888 152.22C486.814 153.613 482.994 155.844 479.455 155.472C481.225 153.613 483.926 153.521 486.068 152.405C488.677 151.012 490.912 148.317 493.148 146.366C495.384 144.414 500.414 138.374 503.953 139.861C503.488 136.609 507.121 135.122 508.797 133.078C510.567 130.848 510.66 128.246 513.921 127.502C510.474 124.808 511.499 119.697 512.244 116.073C513.114 111.498 513.705 106.874 514.014 102.228C514.666 93.5861 515.225 82.6213 510.474 75.0018C508.891 72.4929 506.934 70.2628 505.537 67.7539C503.86 64.6875 504.233 61.9927 504.233 58.5546C501.159 60.5989 500.507 56.4174 499.296 54.3732C498.364 52.8864 497.06 51.9572 496.781 50.0988C496.595 48.7049 498.085 48.4262 497.247 47.0324C496.222 47.7757 495.849 48.9837 495.29 50.0988C494.359 49.7271 495.477 48.4262 494.918 47.9616C494.918 47.9616 493.055 47.1253 493.148 47.3111C491.937 45.8244 491.564 43.4084 491.005 41.6429C488.863 42.758 489.236 42.5721 486.907 40.8066C485.908 40.1904 484.999 39.44 484.205 38.5765C483.274 36.3464 484.857 37.6473 484.485 36.2534C483.181 32.2578 475.915 33.0012 475.263 27.0542C471.723 29.2843 470.326 26.125 468.277 23.8019C466.134 21.4789 462.501 20.5497 462.687 16.9257L459.334 18.0408C459.893 14.6027 454.863 14.8815 453 13.116C453.997 13.0885 454.995 13.1507 455.981 13.3018ZM458.868 224.327C460.638 222.747 460.079 224.884 461.197 224.606C462.129 224.42 462.315 223.676 463.246 223.398C467.066 222.468 472.841 223.676 476.846 223.398C481.504 223.212 489.515 224.141 491.751 229.623C493.055 232.876 491.005 231.761 488.77 231.575C487.091 231.544 485.412 231.606 483.74 231.761C482.904 231.853 482.06 231.853 481.225 231.761C480.845 231.495 480.579 231.097 480.479 230.645C478.057 230.274 475.542 231.668 472.841 231.761C469.301 231.853 466.134 231.203 463.433 228.787C462.315 230.367 461.663 231.203 459.707 231.389C459.613 231.389 457.75 230.645 457.471 230.553C457.098 230.46 456.074 231.296 455.328 231.017C456.726 228.787 456.912 226.092 458.868 224.327ZM702.086 243.283C702.738 241.146 703.204 238.916 703.856 236.685C712.612 246.628 720.344 260.009 723.791 272.832C726.026 281.195 729.566 296.248 718.854 300.523C710.097 304.054 705.254 291.509 703.018 285.283C698.081 271.717 698.081 257.128 702.086 243.283ZM308.801 86.8957C308.895 86.8957 303.119 90.2409 304.982 87.5462C305.727 86.4311 308.708 85.6877 309.919 85.6877L308.801 86.8957ZM303.306 88.3825C302.653 88.94 302.001 89.4975 301.256 90.0551L299.3 86.9886C300.511 86.3382 306.007 85.9665 303.306 88.3825ZM299.207 193.012C297.996 192.176 297.064 192.641 296.692 194.034C296.692 192.641 297.437 189.481 298.462 189.11C299.207 188.831 296.133 185.207 296.971 184.278C299.207 185.486 297.81 186.694 298.462 188.366C298.741 189.11 299.579 189.76 299.859 190.318C300.138 191.247 301.442 194.592 299.207 193.012ZM293.245 184.835C292.034 185.114 294.177 187.158 294.177 188.087C294.177 188.738 293.338 189.295 292.966 190.225C292.22 192.269 293.525 193.663 291.382 195.149C291.382 190.689 288.401 178.888 294.177 176.751C291.382 174.521 293.711 172.012 295.853 174.614C297.996 177.216 296.692 183.999 293.245 184.835ZM290.264 167.273C289.146 163.277 285.7 161.883 281.881 162.162C282.067 160.118 283.557 157.144 284.675 160.861C285.141 159.746 285.42 158.352 286.538 157.609C288.308 163.184 297.158 166.251 291.662 172.198C291.103 170.618 290.73 168.946 290.264 167.273ZM279.924 162.441C259.431 163.928 230.741 168.202 214.346 152.498C203.634 142.277 204.286 126.387 212.856 115.051C217.793 108.546 224.499 103.993 231.206 99.7189C233.577 98.1485 236.145 96.8986 238.845 96.0021C239.298 95.9496 239.757 96.0476 240.149 96.2808C240.223 95.957 240.371 95.6546 240.581 95.3968C240.791 95.139 241.057 94.9328 241.36 94.7941C242.478 94.2365 244.061 93.9578 244.713 92.7498C244.091 95.0654 243.655 97.4269 243.409 99.8118L241.732 97.8605C241.267 102.228 236.702 99.5331 234.001 100.091C235.771 102.507 237.075 103.436 237.168 106.688C235.864 104.272 233.069 102.599 230.461 101.856C231.858 105.945 232.883 108.454 231.486 113.007C229.809 112.077 229.716 109.754 227.573 109.197C227.015 111.892 226.921 114.865 226.269 117.467C220.96 115.051 221.519 121.555 223.661 124.715C224.779 126.387 225.338 128.432 226.362 130.011C228.878 134.007 226.921 128.06 229.716 128.339C229.064 132.613 228.878 132.985 231.952 136.051C235.026 139.118 236.516 143.299 239.776 146.087C240.708 144.879 239.217 143.671 239.124 142.463C242.105 142.927 243.595 145.994 246.483 143.299C247.787 145.715 249.091 148.503 252.165 148.967C250.209 145.158 255.985 147.759 257.475 148.317C258.593 148.689 260.642 149.06 261.108 149.246C263.623 150.175 261.853 148.503 263.344 151.476C265.579 150.826 266.418 148.967 269.026 150.547C271.168 151.755 271.168 153.985 271.634 156.122C272.1 154.729 272.659 153.242 273.218 151.848C273.776 152.127 276.198 154.729 275.919 154.729C281.788 154.45 281.601 157.981 279.924 162.441ZM251.234 90.7984C252.352 89.9621 253.749 91.0772 255.053 90.7984C256.823 90.4268 257.848 88.94 259.804 88.7542C259.245 90.5197 258.22 90.3338 257.382 91.7277C257.102 92.1923 257.196 93.3073 257.009 93.5861C254.774 95.8162 254.028 93.9578 251.793 92.2852C251.979 94.3295 252.352 94.9799 250.489 95.5374C248.719 96.0021 245.831 94.2365 244.9 92.7498C245.552 91.263 249.837 91.7277 251.234 90.7984ZM265.3 87.5462C267.256 87.732 264.927 93.3073 262.133 87.9179C263.175 87.6972 264.235 87.5727 265.3 87.5462ZM275.081 86.524C278.061 85.8736 288.122 83.0859 289.24 87.732C289.426 87.6391 290.171 84.9444 290.544 85.3161C291.941 86.617 292.127 88.2896 291.941 90.148C290.264 86.617 290.823 89.6834 289.705 89.4975C289.426 89.4046 288.96 89.9621 288.215 89.7763C287.19 89.4975 286.538 87.3603 285.886 86.7099C284.862 88.1966 283.557 90.0551 281.508 89.9621C280.018 89.8692 277.689 86.0594 279.552 90.2409C278.434 89.8692 277.13 89.0329 275.919 89.2188C274.522 89.4046 273.777 90.7984 272.472 90.9843C269.585 91.4489 269.119 88.6612 267.256 87.1745C269.864 86.8957 272.566 86.9886 275.081 86.524ZM293.338 86.4311C293.525 85.5019 296.226 85.1302 296.878 85.409C298.555 86.1524 297.903 87.1745 297.623 88.7542C296.412 88.1966 295.201 87.6391 293.99 86.9886C295.76 89.9621 292.5 90.3338 293.338 86.4311ZM803.714 257.221C803.528 250.252 803.342 243.097 801.479 236.314C800.268 231.575 797.194 223.026 791.419 222.19C782.755 220.982 777.912 238.079 775.49 244.026C775.024 237.057 775.396 229.716 772.788 223.119C770.646 217.822 765.336 212.805 760.772 218.752C756.673 224.048 755.928 231.853 754.81 238.172C753.413 246.349 752.574 254.712 751.55 262.982C747.544 255.27 746.892 246.535 743.725 238.544C740.744 231.017 736.087 223.862 731.615 217.172C727.982 211.689 723.511 206.579 717.736 203.234C712.706 200.353 703.949 197.194 699.199 202.026C695.193 206.021 695.845 211.411 696.032 216.521C696.125 218.752 696.497 220.331 694.448 221.446C693.423 222.004 691.933 221.725 690.815 222.004C689.144 222.489 687.59 223.311 686.251 224.42C675.911 232.039 671.16 245.792 669.763 258.057C667.9 273.575 673.955 286.956 679.171 301.173C680.01 303.403 682.618 308.235 682.245 310.744C681.873 313.532 678.333 313.625 676.004 313.625C668.787 313.701 661.571 313.36 654.393 312.602C637.533 311.023 620.765 302.939 605.675 295.691C602.88 294.39 599.061 293.646 596.825 291.509C594.683 289.558 594.124 286.398 592.354 284.168C587.883 278.686 584.995 274.04 578.475 270.695C571.768 267.35 564.968 264.19 558.354 260.473C550.25 255.92 542.798 250.066 535.066 244.955C520.628 235.477 506.375 224.977 491.099 216.893C484.019 213.176 476.101 212.526 468.649 209.459C461.476 206.486 452.627 206.486 445.175 208.344C441.542 209.274 439.027 211.411 435.674 212.897C431.761 214.57 428.501 212.712 425.054 210.76C419.745 207.694 414.528 202.769 422.073 199.424C424.589 198.309 427.849 197.844 430.084 196.172C432.506 194.313 434.369 190.875 436.326 188.459C440.611 183.255 443.219 177.216 449.46 173.963C456.446 170.339 464.644 169.41 472.096 167.087C480.107 164.578 488.025 161.512 495.849 158.538C510.101 153.242 524.819 147.481 535.066 135.68C543.915 125.551 547.735 112.449 547.362 99.1614C546.617 72.0283 532.085 44.4305 511.126 27.4259C485.416 6.61145 452.813 -0.357676 420.397 0.0140109C405.213 0.199854 387.049 2.15121 374.287 11.3504C363.295 19.3417 361.525 33.2799 363.109 45.8244C363.761 50.9351 365.996 57.6254 362.457 62.1786C360.407 64.6875 356.774 65.3379 354.073 66.9176C350.626 68.8689 347.646 70.8203 343.733 71.8424C327.245 76.3027 310.012 74.723 293.152 74.4442C265.113 74.0725 236.423 81.5992 215.557 101.299C198.697 117.188 193.666 147.202 214.16 162.627C230.741 175.171 256.823 173.777 276.478 171.547C282.533 170.897 286.725 169.875 286.725 177.308C286.725 185.393 285.42 193.849 287.47 201.84C290.73 214.384 302.84 214.663 313.459 211.968C319.063 210.466 324.543 208.54 329.854 206.207C337.678 202.955 344.851 198.123 352.676 194.778C357.892 192.548 361.898 199.703 366.555 194.778C367.394 193.849 367.58 192.455 368.884 191.99C370.933 191.247 374.287 193.849 376.15 194.685C378.851 195.893 381.553 196.822 382.577 199.796C383.602 202.583 383.136 206.95 382.205 209.645C380.155 215.592 374.566 214.384 369.443 214.013C360.5 213.362 351.651 211.875 342.802 211.225C334.791 210.667 327.339 213.083 320.445 216.986C306.007 225.256 294.083 238.358 281.601 249.137C275.174 254.712 268.933 260.659 261.853 265.584C258.779 267.721 255.519 269.58 252.817 272.274C250.209 274.876 249.93 277.199 248.998 280.637C247.415 286.77 239.404 289.837 234.467 292.996C227.428 297.398 219.893 300.953 212.017 303.589C195.403 309.408 178.327 313.822 160.97 316.784C152.4 318.271 143.924 319.293 135.26 320.129C127.808 320.872 119.89 323.103 112.438 321.244C114.581 317.806 118.4 315.669 121.381 312.974C125.17 309.457 128.517 305.495 131.348 301.173C136.937 292.903 140.943 284.075 141.781 274.04C142.619 265.027 141.688 254.248 136.192 246.628C134.329 244.026 130.603 243.283 128.926 240.867C127.249 238.544 127.902 234.455 126.97 231.668C124.641 224.699 117.655 216.057 111.6 211.968C104.986 207.601 95.2985 205.928 87.6601 208.251C73.5011 212.526 64.7449 227.579 58.3174 239.845C54.7777 232.411 60.7394 221.353 53.753 215.313C47.8845 210.203 43.3201 220.145 41.3639 224.42C32.2351 244.398 30.0926 265.584 26.2734 286.956C24.6898 285.376 25.5282 281.474 25.6213 279.615C25.9008 276.177 25.9008 272.832 25.9008 269.394C25.9008 260.752 27.5775 252.017 26.8323 243.376C26.3665 238.358 24.783 227.858 17.5172 229.438C11.3692 230.831 7.45682 239.566 5.50064 244.863C2.7061 252.482 2.05404 260.102 2.24034 268.186C2.42664 277.106 0.74992 285.934 0.284164 294.854C-0.554198 312.138 0.284163 329.328 5.22118 346.054C11.7197 367.129 24.4264 385.764 41.6881 399.536C58.9497 413.308 79.9671 421.579 102.005 423.272C110.575 423.83 118.773 422.807 127.249 421.971C135.633 421.135 144.017 420.67 152.307 419.648C170.844 417.418 188.916 411.564 205.776 403.666C214.625 399.484 223.009 394.466 231.672 390.006C235.212 388.241 237.541 386.01 240.521 383.502C243.502 381.086 244.341 380.9 247.694 380.9C246.669 378.298 249.557 377.462 250.861 375.789C250.753 376.59 250.691 377.397 250.675 378.205C251.7 376.068 252.538 376.068 253.376 378.298C254.215 375.882 254.867 373.373 255.798 371.05C259.618 373.001 259.338 377.648 264.461 374.209C268.653 371.422 272.566 368.17 276.944 365.475C286.818 359.249 295.294 351.258 305.169 345.125C305.169 351.072 305.634 357.112 304.796 363.059C304.051 368.727 301.908 373.931 300.231 379.413C297.158 389.356 296.878 400.042 293.525 409.891C292.127 413.98 288.401 417.418 287.377 421.414C286.259 425.502 288.774 428.754 284.582 431.356C281.601 433.215 277.968 434.051 274.708 435.166C269.678 436.932 265.02 439.347 260.176 441.392C237.447 451.149 215.184 460.998 194.132 474.1C174.105 486.552 153.798 499.375 135.447 514.056C119.518 526.88 103.403 543.42 99.4903 564.234C95.7643 584.491 105.731 606.235 125.945 612.832C136.471 616.27 148.302 615.898 159.2 615.991C170.937 616.177 183.42 613.297 194.97 611.252C207.173 609.115 219.19 605.677 231.393 603.819C243.13 601.96 253.935 597.872 265.393 595.27C277.689 592.575 290.264 591.089 302.653 588.672C308.242 587.557 313.645 585.978 319.234 584.956C325.382 583.841 331.53 583.469 337.585 581.982C349.322 579.102 360.594 574.548 372.331 571.854C377.64 570.646 382.857 569.066 388.166 567.951C393.01 566.929 396.829 564.141 401.766 566.464C405.679 568.323 408.846 571.389 412.572 573.526C417.416 576.314 422.539 578.823 427.569 581.239C437.723 586.071 448.249 589.509 458.868 593.133C470.046 596.943 480.945 601.31 492.589 603.912C504.419 606.513 516.529 607.257 528.452 609.301C552.734 613.418 577.319 615.501 601.949 615.527C614.524 615.62 627.006 614.133 639.582 614.319C650.667 614.505 660.261 616.921 670.415 611.067C686.623 601.682 705.347 587.557 704.974 567.022C704.601 548.437 693.423 530.689 682.897 516.008C670.135 498.167 651.971 485.622 634.179 473.357C615.176 460.255 593.938 451.241 573.91 439.812C563.757 433.958 554.348 427.639 543.263 423.551C537.954 421.599 532.83 419.276 527.614 417.139C523.422 415.467 517.367 414.444 513.734 411.657C511.499 409.891 511.312 407.197 510.66 404.502C509.241 398.72 507.436 393.039 505.258 387.497C501.487 376.632 498.773 365.43 497.153 354.045C495.57 343.174 492.03 331.837 493.893 320.779C505.817 332.302 518.112 343.452 530.409 354.603C534.973 358.784 539.537 363.152 544.102 367.333C547.548 370.493 551.926 375.139 556.677 376.068C562.825 377.276 560.589 370.493 564.781 369.378C567.39 368.727 575.121 375.324 577.17 376.625C590.118 384.802 604.464 390.006 618.716 395.581C633.62 401.435 648.99 406.639 665.105 408.126C680.035 409.388 695.069 407.876 709.445 403.666C737.95 395.581 759.002 376.532 774.372 351.815C791.977 323.846 804.739 290.859 803.714 257.221Z" fill="white"/>
<path fill-rule="evenodd" clip-rule="evenodd" d="M367.487 195.8L367.394 195.893C367.487 195.893 367.487 195.893 367.487 195.8Z" fill="white"/>
<path fill-rule="evenodd" clip-rule="evenodd" d="M368.884 196.171C368.766 195.282 368.547 194.41 368.232 193.57C367.3 195.056 366.462 195.707 367.673 197.286C368.055 196.892 368.459 196.52 368.884 196.171Z" fill="white"/>
<path fill-rule="evenodd" clip-rule="evenodd" d="M434.742 409.798C435.767 408.683 433.997 408.219 433.252 408.219C433.345 409.427 432.693 412.307 434.369 412.865C434.15 412.367 434.069 411.82 434.134 411.28C434.2 410.741 434.41 410.229 434.742 409.798Z" fill="white"/>
<path fill-rule="evenodd" clip-rule="evenodd" d="M406.797 174.985C405.027 178.516 409.032 179.538 411.361 177.866C413.131 176.565 414.156 173.313 414.435 171.268C415.367 164.578 410.616 158.166 408.287 152.127C407.635 150.547 406.89 145.25 404.934 145.157C402.698 144.972 402.512 149.896 402.512 151.104C402.574 154.947 403.299 158.75 404.654 162.348C405.772 166.251 408.939 170.897 406.797 174.985Z" fill="white"/>
<path fill-rule="evenodd" clip-rule="evenodd" d="M415.46 160.954C422.446 167.18 428.035 156.866 427.569 150.733C427.476 149.246 426.452 143.671 423.564 145.715C422.073 146.737 423.378 150.082 422.632 151.476C419.279 158.538 416.112 147.574 413.783 146.737C411.082 145.715 410.802 149.246 410.802 151.197C410.826 153.063 411.254 154.901 412.058 156.585C412.862 158.27 414.023 159.76 415.46 160.954Z" fill="white"/>
<path fill-rule="evenodd" clip-rule="evenodd" d="M390.122 161.883C391.799 159.282 393.755 155.843 394.035 152.777C394.407 147.945 391.613 148.41 389.284 151.755C387.607 154.171 386.396 158.167 382.857 157.144C378.385 155.936 379.783 149.896 377.268 147.109C370.84 155.472 382.764 173.406 390.122 161.883Z" fill="white"/>
<path fill-rule="evenodd" clip-rule="evenodd" d="M399.531 187.716C402.139 188.273 408.939 188.087 406.61 184.092C403.629 179.074 393.755 186.508 399.531 187.716Z" fill="white"/>
<path fill-rule="evenodd" clip-rule="evenodd" d="M490.726 38.3907C491.192 36.9968 490.54 36.7181 489.422 35.603C488.397 36.5322 489.701 37.6473 490.726 38.3907Z" fill="white"/>
<path fill-rule="evenodd" clip-rule="evenodd" d="M539.351 294.761C541.028 295.04 541.587 294.111 541.028 292.067C538.233 291.881 537.674 292.81 539.351 294.761Z" fill="white"/>
<path fill-rule="evenodd" clip-rule="evenodd" d="M445.547 76.0241C447.41 76.8604 446.758 78.6259 446.665 80.2056C447.597 79.1834 449.646 77.2321 448.808 75.6524C447.597 73.3294 444.336 75.4666 445.547 76.0241Z" fill="white"/>
<path fill-rule="evenodd" clip-rule="evenodd" d="M380.994 46.5676L380.155 44.895C378.944 45.8242 377.174 48.3331 379.038 49.5411C379.775 48.6084 380.429 47.6135 380.994 46.5676Z" fill="white"/>
<path fill-rule="evenodd" clip-rule="evenodd" d="M403.722 63.1077C406.051 64.9661 404.933 59.2979 404.84 58.8333C404.561 59.4837 402.512 62.1785 403.722 63.1077Z" fill="white"/>
<path fill-rule="evenodd" clip-rule="evenodd" d="M402.418 60.2271L401.86 58.8333C400.928 59.6696 399.717 61.528 401.301 62.5501C401.766 61.8236 402.141 61.0436 402.418 60.2271Z" fill="white"/>
<path fill-rule="evenodd" clip-rule="evenodd" d="M417.416 79.6477L417.975 80.2052C418.72 78.6256 417.882 77.5105 416.391 77.4176C416.497 78.2477 416.855 79.0258 417.416 79.6477Z" fill="white"/>
<path fill-rule="evenodd" clip-rule="evenodd" d="M354.259 255.642C355.158 255.003 356 254.288 356.774 253.504C353.98 251.832 355.657 255.456 352.303 253.226C351.651 254.155 352.769 256.385 354.259 255.642Z" fill="white"/>
<path fill-rule="evenodd" clip-rule="evenodd" d="M470.512 409.148C471.537 407.568 471.723 407.568 470.326 406.36C469.115 408.312 469.208 407.847 470.512 409.148Z" fill="white"/>
<path fill-rule="evenodd" clip-rule="evenodd" d="M250.582 152.684C251.141 153.241 251.7 153.892 252.259 154.449C252.538 153.706 254.029 151.476 253.004 150.732C252.263 151.46 251.451 152.114 250.582 152.684Z" fill="white"/>
<path fill-rule="evenodd" clip-rule="evenodd" d="M270.982 158.631C270.05 158.445 267.908 157.795 267.349 158.631C268.653 159.746 271.727 158.724 270.982 158.631Z" fill="white"/>
</svg>
