<svg width="865" height="616" viewBox="0 0 865 616" fill="none" xmlns="http://www.w3.org/2000/svg">
<path fill-rule="evenodd" clip-rule="evenodd" d="M675.282 76.279C675.62 78.8977 678.827 76.8703 679.164 78.3064C679.333 79.2355 675.957 81.4318 675.282 82.0231C677.645 83.4592 680.599 80.1647 682.371 78.8132C683.299 79.8269 683.553 80.3337 682.793 81.4318C681.358 83.4592 681.358 80.7561 679.671 82.1921C680.43 83.3747 681.021 82.6989 681.949 82.361C681.527 84.7263 682.456 83.2058 683.131 84.7263C683.721 85.9089 683.637 86.8381 683.806 88.1897C682.962 90.1325 682.118 91.9909 681.274 93.9338C680.261 96.2145 680.599 96.9748 678.151 96.2145C678.405 95.7077 680.261 93.4269 680.093 92.8356C679.924 92.1599 677.392 91.3151 676.801 90.7238C675.62 89.7946 675.62 88.9499 674.945 87.8518C675.198 86.9226 675.029 86.4157 674.269 86.5002L673.425 88.781C673.51 90.3859 674.86 90.217 675.62 91.7375C676.801 94.1027 676.126 92.6667 675.198 94.5251C674.185 96.3835 674.101 98.6643 672.497 99.5935C673.341 99.9314 674.185 100.354 675.113 100.692C673.088 102.888 677.308 101.79 677.983 101.621C677.308 103.141 676.548 104.662 675.873 106.098C673.763 104.915 672.75 102.634 671.316 100.776L668.109 106.774C669.206 106.689 670.219 106.605 671.316 106.436C671.147 106.689 669.797 108.632 669.881 109.054C670.387 110.828 674.016 109.815 673.594 112.095C672.408 113.495 671.11 114.794 669.712 115.981C671.316 116.741 672.075 116.404 671.484 118.346L669.206 116.995C668.466 118.097 667.87 119.289 667.434 120.543C667.508 121.355 667.362 122.172 667.012 122.908C666.578 123.584 666.068 124.207 665.493 124.766C665.071 125.949 664.902 132.284 665.408 133.383C666.59 131.862 669.29 134.565 664.733 134.565C662.792 134.565 662.876 134.143 662.117 135.917C661.526 137.268 661.189 138.451 662.876 138.62C661.61 141.07 661.864 143.012 661.779 145.716C661.59 147.888 661.195 150.038 660.598 152.135C661.02 151.544 661.357 150.953 661.779 150.446C662.876 152.727 662.032 154.67 661.526 157.119C660.429 155.599 660.26 158.302 659.332 158.049C657.391 157.457 658.826 157.119 658.066 155.768C657.391 154.67 657.475 154.332 656.209 153.656C654.521 152.727 651.568 152.727 649.627 152.389C646.437 151.94 643.225 151.658 640.006 151.544C627.853 151.037 615.785 150.868 603.633 151.544C592.352 152.22 581.131 153.659 570.044 155.852C558.398 158.133 547.005 160.16 535.697 164.046C533.502 164.806 531.308 166.327 529.114 166.834C527.004 167.34 524.979 167.341 522.785 168.101C517.637 169.875 512.235 171.226 507.088 173C501.518 174.859 495.441 176.379 490.04 178.913C487.762 180.011 485.652 181.532 483.289 182.63C481.095 183.728 477.466 184.657 476.284 187.107C475.918 187.936 475.888 188.875 476.2 189.726C476.79 191.669 477.212 191.5 478.732 191.331C480.841 191.162 483.626 189.472 485.652 188.881C491.306 187.107 496.96 185.671 502.699 184.235C512.995 181.701 523.291 177.139 533.418 175.365C539.41 174.352 545.149 171.48 551.225 170.382C552.575 170.128 556.373 168.27 557.47 168.945C557.955 169.844 558.378 170.776 558.736 171.733C559.645 173.527 560.689 175.25 561.858 176.886C565.487 181.701 570.298 185.587 574.686 189.726C579.665 194.456 583.969 199.694 588.526 204.846C588.948 204.424 589.286 203.917 589.708 203.495C589.286 206.705 591.733 209.07 593.674 211.266C595.938 213.752 597.971 216.438 599.751 219.291C601.351 221.63 603.069 223.885 604.899 226.049C606.586 228.245 607.684 230.864 609.287 233.229C612.832 238.635 616.292 244.126 619.921 249.448C621.583 252.067 623.05 254.806 624.309 257.642C625.406 259.923 628.529 264.569 628.529 266.68C628.275 267.778 630.638 274.198 628.107 271.157C627.685 271.749 627.347 272.424 626.925 273.016C627.6 272.762 628.275 272.424 628.951 272.171C626.925 274.029 630.723 274.283 630.807 275.297L629.794 276.31C629.204 277.493 628.444 277.662 627.516 276.817C626.503 276.902 626.25 276.31 625.153 276.648C626.25 278.338 627.685 277.324 628.275 279.689C628.782 281.801 627.178 282.223 625.575 283.49L625.49 283.575V283.659C625.153 284.757 624.14 284.251 622.959 284.082C620.258 283.49 617.22 282.477 614.604 281.632C608.889 279.843 603.087 278.349 597.219 277.155C583.8 274.367 570.382 274.536 556.879 273.607C557.217 272.087 557.217 272.256 556.795 271.326C557.301 272.509 554.094 270.988 556.542 273.607C550.212 274.621 543.461 273.861 537.047 274.198C537.384 273.523 538.06 272.762 537.384 272.255C534.346 276.648 524.219 274.79 519.24 275.381C516.286 275.719 513.417 276.479 510.463 276.901L509.197 277.07C508.185 277.239 507.172 277.408 506.159 277.662C504.893 278 502.699 279.436 501.518 279.098C503.29 275.465 501.264 278.591 500.927 278.675C499.754 278.883 498.571 279.024 497.382 279.098C498.817 273.523 501.18 268.285 502.108 262.541C502.699 258.909 504.387 253.165 500.842 250.546C498.901 249.11 495.694 248.857 493.416 248.35C490.969 247.843 486.58 247.843 484.47 246.491C482.782 245.393 482.445 244.38 480.251 243.535C477.719 242.606 476.537 241.592 474.006 242.352C475.018 241.085 476.537 240.071 474.428 238.72C473.584 238.213 471.98 238.889 471.643 237.706C470.124 238.804 470.461 239.649 470.039 241.085C470.049 241.711 470.223 242.323 470.545 242.859C469.702 243.197 468.942 243.535 468.098 243.873C468.604 242.521 467.085 243.281 466.832 242.606C466.41 241.592 466.663 240.071 466.663 238.973C464.976 239.48 463.288 240.156 462.528 241.845C460.503 240.663 461.262 240.578 462.359 238.72C460.672 238.298 460.334 239.227 459.996 240.578C459.068 240.325 458.224 239.987 457.296 239.734C459.321 239.734 459.828 238.129 459.828 236.439C459.068 236.693 458.224 236.946 457.465 237.199L456.958 239.734C455.692 240.747 452.485 238.889 451.473 238.298C447.844 236.439 446.494 235.848 447 231.54C447.422 227.907 448.35 224.275 448.603 220.643C448.857 216.588 448.35 212.28 448.013 208.225C447.337 200.454 446.24 192.767 445.818 184.911C445.65 180.687 445.396 176.464 445.228 172.24C445.059 168.861 443.962 165.144 448.097 164.891C447.591 163.286 449.11 161.343 450.713 160.498C451.304 159.231 451.895 159.147 452.57 160.16C452.838 160.246 453.123 160.268 453.402 160.224C453.68 160.18 453.944 160.071 454.173 159.907C456.452 159.4 459.237 156.106 461.347 154.923C463.372 153.74 467.845 152.051 469.28 150.108C470.714 148.25 468.52 148.419 469.026 146.729C469.617 144.364 471.727 147.743 472.065 148.25C472.74 147.574 475.525 146.222 475.44 145.124C474.765 145.04 474.09 144.871 473.415 144.786C474.174 144.364 475.778 143.097 476.622 142.928C478.056 142.674 477.55 142.252 478.647 143.857C479.069 143.266 479.997 141.154 480.673 140.732C481.451 140.543 482.24 140.402 483.036 140.309C484.892 139.633 484.723 138.197 486.158 137.437C486.833 137.099 487.677 137.606 488.184 137.353C489.112 136.93 489.112 135.579 489.871 135.156C490.547 134.734 492.403 135.072 493.247 134.819C494.682 134.312 494.597 133.805 495.61 132.876C497.045 131.524 498.395 131.778 500.083 130.764C501.771 129.75 501.518 127.385 503.037 126.963C505.062 126.371 505.653 128.314 506.75 126.371C507.003 125.949 505.822 125.273 506.581 124.597C507.425 123.753 507.847 124.766 508.269 125.442L509.704 122.823C511.898 124.091 510.97 122.486 512.742 121.641C513.501 121.303 514.092 121.979 514.936 121.556C515.527 121.218 515.611 120.543 516.117 120.036C516.961 119.191 517.468 118.008 518.734 117.586C518.227 117.755 522.109 117.586 521.772 117.417C521.434 116.826 521.012 116.319 520.675 115.728C522.7 115.728 524.472 115.897 526.413 115.305C527.249 115.092 528.046 114.75 528.776 114.292C530.38 113.109 530.042 113.362 530.042 111.166C531.154 111.785 532.426 112.051 533.692 111.93C534.957 111.81 536.157 111.308 537.131 110.49C538.115 109.552 539.158 108.677 540.254 107.872C540.76 107.618 541.351 107.365 541.857 107.112C541.975 106.954 542.128 106.826 542.304 106.738C542.48 106.65 542.673 106.605 542.87 106.605C543.067 106.605 543.26 106.65 543.436 106.738C543.612 106.826 543.765 106.954 543.883 107.112C544.895 106.858 544.811 106.689 545.571 106.182C545.824 105.76 545.992 105.338 546.246 104.915C547.041 104.823 547.83 104.682 548.609 104.493C551.647 103.648 553.503 101.621 556.373 103.479C556.71 102.719 557.132 101.959 557.47 101.283C558.651 103.141 559.495 101.367 561.099 100.607C561.774 100.269 562.618 100.185 563.209 99.9313L564.221 100.185C564.475 99.2556 564.812 98.4108 565.065 97.4816C565.656 97.7351 567.935 98.9177 568.694 98.9177C569.707 98.8332 570.888 97.1437 571.817 96.8059C573.251 96.299 572.745 96.9748 574.18 96.9748C575.277 96.9748 575.783 97.1437 576.796 96.2145C573.589 95.3698 577.64 94.9475 578.99 94.694C581.1 94.2717 582.197 94.694 583.716 93.0046H582.197C583.716 91.653 583.21 92.0754 584.813 92.2443C585.32 92.2443 587.514 93.5114 587.514 91.9064C589.539 93.0891 589.624 93.0891 591.733 92.5822C592.662 92.3288 593.506 91.5686 594.518 91.5686C595.531 91.5686 596.291 91.9909 597.134 91.9064C598.167 91.6323 599.182 91.2937 600.173 90.8928C601.185 90.5549 601.86 89.7102 602.789 89.4567C603.886 89.1188 605.236 89.5412 606.333 89.2878C609.625 88.5275 611.65 86.5847 615.195 87.5983C615.617 84.3884 619.583 85.0642 621.777 85.4021C623.296 85.6555 624.056 86.2468 625.575 85.4865C626.841 84.8952 627.6 83.966 628.951 83.4592C630.166 83.0885 631.407 82.8062 632.664 82.6144C633.347 82.4057 634.061 82.3199 634.774 82.361C635.483 82.4413 636.141 82.7706 636.63 83.2902L636.715 83.3747C637.213 82.8831 637.749 82.4312 638.318 82.0231C639.584 81.0095 640.175 81.4318 640.934 79.4045L638.234 78.8132C639.668 78.7287 640.681 78.5598 641.947 79.0666C642.791 79.4045 644.226 81.4318 645.154 81.4318C646.757 81.4318 647.264 79.2355 647.095 78.0529C648.445 81.0939 649.542 81.6008 652.496 80.0803C652.851 79.9151 653.19 79.7172 653.509 79.489C653.624 79.3147 653.781 79.1718 653.965 79.0729C654.149 78.974 654.355 78.9223 654.564 78.9223C654.773 78.9223 654.978 78.974 655.162 79.0729C655.346 79.1718 655.503 79.3147 655.619 79.489L656.885 80.1647C657.391 79.32 657.897 78.4753 658.404 77.715C659.416 79.1511 660.429 79.2355 662.201 78.8977C663.383 78.6442 665.83 76.5324 666.674 76.5324C667.18 76.5324 667.856 77.7995 668.699 77.9685C669.494 78.1276 670.318 78.0243 671.049 77.6739C671.779 77.3235 672.377 76.745 672.75 76.0256C673.003 76.6169 673.257 77.1237 673.51 77.715C674.164 77.321 674.761 76.8376 675.282 76.279ZM623.549 280.618V283.237L625.237 283.575V283.406C625.274 282.824 625.131 282.246 624.83 281.747C624.528 281.249 624.081 280.855 623.549 280.618ZM545.908 270.313C545.655 271.157 545.402 272.002 545.064 272.847L547.849 273.1C547.174 272.171 546.499 271.242 545.908 270.313ZM437.464 203.748C439.489 204.34 439.489 204.255 439.827 206.113C442.105 216.757 435.016 228.921 440.249 239.058C424.973 238.973 409.614 239.227 394.423 241.001C394.423 235.172 394.592 229.428 394.17 223.684C394.001 221.065 393.664 218.446 393.411 215.828C393.073 212.533 393.157 212.702 395.858 212.111C397.293 211.773 397.799 210.928 399.149 210.337C400.162 209.915 400.668 210.422 401.681 210.59C403.453 210.844 403.538 210.506 405.141 210.168C408.686 209.408 411.724 209.661 414.509 207.043C415.943 206.958 415.521 208.225 416.534 208.141C417.294 208.056 417.716 206.705 418.475 206.367C420.838 205.353 424.72 205.607 427.252 205.269C429.868 204.931 432.147 203.748 434.679 203.41C435.621 203.303 436.575 203.419 437.464 203.748ZM467.001 234.412C466.495 236.27 464.3 233.82 464.3 235.341V235.51C464.385 235.256 466.579 238.129 466.495 238.044C467.676 238.973 468.351 238.889 469.702 237.791C467.339 237.706 467.592 236.186 467.001 234.412ZM473.668 237.03C474.512 237.537 474.765 236.27 475.271 235.51C474.259 235.088 474.174 236.186 473.668 237.03ZM470.967 229.006C471.251 230.108 471.364 231.248 471.305 232.384C473.33 232.131 473.921 231.962 474.006 229.766L472.908 230.442C472.318 229.343 472.233 229.259 470.967 229.006ZM455.355 231.033C455.777 230.779 456.283 230.442 456.705 230.188C456.03 229.174 454.848 230.357 455.355 231.033ZM460.503 213.209C461.093 212.871 461.684 212.618 462.275 212.28C460.672 210.337 460.587 211.013 460.503 213.209ZM458.393 197.92H456.114C456.536 199.356 458.393 199.694 458.393 197.92ZM682.962 112.095C683.468 112.433 683.975 112.687 684.565 113.025C683.215 114.292 681.527 115.559 682.877 116.995C683.89 118.177 688.869 118.684 690.304 119.107C689.636 120.055 688.873 120.933 688.025 121.725C687.435 122.063 686.928 120.796 685.831 122.063C687.688 122.992 687.182 122.317 686.675 124.344C686.422 125.527 685.409 126.794 684.818 127.892C683.468 130.51 682.034 133.129 680.515 135.663C677.561 140.985 674.354 146.138 671.062 151.291C670.472 148.419 672.075 145.209 672.919 142.421C673.932 138.958 675.029 135.41 676.042 131.946C678.151 125.104 679.924 118.431 682.962 112.095ZM602.789 120.881C601.27 121.303 600.341 121.472 598.738 121.894C601.017 122.57 601.017 122.57 602.789 120.881ZM668.868 107.872C666.927 108.801 666.758 109.392 668.278 110.49C668.446 109.646 668.615 109.054 668.868 107.872ZM668.615 86.7536C668.362 87.8518 666.758 86.8381 666.421 87.5983C665.577 89.4567 668.193 89.2033 669.121 89.1189C668.953 88.3586 668.784 87.5983 668.615 86.7536ZM679.417 85.3176C678.911 87.7673 678.911 87.7673 681.274 88.1052C680.683 87.176 680.177 86.4157 679.417 85.3176Z" fill="#000C9C"/>
<path fill-rule="evenodd" clip-rule="evenodd" d="M334.701 339.326C334.364 341.185 333.435 342.03 334.364 343.719C334.866 344.463 335.568 345.049 336.39 345.408C337.212 345.767 338.119 345.884 339.005 345.746L334.701 339.326ZM293.264 273.691L285.669 276.31C287.676 278.416 289.788 280.417 291.999 282.307L293.264 273.691ZM417.828 280.365C414.199 278.506 410.148 278.337 406.266 278.084C406.857 281.294 407.448 284.588 408.038 287.798C411.33 285.348 414.621 282.814 417.828 280.365ZM331.326 531.671C330.566 530.404 325.671 520.52 324.659 521.027C324.152 521.28 324.068 526.771 323.983 527.531C323.73 530.319 323.393 533.107 323.139 535.894C326.093 534.881 329.216 534.036 331.326 531.671ZM297.062 452.013C297.822 454.209 298.581 456.405 299.256 458.517C299.523 459.711 299.919 460.873 300.438 461.981C301.282 463.163 300.607 463.839 301.704 462.572C302.885 461.22 303.223 457.504 303.729 455.73C304.489 453.111 305.248 450.577 306.008 447.958C302.463 448.043 300.269 450.999 297.062 452.013ZM221.109 323.868C216.636 326.909 212.163 329.95 208.281 333.667C211.657 333.413 216.383 335.779 219.59 334.68C221.109 335.018 221.531 334.427 221.024 332.991V323.868H221.109ZM287.019 345.324V363.063C291.155 359.515 295.543 356.221 299.51 352.504C295.374 350.139 291.155 347.774 287.019 345.324ZM435.297 391.362C433.947 399.302 433.947 407.411 433.525 415.352C433.441 416.788 432.934 418.9 433.863 420.167C434.791 421.434 437.492 422.11 438.842 422.785C442.724 424.644 446.522 426.587 450.404 428.445C445.424 416.112 440.361 403.695 435.297 391.362ZM533.277 342.79C542.814 338.144 552.35 333.413 561.886 328.767C552.519 324.797 543.236 320.827 533.868 316.857C533.699 325.473 533.53 334.089 533.277 342.79ZM435.297 364.837C437.07 364.922 437.323 358.333 437.576 356.559C438.082 353.264 438.673 349.886 439.264 346.591C440.445 339.918 441.627 333.329 442.893 326.656C445.424 313.393 448.294 300.216 451.416 287.038C448.141 286.574 444.899 285.896 441.711 285.011C439.095 284.25 435.888 284.673 433.525 282.983C433.188 289.15 434.791 295.654 435.297 301.821C435.987 308.923 436.297 316.057 436.226 323.192C436.141 337.13 435.635 350.984 435.297 364.837ZM216.045 552.62C217.733 552.197 215.454 529.559 215.37 526.264C215.117 516.803 215.032 507.343 215.201 497.882C206.333 503.482 197.178 508.614 187.774 513.256C190.221 516.381 192.415 519.76 195.116 522.716C197.901 525.758 201.023 528.207 203.555 531.417C208.703 537.922 212.247 545.271 216.045 552.62ZM430.065 418.646C430.487 411.804 430.825 405.046 431.584 398.204C431.837 395.332 434.707 379.958 430.234 380.296C427.702 380.465 423.229 384.266 420.866 385.533C417.828 387.222 414.706 388.996 411.583 390.686C405.507 394.065 399.346 397.275 393.185 400.654C405.422 406.651 417.716 412.649 430.065 418.646ZM403.481 276.986C398.449 276.678 393.435 276.114 388.459 275.296C385.759 274.789 383.058 274.874 380.358 274.536C378.417 274.283 374.619 272.678 372.762 273.184C370.484 273.86 369.64 285.264 369.302 288.136C368.796 292.782 368.458 298.357 370.484 302.75C374.45 311.113 385.168 304.608 390.4 301.06C394.873 298.019 399.937 294.978 403.903 291.346C407.532 288.052 404.325 281.125 403.481 276.986ZM429.896 368.132C433.694 366.611 433.694 364.668 433.863 360.614C434.031 355.714 434.2 350.815 434.285 346C434.538 337.299 434.791 328.598 434.707 319.898C434.622 311.366 434.2 302.919 433.272 294.471C432.934 291.515 433.272 286.362 431.668 283.828C430.234 281.463 425.761 281.463 423.314 281.632C420.613 281.801 418.334 284.419 416.309 286.024C414.03 287.883 409.473 290.417 409.136 293.12C408.714 296.161 410.401 300.469 411.077 303.426C413.44 314.154 416.309 324.797 419.347 335.441C422.47 346.422 425.677 357.488 429.896 368.132ZM332.507 342.367C332.76 339.918 333.689 337.89 332.423 335.61C331.41 333.667 329.638 331.639 328.372 329.781C324.743 324.375 320.608 319.306 316.641 314.154C313.012 309.423 309.299 304.777 305.417 300.216C303.307 297.681 301.113 295.232 298.919 292.698C297.315 290.839 295.796 288.305 293.518 287.376C291.83 297.85 290.479 308.325 289.382 318.884C288.876 323.952 288.454 329.105 288.032 334.174C287.948 335.61 286.766 340.509 287.526 341.861C288.285 343.297 292.842 345.155 294.277 346C298.244 348.449 301.282 352.082 304.995 348.112C307.611 345.408 309.637 341.523 312.506 339.158C314.025 337.89 315.375 337.975 317.063 337.215C319.004 336.37 319.089 335.525 321.452 336.708C325.502 338.651 327.865 341.607 332.507 342.367ZM135.366 396.261C135.366 403.526 134.859 409.439 139.754 415.352C144.058 420.505 148.531 421.687 154.523 423.715C158.067 424.897 158.321 423.799 161.19 421.772C163.89 419.829 166.929 418.308 169.629 416.365C175.452 412.142 181.275 407.749 186.93 403.272C188.871 401.752 188.533 402.259 188.28 400.485C188.027 398.88 186.845 396.768 186.17 395.163C184.989 392.375 183.638 389.588 182.288 386.885C180.769 383.759 179.334 380.38 177.393 377.508C176.549 376.325 175.621 375.227 174.693 374.129C172.752 371.848 172.752 371.933 170.389 373.791C165.41 377.762 160.768 382.07 155.198 385.195C148.615 388.827 142.033 392.544 135.366 396.261ZM285.669 340.087C286.429 329.697 287.188 319.306 288.454 309.001C289.129 303.679 289.804 298.357 290.564 293.035C290.817 290.839 291.999 287.207 291.323 285.18C290.733 283.152 287.948 281.125 286.429 279.689C286.007 279.266 284.741 277.577 284.234 277.492C283.644 277.408 281.534 279.013 280.859 279.351C278.664 280.618 276.47 281.97 274.36 283.321C270.31 285.94 266.428 288.727 262.63 291.599C254.613 297.681 247.017 304.27 239.169 310.521C246.342 316.772 255.119 321.672 263.136 326.824C267.862 329.866 272.673 332.822 277.483 335.694C280.015 337.13 282.8 339.326 285.669 340.087ZM187.605 526.18C181.782 529.981 176.296 534.036 169.714 536.486C163.215 538.935 156.717 539.864 150.05 541.3C146.674 542.061 143.467 542.821 140.007 543.328C138.066 543.581 135.028 543.497 133.256 544.341C131.652 544.004 131.146 544.51 131.568 545.946C131.557 546.399 131.585 546.851 131.652 547.298C132.074 553.38 136.041 560.729 139.417 565.713C141.528 568.601 143.901 571.287 146.506 573.738C149.375 576.526 150.978 578.469 155.029 577.286C161.781 575.343 167.688 571.457 174.44 569.683C179.841 568.332 184.313 565.46 189.546 563.939C196.044 562.081 202.458 560.053 208.956 558.533C206.002 552.873 203.386 546.96 199.673 541.807C195.875 536.57 191.571 531.502 187.605 526.18ZM223.134 335.694C235.202 338.144 248.368 340.34 259.17 346.591C263.389 349.041 268.791 352.842 269.972 357.826C271.491 363.824 265.668 367.625 260.773 369.483C254.95 371.764 248.621 372.609 242.376 373.284C239.084 373.622 235.793 373.876 232.502 374.045C229.801 374.214 225.328 373.622 222.881 374.636C221.362 374.298 220.856 374.974 221.277 376.494C221.277 377.086 221.193 377.593 221.193 378.184L220.94 383.168C220.771 386.462 220.602 389.757 220.434 393.136C220.096 400.316 219.674 407.58 219.336 414.761C225.666 410.79 230.814 405.215 236.975 400.991C239.928 398.964 242.882 397.021 245.751 394.994C247.017 394.149 247.692 392.967 248.958 392.206C250.546 391.331 252.069 390.343 253.515 389.25C259.676 383.759 266.512 378.944 273.01 373.96C275.964 371.679 279.255 369.568 282.04 367.118C284.994 364.499 284.572 362.388 284.488 358.671C284.403 354.701 285.838 349.886 285.163 346.084C285.753 344.817 285.332 343.972 283.897 343.719C282.969 343.128 281.956 342.536 281.027 341.861C279.171 340.678 277.23 339.411 275.373 338.228C267.862 333.413 260.267 328.598 252.756 323.784C248.958 321.334 245.245 318.969 241.447 316.519C240.435 315.843 236.975 312.802 235.793 312.887C234.612 312.971 232.502 315.336 231.573 316.096C230.242 317.314 228.833 318.443 227.354 319.475C226.615 320.007 225.823 320.46 224.991 320.827C223.725 320.911 223.218 321.672 223.64 322.939C222.712 326.656 223.387 331.893 223.134 335.694ZM390.991 507.849C388.291 495.009 384.746 479.804 374.028 471.104C363.226 462.234 347.36 465.697 338.836 476.088C334.617 481.325 331.916 487.407 329.975 493.827C327.95 500.331 324.996 508.863 325.587 515.79C325.84 518.831 328.456 522.125 329.891 524.744C331.41 527.447 332.423 531.417 336.052 530.488C341.621 529.052 347.36 525.673 352.592 523.223C357.909 520.774 363.479 518.746 368.965 516.381C372.594 514.776 376.391 513.593 380.02 512.073C383.48 510.552 388.037 510.215 390.991 507.849ZM553.025 431.486C560.705 434.189 564.671 429.881 569.988 424.897C575.052 420.251 580.622 415.69 585.263 410.621C590.074 405.384 593.956 399.218 597.669 393.136C601.467 387.053 606.53 380.38 608.809 373.622C609.99 370.159 610.497 366.358 611.256 362.725C611.425 361.881 612.606 358.671 612.269 357.91C611.762 356.897 608.387 356.812 607.458 356.643C600.052 355.489 592.517 355.432 585.094 356.474C570.916 358.502 559.101 366.442 554.629 380.296C549.396 396.683 551.928 414.76 553.025 431.486ZM503.402 290.163C503.318 292.951 510.069 293.796 511.757 294.387C515.808 295.908 519.859 297.513 523.741 299.286C531.843 303.003 540.451 305.368 548.215 309.845C564.924 319.475 583.069 326.318 599.947 335.525C602.564 336.961 607.712 340.425 610.75 340.171C612.353 340.002 611.172 341.269 612.184 338.735C612.49 337.741 612.715 336.724 612.86 335.694C613.45 332.738 613.957 329.781 614.632 326.909C615.813 322.094 616.995 317.617 617.417 312.718C617.586 310.606 617.839 308.578 617.839 306.467C617.839 304.355 618.345 299.033 617.417 297.175C616.742 295.992 616.657 296.33 615.054 295.992C614.125 295.823 613.197 295.401 612.269 295.147C610.226 294.411 608.1 293.929 605.939 293.711C603.83 293.542 602.395 292.867 600.454 292.529C598.344 292.106 596.15 292.613 594.04 292.022C591.761 291.43 590.58 290.839 588.217 291.093C585.854 291.346 585.179 290.755 582.9 290.163C580.959 289.657 578.68 289.994 576.739 289.826C574.292 289.657 571.929 289.319 569.482 289.15C558.595 288.305 547.54 289.572 536.653 289.488C530.745 289.403 524.922 290.332 519.015 290.079C513.816 289.727 508.597 289.755 503.402 290.163ZM531.758 347.605C526.441 349.632 521.547 352.927 516.652 355.714C511.029 358.955 505.591 362.509 500.364 366.358C491.587 372.947 481.291 380.803 478.928 392.291C476.565 404.032 486.777 413.662 496.313 418.477C507.2 423.968 519.943 426.84 531.843 428.867C530.577 401.836 530.83 374.72 531.758 347.605ZM373.269 411.382C370.062 412.311 367.361 414.169 364.323 415.605C361.655 416.701 359.061 417.971 356.559 419.407C352.372 421.979 348.032 424.292 343.562 426.333C333.013 431.402 322.886 437.653 312.422 443.312C309.637 444.833 308.793 445.762 307.864 448.803C306.852 452.097 305.923 455.476 304.911 458.771C303.982 461.896 302.548 465.191 302.885 468.485C303.223 471.357 304.657 474.06 305.839 476.679C308.624 483.268 311.662 489.688 314.785 496.108C317.57 501.852 320.186 507.934 323.815 513.256C326.6 498.557 329.131 482.17 340.018 470.935C350.905 459.784 368.29 459.615 378.754 471.104C383.733 476.594 386.772 483.521 389.135 490.448C390.348 494.094 391.307 497.819 392.004 501.598C392.848 505.653 392.679 507.765 397.067 506.498C400.612 505.569 404.325 504.724 407.785 503.626C409.558 503.034 411.33 502.443 411.414 501.007C411.499 499.233 409.136 495.601 408.376 493.911C404.747 485.211 401.034 476.594 397.405 467.894C393.439 458.433 389.472 449.056 385.421 439.595C383.396 434.865 381.455 430.219 379.429 425.489C377.826 421.265 376.307 414.845 373.269 411.382ZM532.011 338.059C532.096 333.751 532.18 329.528 532.18 325.22C532.18 322.685 533.362 317.701 531.167 315.928C529.817 314.829 525.682 313.9 523.994 313.14C520.534 311.619 516.821 310.944 513.361 309.423C499.858 303.51 485.764 298.526 471.755 293.796C468.717 292.782 465.679 291.937 462.641 290.924C461.037 290.417 454.961 287.122 453.442 287.967C452.091 288.727 451.079 297.513 450.657 299.286C449.644 303.595 448.716 307.903 447.787 312.295C444.243 329.105 441.205 346.084 438.42 363.063C445.846 360.276 452.935 355.376 459.94 351.575C467.198 347.689 474.456 343.719 481.798 339.918C483.908 338.82 491.165 333.836 492.853 335.779C495.554 338.904 489.056 342.621 487.368 343.888C480.785 349.041 473.78 353.602 466.691 358.164C459.349 362.894 451.754 367.033 444.412 371.595C441.796 373.284 437.492 375.312 436.479 378.099C435.129 381.732 436.141 386.124 437.323 389.588C440.361 398.035 443.652 406.482 447.112 414.761C448.716 418.562 450.319 422.279 452.007 425.995C453.948 430.472 456.564 431.402 460.868 433.429C479.182 442.13 498.086 450.492 515.639 460.545C512.685 463.924 505.512 458.348 502.643 456.997C497.242 454.378 491.925 451.76 486.524 449.141C476.565 444.241 466.607 439.258 456.564 434.527C463.02 449.183 470.522 463.355 479.013 476.932C476.903 477.693 477.409 477.693 476.059 476.426C474.962 475.327 474.202 473.216 473.443 471.864C471.839 469.076 470.32 466.289 468.717 463.501C465.426 457.673 462.05 452.013 459.012 446.015C456.733 441.538 454.961 433.682 450.319 431.486L432.85 423.123C432.85 445.424 434.453 467.218 436.816 489.35C436.901 490.448 437.998 493.742 435.888 493.404C434.875 493.236 434.622 487.154 434.453 485.886C433.694 480.058 433.019 474.145 432.428 468.316C431.331 456.574 430.74 444.833 430.656 433.007C429.305 444.495 427.871 455.899 426.52 467.387L424.579 483.69C424.242 486.562 423.904 489.434 423.567 492.222C423.398 493.573 423.482 495.263 423.06 496.53C422.301 498.473 422.554 498.304 420.275 499.233C422.47 484.281 424.411 469.414 426.183 454.378C427.027 447.114 427.871 439.764 428.63 432.415C428.799 430.472 429.052 428.445 429.221 426.502C429.305 425.489 430.149 422.279 429.727 421.434C429.221 420.589 426.099 419.744 425.17 419.322C423.145 418.393 421.204 417.464 419.178 416.534C412.764 413.493 406.266 410.452 399.937 407.327C397.152 405.975 394.198 403.779 391.16 403.103C388.122 402.343 385.928 404.455 383.396 405.806C381.37 406.82 376.644 408.256 375.294 410.03C374.028 411.635 377.91 418.224 378.923 420.674L387.531 441.2C393.354 455.054 399.177 468.936 405 482.845L409.304 492.982C410.233 495.178 411.752 501.345 413.946 501.598C414.959 501.683 416.562 500.669 417.49 500.331C418.854 500.024 420.235 499.798 421.626 499.655C424.242 499.233 426.942 497.882 429.474 496.952C436.057 494.503 442.808 492.982 449.475 490.701C456.142 488.421 462.641 485.886 469.223 483.606C475.287 481.578 481.232 479.209 487.03 476.51C493.106 473.638 499.351 471.188 505.343 468.063C516.146 462.319 526.863 456.997 536.4 449.986C538.678 448.296 541.041 446.691 543.236 444.917C545.177 443.397 548.89 441.454 550.24 439.427C550.747 438.666 551.168 437.146 550.578 436.217C549.903 435.203 547.118 435.287 545.852 435.118C541.716 434.527 537.581 434.02 533.446 433.429C533.784 436.132 534.121 438.835 534.29 441.623C534.459 443.566 535.556 448.634 534.037 450.155C531.927 448.127 532.602 442.13 532.433 439.427C532.349 437.99 532.687 435.203 532.096 433.936C531.421 432.584 529.48 432.584 527.707 432.162C520.281 430.557 512.854 429.205 505.681 426.671C493.528 422.363 478.928 415.098 476.228 400.991C473.358 386.378 485.849 373.622 496.313 365.428C502.613 360.61 509.24 356.235 516.146 352.335C519.352 350.477 522.644 348.618 525.851 346.845C527.032 346.169 530.914 344.817 531.505 343.719C532.265 342.536 531.927 339.411 532.011 338.059ZM271.576 563.094C270.985 563.348 270.394 563.686 269.803 563.939C276.386 545.186 282.884 526.518 288.37 507.427C290.986 498.219 293.686 489.012 296.471 479.804C297.653 475.834 300.522 470.343 299.763 466.289C298.919 461.812 296.809 457.081 295.205 452.858C284.825 459.362 274.192 465.613 263.643 471.864C254.191 477.439 244.57 482.423 235.033 487.998C230.139 490.87 225.075 492.729 220.012 495.094C215.876 496.952 217.48 502.697 217.564 506.582C217.733 520.182 217.733 533.782 218.577 547.298C218.914 552.198 218.493 557.942 221.615 561.996C225.666 567.234 229.379 572.64 233.008 578.131C234.358 580.242 240.181 591.393 242.291 591.139C243.726 590.97 244.992 586.409 245.667 585.395C247.332 583.122 249.258 581.052 251.406 579.229C260.098 571.119 269.719 565.46 279.762 559.547C289.973 553.549 300.353 547.974 310.734 542.314C313.097 541.047 315.628 540.118 317.907 538.766C318.835 538.259 320.692 537.415 321.198 536.486C322.042 535.134 321.789 531.248 321.958 529.559C322.296 526.18 322.971 522.632 323.055 519.253C323.055 515.874 321.03 513.002 319.595 510.046C313.181 497.121 306.852 484.197 301.282 470.935C296.893 486.393 292.252 501.767 287.863 517.226C285.585 525.335 282.884 533.276 280.184 541.216L276.133 553.38C275.204 556.59 274.614 561.236 271.576 563.094ZM364.07 272.171C360.747 272.111 357.439 271.714 354.196 270.988C352.93 270.735 351.917 270.65 350.651 270.481C349.217 270.397 347.951 269.552 346.769 269.468C345.59 269.458 344.419 269.658 343.309 270.059C341.284 270.735 341.284 270.397 341.199 272.762C341.031 276.479 340.946 280.196 340.778 283.912C340.018 298.526 338.415 312.971 336.305 327.416C335.883 330.372 334.701 334.174 335.292 337.046C335.883 339.664 338.161 342.452 339.596 344.648C342.634 349.125 349.892 351.406 354.955 352.673C360.272 354.025 365.842 354.532 370.99 355.714C372.425 356.052 374.028 355.461 375.547 355.799C376.821 356.246 378.062 356.783 379.261 357.404C382.383 358.755 385.928 359.009 389.135 360.022C395.548 362.134 402.469 361.965 408.967 363.992C410.655 364.499 412.005 365.766 413.608 366.189C415.043 366.611 416.562 366.104 418.081 366.358C421.288 366.865 424.326 367.963 425.001 371.426C426.942 369.906 427.28 370.243 426.942 367.878C426.525 366.219 426.018 364.583 425.423 362.979C424.242 359.178 422.976 355.376 421.795 351.575C419.432 344.057 417.069 336.539 414.874 328.936C412.933 322.178 411.161 315.336 409.558 308.494C408.798 305.031 408.123 301.483 407.448 297.935C407.279 296.921 407.448 295.316 406.435 294.64C405.507 294.049 403.313 296.245 402.384 296.921C395.548 301.905 379.767 316.603 371.243 307.903C366.602 303.257 366.939 295.063 367.361 288.981C367.711 285.291 368.274 281.624 369.049 277.999C369.218 277.07 370.315 274.198 369.893 273.522C369.64 272.762 364.998 272.34 364.07 272.171ZM605.011 353.264C606.868 353.433 608.64 353.687 610.497 353.856C610.328 352.42 610.497 350.139 609.906 348.787C609.146 346.929 607.205 346.676 605.18 345.915C601.888 344.648 598.513 343.55 595.306 342.283C588.217 339.411 581.212 336.454 574.123 333.498C571.001 332.231 567.372 330.119 563.996 331.217C560.367 332.315 556.823 334.596 553.447 336.285C549.649 338.144 545.767 340.087 541.97 341.945C540.197 342.874 538.341 343.719 536.569 344.648C533.784 346.084 533.362 346.169 533.108 349.379C532.011 365.766 532.096 382.745 532.518 399.133C532.771 407.496 532.518 415.943 533.108 424.221C533.193 424.897 533.108 428.445 533.53 428.952C534.121 429.628 538.088 429.881 539.016 430.05C542.729 430.726 546.443 430.979 550.24 431.317C549.396 412.311 546.105 389.757 555.895 372.355C565.684 354.954 586.613 351.153 605.011 353.264ZM434.453 166.073C435.551 163.539 437.407 161.427 439.095 159.231C439.939 158.048 441.458 156.612 442.049 155.261C442.808 153.318 442.808 153.74 441.627 151.966C440.53 150.361 440.53 150.192 438.757 149.939C437.323 149.685 435.719 150.108 434.2 149.854C432.681 149.601 428.546 148.334 429.474 145.884C430.351 145.53 431.197 145.107 432.006 144.617C432.597 143.941 432.766 142.59 433.103 141.745C434.031 139.211 434.369 137.521 433.356 134.818C431.753 130.764 425.423 129.581 421.457 130.932C420.552 131.274 419.73 131.805 419.046 132.49C418.363 133.174 417.832 133.997 417.49 134.903C416.9 136.085 416.815 137.69 416.056 138.704C414.959 140.224 414.874 140.056 412.596 139.802C409.726 139.464 407.363 138.366 404.578 137.606C401.625 136.761 399.684 138.451 397.067 139.887C392.341 142.421 387.784 143.265 382.552 143.688C376.644 144.11 371.243 142.674 365.42 142.336C366.939 149.263 370.821 154.923 373.944 161.258C374.45 162.356 375.379 163.539 375.379 164.806C375.379 165.989 373.691 167.678 373.859 168.692C374.281 170.804 379.007 172.493 380.78 173.169C385.843 174.858 391.497 178.153 397.067 176.886C400.106 176.125 401.709 171.395 404.578 170.973C408.376 170.466 405.507 175.45 404.832 177.139C410.736 177.888 416.732 177.311 422.385 175.45C424.882 174.461 427.283 173.245 429.559 171.817C432.512 169.79 433.188 169.283 434.453 166.073ZM339.343 269.721C329.638 269.89 319.848 268.454 310.143 269.805C307.864 270.143 305.67 270.566 303.476 271.073C301.872 271.41 296.809 271.748 295.796 272.931C294.868 274.029 294.784 279.013 294.615 280.365C294.193 283.49 294.277 284.588 296.303 286.953C302.801 294.894 309.637 302.581 316.05 310.606C322.211 318.293 327.275 326.909 333.604 334.512C336.98 324.797 337.149 313.14 338.077 302.919C338.583 297.513 339.005 292.022 339.427 286.616C339.68 281.378 341.031 274.62 339.343 269.721ZM213.935 372.186C215.032 372.186 216.805 372.524 217.902 372.186C219.421 372.693 219.927 372.102 219.421 370.497C219.421 369.906 219.505 369.399 219.505 368.807C219.674 365.175 219.843 361.543 220.012 357.995C220.18 354.7 220.349 351.406 220.434 348.112C220.518 345.831 221.699 340.256 220.771 338.228C220.18 336.877 218.746 337.13 216.973 336.961C215.286 336.792 213.598 336.623 211.91 336.37C209.8 336.032 207.437 335.272 205.327 335.779C203.133 336.285 201.614 338.228 199.926 339.495C197.226 341.523 194.525 343.466 191.824 345.409L177.14 356.305C175.115 357.826 174.777 357.319 175.705 359.431C176.296 360.783 177.731 362.303 178.575 363.486C180.263 365.935 181.95 369.568 184.06 371.511C187.183 374.383 195.875 372.524 200.011 372.524C204.652 372.524 209.209 372.609 213.935 372.186ZM226.172 371.933C230.307 371.511 234.443 371.679 238.494 371.173C242.966 370.581 247.355 369.652 251.743 368.976C256.132 368.301 269.634 365.597 268.284 359.009C266.85 351.997 256.554 347.858 250.899 345.493C242.038 341.861 232.755 339.833 223.387 337.806C222.206 344.057 222.375 350.815 222.206 357.15C222.121 360.614 221.953 364.077 221.953 367.456C221.953 368.301 221.699 369.99 222.037 370.75C222.797 372.609 223.725 371.933 226.172 371.933ZM212.669 374.974H186.423C190.305 382.999 194.019 391.193 198.154 399.133C202.289 406.989 207.69 414.423 212.416 421.941C213.598 420.674 215.539 419.238 216.298 417.633C217.227 415.943 217.142 413.409 217.311 411.382C217.733 406.229 217.902 400.991 217.986 395.839C218.071 391.277 218.324 386.8 218.661 382.323C218.746 381.309 219.843 376.157 219.168 375.312C218.746 374.552 213.767 374.974 212.669 374.974ZM320.776 217.01C325.165 217.01 329.638 216.926 334.026 217.01C338.077 217.095 343.309 216.419 346.938 218.446C354.449 222.67 339.427 233.482 336.389 236.185C341.284 237.959 348.964 234.411 353.774 232.806C359.681 230.779 365.758 229.428 371.834 227.907C373.353 227.485 379.851 226.724 380.695 225.626C381.539 224.444 379.683 217.517 379.514 216.081C379.345 214.729 379.514 212.533 378.923 211.266C379.261 209.745 378.754 209.154 377.32 209.661H375.801C372.087 209.661 368.374 209.83 364.745 209.999C352.086 210.421 339.68 211.013 327.106 212.955C321.283 213.885 315.375 214.983 309.552 216.165C304.657 217.095 305.501 217.939 310.059 217.939C313.603 217.77 317.148 217.264 320.776 217.01ZM684.425 123.668C685.184 122.823 685.944 121.894 686.703 121.049C684.847 120.542 682.99 120.036 681.218 119.444C679.277 118.853 678.18 119.022 679.108 116.826C680.205 114.122 685.184 113.785 687.547 113.7C695.733 113.362 704.426 115.981 712.19 118.262C715.813 119.378 719.212 121.122 722.232 123.414C723.755 124.361 725.195 125.434 726.536 126.624C727.802 127.891 728.309 129.496 729.575 130.764C731.6 132.875 734.216 133.889 735.229 136.846C736.41 140.309 734.976 144.195 733.288 147.236C731.516 150.277 728.984 152.557 726.874 155.345C725.186 157.541 721.726 163.539 727.127 162.863C729.997 162.525 733.71 157.626 735.735 155.683C738.689 152.895 741.558 150.023 744.765 147.405C747.55 145.124 750.757 142.759 754.471 142.336C758.353 141.914 760.294 144.448 762.235 147.489C764.007 150.361 764.344 153.149 765.61 156.105C766.201 157.541 766.961 158.302 767.383 159.822C767.973 162.187 767.973 164.806 768.311 167.256C768.733 171.057 769.155 174.098 768.395 177.815C767.72 181.278 767.551 184.995 766.961 188.543C766.285 192.597 765.779 196.568 765.104 200.622C764.513 204.001 762.488 208.901 764.513 212.026C769.408 219.629 775.315 208.394 776.919 204.255C779.62 196.906 781.054 188.881 783.502 181.363C784.828 177.358 785.872 173.265 786.624 169.114C787.215 165.651 786.962 161.512 788.818 158.386C790.253 156.021 792.869 154.162 795.739 154.923C799.283 155.852 800.718 161.005 801.73 164.13C804.515 172.409 803.503 179.927 802.321 188.374C801.887 192.292 801.239 196.184 800.38 200.031C799.789 202.65 797.258 207.887 800.971 209.323C806.288 211.35 811.857 196.145 813.377 192.682C817.343 183.728 818.862 174.774 820.466 165.144C820.803 162.948 821.141 160.667 821.647 158.471C822.153 156.612 823.588 154.669 823.757 152.726C823.926 150.868 822.66 149.516 823.926 147.658C825.023 146.138 826.964 146.053 828.652 145.969C832.787 145.969 836.669 147.743 840.467 149.01C844.011 150.192 849.243 152.895 853.126 152.051C841.142 139.802 829.158 127.723 814.811 118.262C808.234 113.76 801.385 109.669 794.304 106.013C787.046 102.381 778.691 99.931 770.843 97.7347C766.623 96.5521 762.403 95.2006 758.184 93.7645C754.47 92.4974 750.673 92.3285 747.044 90.8925C739.111 87.8514 730.25 86.6688 721.979 84.557C718.35 83.6278 714.722 82.7831 711.008 81.9384C707.211 81.0092 701.81 79.4042 697.927 79.5731C694.636 79.7421 693.455 83.5433 691.851 86.162C689.548 90.0269 687.49 94.0332 685.69 98.1571C681.977 106.604 678.011 115.305 675.31 124.09C673.875 128.905 672.356 133.72 670.922 138.619C669.656 142.843 666.533 148.841 667.377 153.149C673.706 143.71 679.4 133.862 684.425 123.668ZM397.911 209.408C394.62 209.576 391.413 209.745 388.122 209.83C391.413 220.558 390.907 231.962 390.907 243.028C406.097 241.254 421.457 240.916 436.732 241.085C433.947 235.679 435.044 228.583 435.804 222.839C436.325 219.486 436.551 216.094 436.479 212.702C436.394 209.492 437.323 206.789 433.947 205.775C431.247 205.015 429.559 206.282 426.942 206.873C423.82 207.634 420.529 207.718 417.322 208.056C410.884 208.89 404.402 209.342 397.911 209.408ZM310.227 230.272C320.017 227.569 330.482 228.583 340.271 226.471C337.993 224.444 333.773 225.626 330.819 225.795L320.692 226.302C317.401 226.471 308.202 226.218 307.02 230.441C308.118 230.357 309.215 230.272 310.227 230.272ZM668.981 78.475C656.153 79.5731 642.735 79.4042 629.991 81.6849C615.391 84.2191 600.201 85.8241 586.023 90.3856C572.182 94.8627 558.004 97.9037 544.333 103.141C531.086 108.033 518.174 113.789 505.681 120.373C499.52 123.668 493.613 127.216 487.705 131.017C481.966 134.734 475.721 137.775 470.236 141.745C465.47 145.031 460.982 148.704 456.817 152.726C452.26 157.288 447.787 162.018 443.146 166.664C439.348 170.466 441.711 179.842 441.964 184.91C442.302 192.006 442.893 198.933 443.737 205.944C444.581 212.618 445.424 219.798 444.327 226.471C443.905 229.259 442.302 234.158 443.061 236.946C443.652 239.226 447.619 240.831 449.728 241.592C452.26 242.521 454.792 242.098 457.324 243.281C460.193 244.548 462.556 246.153 465.594 246.829C469.466 247.76 473.428 248.27 477.409 248.349C480.954 248.349 484.498 249.532 488.043 250.208C493.781 251.39 499.436 251.728 499.098 258.655C498.676 266.68 495.469 273.607 493.613 281.209C496.144 281.209 498.001 281.378 500.28 280.449C502.98 279.351 505.934 279.097 508.803 278.675C515.133 277.661 521.378 277.324 527.792 276.732C539.522 275.55 551.422 275.719 563.152 275.803C569.254 275.858 575.345 276.338 581.381 277.239C587.373 278.168 593.618 278.76 599.441 280.618C604.336 282.138 609.399 283.237 614.463 284.588C616.742 285.18 619.442 285.686 621.552 286.362C624.675 287.376 626.278 289.488 629.907 289.403C628.894 282.814 626.531 276.648 625.097 270.059C623.577 263.217 620.624 257.135 617.332 250.63C615.898 247.758 614.801 244.717 613.366 241.761C611.762 238.551 609.568 235.847 607.712 232.806C603.83 226.64 599.694 220.642 595.897 214.391C592.605 208.985 588.808 203.748 585.179 198.511C581.212 192.766 575.642 188.374 571.085 183.052C569.249 180.82 567.276 178.704 565.178 176.717C563.237 174.858 560.367 170.635 557.414 170.466C555.641 170.381 552.688 171.31 551 171.817C547.962 172.831 544.67 173.422 541.548 174.267C538.088 175.196 534.712 176.463 531.167 177.308C529.817 177.646 528.129 177.477 526.779 177.899C525.429 178.322 524.332 179.251 522.813 179.673C515.386 181.785 507.959 184.15 500.533 186.093C492.853 188.036 485.005 189.725 477.494 192.597C476.059 193.104 474.456 194.371 473.358 193.527C472.914 193.096 472.582 192.562 472.391 191.973C472.2 191.385 472.155 190.758 472.261 190.148C472.936 186.769 478.422 185.502 481.038 184.15C487.958 180.658 495.157 177.748 502.558 175.45C506.272 174.267 509.985 172.915 513.698 171.902C516.821 171.057 520.112 169.536 523.319 169.114C526.188 168.692 528.214 167.594 531.083 166.58C535.303 165.144 539.607 163.877 543.826 162.61C551.084 160.498 558.764 159.569 566.275 158.133C583.65 154.753 601.321 153.14 619.02 153.318C627.881 153.402 637.165 153.149 645.941 154.585C648.051 154.923 652.524 154.838 653.959 156.781C654.718 157.795 654.296 159.315 654.55 160.413C654.887 162.272 655.9 163.117 656.744 164.806C658.6 155.598 660.795 146.644 663.158 137.606C665.352 129.412 667.377 121.049 670.247 113.024C673.369 104.493 677.082 95.454 681.724 87.598C682.652 85.993 685.015 83.4589 685.268 81.6005C685.437 79.7421 682.905 78.306 681.049 78.1371C677.251 77.5458 672.947 78.306 668.981 78.475ZM755.23 209.745C756.496 196.99 760.378 183.643 758.184 170.888C757.255 165.482 756.58 160.329 753.88 155.43C752.529 152.98 751.939 151.121 749.322 152.557C746.706 153.994 744.259 157.71 742.065 159.822C738.014 163.708 733.794 167.678 728.984 170.55C725.186 172.831 717.675 174.943 714.806 170.043C712.105 165.397 715.734 158.808 718.35 155.007C721.304 150.615 726.958 146.475 723.836 141.069C722.486 138.704 720.545 138.113 718.435 136.592C716.663 135.241 715.143 133.551 713.371 132.2C708.223 128.229 702.485 126.624 696.493 124.344C693.708 123.33 693.37 122.316 691.767 124.682C689.994 127.3 689.066 130.848 687.8 133.72C685.377 139.402 682.557 144.907 679.361 150.192C676.07 155.598 673.2 161.174 670.162 166.664C668.981 168.692 667.884 170.804 666.533 172.746C665.7 173.732 664.938 174.777 664.255 175.872C663.326 177.561 663.748 179.166 663.158 180.856C660.71 188.205 657.25 177.984 656.575 175.534C655.815 172.831 653.959 170.719 652.777 168.1C651.765 165.989 651.089 162.863 648.726 161.934C646.785 161.089 644.254 162.272 642.228 162.356C638.515 162.525 634.886 162.272 631.173 162.525C627.713 162.779 624.253 163.032 620.877 163.285C617.417 163.539 613.957 162.948 610.581 163.285C604.505 163.961 598.26 163.792 592.099 164.722C584.926 165.82 577.837 166.918 570.663 167.763C572.351 170.888 575.811 172.324 578.512 174.52C580.959 176.548 582.9 178.828 585.347 180.771C587.879 182.714 589.314 185.586 591.424 187.952C593.444 190.087 595.332 192.344 597.078 194.709C605.602 207.042 614.463 218.953 621.552 232.3C625.234 239.118 628.394 246.206 631.004 253.502C633.62 261.274 634.886 269.637 636.49 277.661C637.249 281.632 637.671 285.095 636.827 289.065C636.574 289.994 636.405 291.008 636.152 291.937C635.392 293.12 635.646 293.796 636.996 294.134C637.755 295.232 638.768 295.654 638.852 297.175C638.871 297.789 638.734 298.398 638.453 298.944C638.173 299.491 637.759 299.957 637.249 300.3C635.308 301.567 635.308 299.878 633.367 300.216C632.607 300.638 631.932 300.976 631.173 301.398C630.751 300.807 630.413 300.216 629.991 299.624C628.725 298.442 627.713 298.526 626.109 298.273C626.953 307.903 625.603 316.434 623.493 325.811C622.48 330.288 620.708 334.765 619.864 339.242C618.851 344.31 621.046 346.591 624.337 349.97C623.266 350.387 622.247 350.925 621.299 351.575C620.202 352.589 620.455 352.758 620.455 354.363C620.326 357.339 619.988 360.303 619.442 363.232C618.598 368.723 617.754 374.383 615.898 379.535C612.522 388.996 606.952 398.88 601.382 407.242C598.26 411.888 595.053 417.21 591.171 421.265C587.204 425.32 583.322 429.374 579.356 433.513C571.592 441.538 563.068 447.029 553.785 453.027C549.974 455.335 546.386 457.994 543.067 460.967C539.86 464.008 535.556 466.035 531.674 468.232C529.986 469.245 528.72 470.597 526.863 471.442C525.345 471.955 523.876 472.605 522.475 473.385C518.82 475.841 514.95 477.961 510.913 479.72C506.018 482.001 501.292 484.535 496.229 486.478C493.95 487.323 491.84 488.336 489.562 489.35C487.199 490.448 484.583 491.208 482.135 492.391C480.097 493.29 478.012 494.079 475.89 494.756C474.202 495.432 472.852 496.53 471.08 497.206C467.451 498.642 464.16 499.402 460.615 501.092C455.889 503.372 450.319 504.386 445.424 505.991C439.855 507.765 434.116 509.623 428.462 510.89C426.135 511.427 423.85 512.133 421.626 513.002C420.107 513.509 418.334 513.847 416.647 514.354C412.005 515.79 407.363 517.141 402.637 518.324C393.523 520.689 384.155 523.477 375.294 526.687C370.653 528.376 365.927 530.404 361.454 532.515C356.39 534.965 350.989 536.317 345.925 538.682C336.136 543.328 326.431 548.058 316.726 552.873C311.662 555.407 306.683 558.026 301.704 560.814C299.931 561.827 297.906 562.25 296.134 563.179C293.771 564.446 291.914 566.389 289.467 567.656C280.268 572.555 270.816 577.201 262.377 583.452C257.988 586.747 253.178 590.041 249.38 594.011C248.114 595.363 245.92 597.39 245.667 599.249C245.329 602.036 245.667 599.502 246.595 601.192C247.946 601.361 248.283 601.867 247.524 602.712C247.375 602.905 247.183 603.059 246.963 603.162C246.742 603.265 246.501 603.313 246.258 603.303C244.57 603.641 241.363 601.867 240.013 601.107C237.65 599.84 236.384 598.151 234.865 595.954C231.573 591.224 228.366 586.409 224.906 581.678C221.868 577.455 218.83 572.809 215.37 568.923C213.007 566.304 212.838 567.403 210.222 568.923C208.281 570.021 206.002 570.528 203.977 571.542C196.297 575.512 187.774 578.384 179.841 581.172C178.068 581.763 177.056 582.777 175.452 583.706C173.427 584.804 170.895 585.311 168.701 586.155C162.793 588.352 156.801 590.548 150.894 592.829C146.337 594.603 141.948 595.954 138.404 599.249C136.969 600.516 135.281 601.445 133.762 602.797C132.074 604.317 129.711 606.767 127.602 607.611L126.251 608.625C125.323 608.034 124.479 607.358 123.551 606.767C122.707 606.175 121.778 605.584 120.935 604.908C118.74 603.388 116.546 601.783 114.352 600.262C109.373 596.714 104.394 593.251 99.752 589.281C91.5659 582.185 82.9579 575.512 74.3498 568.839C65.3198 561.912 56.5429 554.563 47.1754 548.058C38.7361 542.145 29.4529 537.161 21.2668 530.826C17.1316 527.7 12.9963 524.49 8.77668 521.449C7.49343 520.673 6.2538 519.827 5.06341 518.915C4.97901 518.493 6.16051 517.395 6.49808 516.972C8.10154 515.283 9.7894 513.762 11.3929 511.988C18.735 503.879 28.2714 504.217 38.3985 503.795C42.9557 503.626 47.9349 505.738 52.3233 507.174C57.64 508.947 62.788 511.482 67.936 513.762C78.5694 518.324 89.4561 522.294 100.174 526.602C104.394 528.292 108.613 529.136 112.833 530.235C117.137 531.417 121.61 530.319 126.336 530.404C128.783 530.488 131.062 530.572 133.425 530.488C134.859 530.404 136.547 530.15 137.982 530.15C139.163 530.15 140.345 530.657 141.358 530.488C145.999 529.981 150.894 529.221 155.704 528.63C160.43 528.038 165.41 527.7 170.051 526.771C172.42 526.253 174.758 525.604 177.056 524.828C178.997 524.153 182.626 523.308 184.229 521.956C185.664 520.689 185.073 520.689 184.229 518.577C183.892 517.733 183.554 516.55 183.132 515.705C181.866 513.594 180.6 512.918 181.36 510.299C182.71 505.653 187.183 502.612 190.98 500.331C199.589 495.178 207.521 488.505 216.636 484.112C235.371 475.074 252.418 463.248 270.732 453.28C290.817 442.299 309.805 429.459 330.228 418.984C349.217 409.27 368.036 399.387 387.194 389.926C396.561 385.28 407.11 381.056 415.549 375.058C410.823 374.467 406.182 373.707 401.456 373.284C399.262 373.116 397.067 373.284 394.873 372.947C392.426 372.524 390.147 371.595 387.7 371.173C383.565 370.497 379.767 369.061 375.632 368.47C371.159 367.878 366.77 366.611 362.298 366.189C352.93 365.428 344.406 361.965 336.136 357.573C334.111 356.474 332.423 357.15 330.482 356.39C329.385 355.968 328.287 354.363 327.021 353.518C323.73 351.153 320.861 348.281 317.654 345.662C310.987 360.614 297.906 370.75 285.5 380.803C279.171 385.871 272.335 390.179 265.921 395.163C261.273 398.963 256.367 402.435 251.237 405.553C246.173 408.51 241.363 412.48 236.553 416.028C233.261 418.393 229.464 420.251 225.919 422.363C223.05 424.052 217.48 426.587 216.72 429.712C216.045 432.246 217.311 435.203 213.513 434.105C210.053 433.091 207.606 429.205 205.58 426.502C200.432 419.491 195.538 412.311 190.727 405.046C188.111 410.115 183.638 413.747 179.587 417.464C177.056 419.744 174.44 421.856 171.739 423.884C170.389 424.897 169.123 425.826 167.773 426.84C167.048 427.278 166.37 427.787 165.747 428.361C164.988 429.628 165.41 429.036 165.578 430.641C165.747 433.091 166.591 434.949 165.241 437.315C163.975 439.511 161.105 440.44 159.164 441.876C154.523 445.424 149.544 449.225 144.396 451.928C143.225 452.494 142.097 453.143 141.02 453.871C139.163 455.138 139.501 455.645 137.644 454.378C134.775 452.435 132.243 449.225 129.627 446.945C124.141 442.045 118.656 437.315 113.086 432.584C102.453 423.63 91.4815 415.098 80.9324 405.891C70.8897 397.19 60.1718 389.757 49.8759 381.478C47.0066 379.198 44.2216 376.917 41.4367 374.552C38.9893 372.524 34.9384 370.243 33.0818 367.625C30.3812 363.824 40.8459 358.586 44.0528 357.826C49.454 356.474 56.5429 357.235 61.9441 358.333C67.6828 359.515 73.5059 363.317 78.8226 365.766C84.8145 368.47 90.9752 370.835 97.0514 373.369C99.752 374.467 102.621 375.396 105.153 376.917C107.854 378.522 110.217 380.38 113.002 381.732C116.287 383.348 119.669 384.759 123.129 385.955C124.709 386.555 126.351 386.98 128.024 387.222C130.302 387.56 130.049 386.462 131.99 385.871C133.593 385.364 134.015 386.716 135.45 387.053C136.074 387.203 136.722 387.212 137.35 387.081C137.977 386.949 138.568 386.68 139.079 386.293C141.78 384.604 144.143 382.323 146.843 380.634C149.291 379.029 152.075 377.508 154.354 375.734C155.367 374.889 156.126 373.791 157.139 373.031C158.742 371.679 159.418 372.271 161.359 371.342C162.962 370.581 164.312 369.23 165.831 368.301C166.76 367.709 168.954 367.033 169.545 366.104C171.148 363.655 168.448 362.05 166.085 362.725C165.747 360.614 163.89 355.714 164.65 353.771C165.325 352.082 167.182 352.335 168.785 351.491C174.608 348.027 178.912 341.776 184.398 337.721C189.546 333.92 194.103 329.359 199.167 325.473C203.555 322.178 208.281 318.884 212.247 315.336C216.973 311.113 222.965 307.818 228.029 304.017C233.261 300.131 238.24 295.739 243.388 291.768C248.368 287.967 253.347 283.997 258.495 280.365C263.136 277.07 267.947 274.114 272.504 270.819C275 269.007 277.689 267.477 280.521 266.258C283.306 265.075 285.838 263.723 288.538 262.456C294.443 259.874 300.702 258.194 307.105 257.472C313.653 256.585 320.246 256.077 326.853 255.952C330.397 255.952 333.773 256.628 337.317 256.797C340.524 256.966 343.984 257.81 347.191 257.726C348.626 257.641 349.892 257.05 351.327 257.304C352.508 257.472 353.521 258.148 354.787 258.317C357.572 258.571 360.357 258.317 363.226 258.655C369.724 259.5 376.222 260.682 382.721 261.358C389.641 262.034 396.477 262.203 403.397 263.386C410.148 264.568 416.9 265.751 423.567 267.102C437.829 269.974 452.176 272.678 466.185 276.901C469.478 277.821 472.718 278.921 475.89 280.196C477.371 280.929 478.893 281.578 480.447 282.138C482.726 282.814 483.148 283.068 484.329 281.209C486.355 277.915 487.452 273.522 488.971 269.974C490.406 266.427 492.178 262.879 493.022 259.162C490.575 258.74 487.452 259.5 485.005 259.584C481.882 259.669 478.844 259.584 475.806 259.584C469.561 259.584 464.75 257.726 458.843 255.783C453.864 254.178 447.281 253.249 443.483 249.532C441.458 247.505 440.783 247.167 437.745 247.505C434.707 247.843 431.668 248.518 428.546 248.603C416.815 249.025 405.169 251.053 393.439 251.475C390.232 251.559 382.299 253.08 382.805 247.674C382.889 246.576 383.733 245.562 383.902 244.464C383.958 243.215 383.844 241.965 383.565 240.747C383.143 237.875 382.636 235.003 382.13 232.215C371.412 235.679 360.61 238.466 349.639 241.169C345.082 242.267 337.824 244.886 333.182 243.45C328.625 242.098 331.241 235.679 332.676 232.638C323.73 234.665 314.109 238.044 304.911 238.804C302.126 239.057 299.425 239.649 298.75 236.27C298.244 233.567 300.185 230.272 301.197 227.907C294.193 227.316 286.851 227.316 288.201 218.277C289.382 209.999 296.303 208.309 303.56 206.873C312.59 205.015 321.789 204.424 330.904 202.903C338.836 201.552 347.445 200.116 355.546 200.791C359.85 201.129 364.154 201.214 368.374 201.636C370.369 201.802 372.345 202.141 374.281 202.65C376.054 203.157 378.585 204.762 380.442 204.762C383.227 204.846 386.603 201.045 389.557 200.2C393.27 199.102 397.236 198.933 401.118 198.68C405.422 198.342 409.811 198.257 414.115 197.835C415.127 197.75 418.841 198.004 419.6 197.412C420.697 196.568 420.022 192.26 419.938 190.486C419.853 188.796 420.191 185.755 419.01 185.079C417.912 184.488 414.79 185.333 413.777 185.502C409.497 186.064 405.173 186.206 400.865 185.924C398.84 185.84 396.899 186.347 394.958 186.093C392.848 185.84 390.654 185.079 388.544 184.657C383.902 183.812 379.767 182.714 375.716 180.096C372.256 177.815 368.121 176.294 366.18 172.324C364.745 169.452 364.154 163.792 368.374 162.948C365.609 158.78 363.476 154.225 362.044 149.432C361.853 148.423 361.57 147.433 361.201 146.475C359.766 143.772 361.116 146.138 359.006 145.124C357.039 144.278 355.281 143.009 353.858 141.407C351.473 138.483 350.083 134.872 349.892 131.101C349.47 125.949 348.626 120.12 349.386 114.967C350.651 106.098 357.234 99.3397 363.817 93.9335C367.446 90.9769 372.172 89.8788 376.307 88.1049C380.358 86.4154 384.915 84.557 389.219 84.2191C393.101 83.8812 396.814 82.6141 400.696 82.1073C406.013 81.4315 411.33 81.6849 416.647 81.4315C419.094 81.3471 421.541 81.0092 423.989 80.7557C425.339 80.5868 427.702 80.7557 428.968 80.2489C431.078 79.3197 429.896 81.2626 430.656 78.475C432.09 73.2377 433.188 68.3383 435.382 63.2699C437.311 58.5036 439.865 54.0154 442.977 49.9232C445.931 46.122 449.813 43.3344 453.357 40.1244C456.031 37.7446 458.88 35.5703 461.881 33.62C463.569 32.5219 465.51 31.9306 467.113 30.9169C469.079 29.7243 471.174 28.7607 473.358 28.0448C478.338 26.4398 483.317 24.7504 488.634 24.8349C494.372 24.9193 500.111 23.5678 505.596 25.2572C515.892 28.3827 520.956 39.6176 520.787 49.8388C524.332 48.994 527.37 47.2201 531.167 47.1356C534.817 46.9932 538.47 47.2767 542.054 47.9804C548.637 49.2475 555.388 52.8798 559.27 58.455C561.057 61.1055 562.175 64.1504 562.528 67.3284C562.88 70.5064 562.458 73.7225 561.296 76.7011C560.1 79.5307 558.509 82.1758 556.57 84.557C555.219 86.3309 552.181 88.2738 552.012 90.7235C577.267 83.1206 603.089 77.5557 629.232 74.0824C642.566 72.3085 655.9 73.1532 669.234 72.1395C674.973 71.7172 681.133 72.3085 687.041 72.3085C689.488 72.3085 691.429 71.9706 693.286 70.3656C695.142 68.7606 696.577 66.7333 698.687 69.0985C699.193 69.6898 699.362 71.1259 700.037 71.6327C700.881 72.1395 703.497 71.8016 704.594 71.8861C708.284 72.1663 711.95 72.7026 715.565 73.4911C722.232 74.8427 728.899 76.1942 735.482 77.8837C748.057 81.0936 760.462 84.2191 772.784 88.0204C785.443 91.9061 798.186 96.7211 809.832 103.057C815.559 106.216 821.057 109.773 826.289 113.7C828.663 115.431 830.892 117.352 832.956 119.444C835.234 121.725 837.935 123.245 840.129 125.526C844.939 130.51 849.75 135.747 854.138 141.154C856.417 143.941 858.527 146.898 860.552 149.939C861.987 152.051 865.784 155.852 864.856 158.555C864.616 159.273 864.126 159.882 863.475 160.269C862.825 160.657 862.057 160.798 861.312 160.667C860.805 160.582 860.383 159.907 859.961 159.822C858.527 159.653 859.792 159.146 858.189 159.822C854.898 161.174 853.801 163.877 849.581 163.285C842.408 162.272 835.656 158.893 829.158 155.936C827.301 163.032 827.048 170.381 825.445 177.646C823.766 184.643 821.273 191.419 818.018 197.835C815.233 203.494 811.604 209.492 806.625 213.547C802.828 216.588 793.46 220.473 790.759 213.885C789.578 211.097 791.35 206.789 791.856 203.917C792.532 200.031 793.291 196.23 793.629 192.344C793.966 189.219 794.135 186.009 794.388 182.883C794.641 180.18 795.401 174.351 793.882 171.902C792.954 170.466 792.869 171.902 792.363 173.338C791.712 175.082 791.148 176.858 790.675 178.66C789.662 182.461 788.734 186.347 787.806 190.232C786.118 197.075 784.177 203.832 780.632 209.999C777.51 215.49 773.037 221.487 766.285 222.416C762.768 222.673 759.288 221.552 756.58 219.291C754.386 216.926 755.23 212.955 755.23 209.745Z" fill="white"/>
<path fill-rule="evenodd" clip-rule="evenodd" d="M600.791 490.617C604.505 489.857 607.627 486.9 610.665 484.704C614.547 481.832 618.176 478.791 621.974 475.75C628.981 470.114 635.528 463.928 641.553 457.251C653.788 443.682 662.459 427.281 666.786 409.524C668.896 400.738 671.428 390.348 670.247 381.225C669.825 378.1 669.234 377.508 666.111 377.086C664.677 376.917 661.132 376.495 659.866 377.086C656.575 378.522 654.803 384.604 653.874 387.645C651.005 396.684 649.317 405.976 646.701 415.099C644.169 424.053 640.118 433.091 636.068 441.37C627.206 459.954 614.716 475.497 600.791 490.617ZM674.551 388.152C672.356 413.409 665.352 437.484 649.57 457.842C641.988 467.374 633.354 476.017 623.831 483.606C614.041 491.462 603.998 498.896 592.774 504.809C589.82 506.414 586.867 507.934 583.828 509.455C582.141 510.299 577.921 513.34 576.064 512.834C574.545 512.411 574.123 511.229 573.87 509.708C573.364 506.245 575.558 504.471 577.837 502.274C587.035 493.32 596.234 484.282 604.842 474.736C621.88 455.84 634.456 433.351 641.637 408.932C643.832 401.414 645.773 393.812 648.136 386.378C649.57 381.816 651.596 373.792 656.406 371.511C658.938 370.328 661.976 371.511 664.592 370.751C667.124 370.075 668.812 368.639 670.922 371.004C674.635 374.974 674.804 382.999 674.551 388.152Z" fill="white"/>
<path fill-rule="evenodd" clip-rule="evenodd" d="M3.12228 533.951C1.26564 534.627 1.18125 535.303 0.337321 533.36C0.00234139 532.296 -0.0842722 531.169 0.0841427 530.066C0.337321 527.616 1.60321 525.42 2.61592 523.223C12.4899 531.417 22.7858 538.766 33.3349 545.947C44.6435 553.634 55.4457 562.25 66.1636 570.781C75.7844 578.469 85.4895 585.818 94.9415 593.589C99.4987 597.306 104.731 600.178 109.119 604.064C112.664 607.189 118.487 608.541 121.441 612.258C116.715 615.13 110.301 617.41 105.069 614.961C99.2456 612.258 94.7727 608.71 89.6248 604.993C86.9242 603.135 84.2237 601.361 81.5231 599.587C79.1601 597.982 77.4722 595.616 75.0248 594.096C69.9613 590.886 64.7289 587.423 60.003 583.79C55.1082 580.073 49.6226 577.117 44.8967 573.147C40.0019 569.092 34.5164 566.389 29.4528 562.672C18.7349 554.732 9.28295 545.862 3.12228 533.951Z" fill="white"/>
<path fill-rule="evenodd" clip-rule="evenodd" d="M294.446 117.755C294.277 118.515 294.193 119.191 294.024 119.951C294.108 119.951 300.606 107.449 301.619 105.929C305.248 100.776 309.974 96.5521 314.531 92.2439C324.152 83.2054 335.461 75.8563 344.913 66.6488C348.035 63.6077 353.605 59.0462 352.339 53.8934C351.158 48.825 340.777 49.8387 337.233 51.2747C331.663 53.5555 327.19 58.4549 323.055 62.5941C318.582 67.1556 314.025 71.7171 310.227 76.9544C306.092 82.5296 302.21 88.6116 299.678 95.116C296.978 102.55 295.88 110.152 294.446 117.755ZM296.556 140.14C292.167 141.491 297.653 142.421 295.965 144.786C294.108 147.32 290.901 139.464 290.479 137.944C287.694 129.074 288.96 118.346 290.479 109.392C291.239 104.83 291.745 100.269 292.758 95.7918C293.771 91.3992 295.965 87.2601 297.99 83.2899C302.111 75.3055 307.37 67.9639 313.603 61.4959C319.764 54.9915 326.599 48.4871 334.701 44.5169C341.368 41.2225 352.002 43.5032 355.209 50.6834C358.415 58.0325 354.111 66.0574 348.963 71.2947C342.217 78.2034 335.028 84.6651 327.443 90.639C323.561 93.68 320.354 97.2278 316.557 100.353C312.594 103.503 309.099 107.2 306.176 111.335C303.307 115.474 300.353 119.698 298.497 124.428C296.471 129.581 296.556 134.649 296.556 140.14Z" fill="white"/>
<path fill-rule="evenodd" clip-rule="evenodd" d="M121.188 458.264C111.145 451.759 101.018 446.1 92.2409 437.822C83.5485 429.628 76.0375 420.42 66.3324 413.324C61.522 409.777 56.5428 406.482 51.8168 402.765C47.344 399.302 42.1961 396.345 38.1452 392.375C32.7441 387.138 22.617 377.255 29.5372 369.399C38.1452 379.62 49.8758 387.645 60.5937 395.416C71.9023 403.61 82.2826 413.071 93.0005 422.025C103.296 430.557 113.592 439.258 123.719 448.043C126.336 450.323 128.952 452.773 131.568 455.054C131.906 455.307 134.69 457.081 134.69 457.588C134.69 458.686 132.581 459.446 131.737 459.7C130.555 460.207 127.264 461.389 125.914 460.967C125.154 460.714 125.154 460.122 124.648 459.784C124.31 459.193 123.973 458.686 123.635 458.179C122.821 458.25 122.004 458.278 121.188 458.264Z" fill="white"/>
<path fill-rule="evenodd" clip-rule="evenodd" d="M714.299 345.071C707.126 344.902 696.155 344.902 696.577 354.701C696.746 359.6 699.446 363.148 701.556 367.287C703.888 371.573 705.459 376.232 706.198 381.056C708.898 400.907 701.641 420.251 695.142 438.582C709.236 427.263 719.363 411.466 724.68 394.149C727.334 385.083 728.278 375.601 727.465 366.189C727.043 361.796 725.439 357.911 723.498 354.025C722.486 352.082 721.557 349.801 719.954 348.281C718.435 346.591 716.24 346.084 714.299 345.071ZM689.235 449.901C684.593 442.299 691.935 430.979 694.298 423.546C697.168 414.676 699.784 405.384 701.05 396.092C702.316 386.378 700.712 378.775 696.155 370.244C692.104 362.557 689.741 352.335 694.214 344.226C695.986 340.932 698.687 340.594 701.809 339.242C705.691 337.637 706.788 334.934 711.514 335.356C720.038 336.117 723.92 344.226 727.127 351.068C734.469 367.118 732.528 387.814 726.199 403.948C722.57 413.24 718.435 422.87 712.274 430.726C709.197 434.523 705.779 438.029 702.062 441.201C698.18 444.664 694.552 448.888 689.235 449.901Z" fill="white"/>
<path fill-rule="evenodd" clip-rule="evenodd" d="M685.521 31.7617C669.402 24.4971 653.368 17.2324 637.249 9.8833C636.574 17.1479 635.899 24.4971 635.308 31.7617C635.139 33.7046 634.38 36.4077 634.717 38.3506C635.055 40.4624 634.379 40.209 637.08 39.8711C640.54 39.5332 644 38.604 647.46 38.0127C653.621 36.9145 660.204 36.5767 666.195 34.9717C669.234 34.1269 672.187 34.0425 675.31 33.5356C678.686 33.1133 682.061 32.0996 685.521 31.7617ZM631.088 45.8686C631.088 37.6748 632.017 29.5654 632.776 21.3716C633.451 14.0225 633.704 7.01123 636.152 0C638.43 4.05469 644.591 5.74414 648.473 7.77148C653.79 10.6436 659.444 12.7554 664.845 15.4585C670.162 18.0771 675.31 21.0337 680.627 23.5679C683.327 24.9194 686.112 26.102 688.813 27.4536C690.501 28.2983 694.552 29.6499 695.564 31.1704C698.771 35.8164 687.8 36.2388 685.69 36.6611C679.361 37.9282 672.947 38.604 666.702 39.8711C660.794 41.0537 654.887 42.1518 648.979 43.25C643.072 44.2637 636.996 45.8686 631.088 45.8686Z" fill="white"/>
<path fill-rule="evenodd" clip-rule="evenodd" d="M134.859 249.532C141.189 248.856 147.518 247.927 153.848 247.336C159.839 246.744 165.156 246.069 170.642 243.365C163.131 241.085 155.704 238.973 148.109 236.946C144.396 235.932 140.598 234.834 136.885 233.905C134.015 233.144 131.484 232.722 130.302 229.596C129.036 225.88 132.581 226.471 134.859 227.4C137.982 228.667 141.357 229.512 144.564 230.61C151.738 232.975 158.996 235.256 166.253 237.368C168.532 238.044 181.613 240.578 176.887 244.886C174.861 246.744 170.389 247.758 167.941 249.11C164.819 250.799 161.359 251.475 157.814 252.235C150.472 253.671 142.877 254.178 135.45 255.445C131.652 256.036 127.855 256.712 124.057 257.303C121.863 257.641 121.019 257.641 120.428 255.192C120.006 253.418 120.597 251.559 120.934 249.87C121.947 245.477 123.129 241 124.226 236.608C124.648 234.918 125.407 227.569 126.926 226.724C130.302 224.866 127.686 235.087 127.433 236.354C126.504 241.085 125.323 245.731 124.817 250.546C128.192 250.208 131.568 249.954 134.859 249.532Z" fill="white"/>
<path fill-rule="evenodd" clip-rule="evenodd" d="M224.737 287.122C226.003 290.248 223.894 291.008 221.362 292.106C218.07 293.542 214.863 295.063 211.488 296.33C204.483 299.033 197.394 301.483 190.474 304.608C177.393 310.521 164.059 316.265 151.147 322.601C147.94 324.206 144.733 325.726 141.526 327.247C138.151 328.852 134.353 331.471 130.724 332.4C127.601 333.16 127.264 330.964 129.121 328.936C131.484 326.318 135.197 324.29 138.151 322.516C150.472 314.914 163.89 308.832 177.393 303.595C193.006 297.513 208.618 291.684 224.737 287.122Z" fill="white"/>
<path fill-rule="evenodd" clip-rule="evenodd" d="M258.917 107.872C258.495 98.2417 259.76 88.6118 259.001 79.0664C245.836 90.7236 252.334 108.801 259.929 121.472L258.917 107.872ZM264.655 107.28C264.881 111.952 264.852 116.634 264.571 121.303C264.064 126.202 266.427 128.736 269.381 132.369C266.849 134.987 261.026 128.905 259.423 127.131C256.132 123.499 253.6 118.6 251.406 114.207C246.764 104.831 243.473 94.8628 247.27 84.5571C248.621 80.7559 250.393 75.603 254.022 73.3223C258.073 70.8726 261.111 74.3359 262.799 77.8838C266.849 86.5845 263.727 98.0727 264.655 107.28Z" fill="white"/>
<path fill-rule="evenodd" clip-rule="evenodd" d="M404.072 584.888C410.148 585.395 416.14 585.818 422.216 586.24C421.204 577.877 420.107 569.599 419.094 561.236C415.549 562.081 412.089 562.841 408.545 563.686C406.857 564.108 404.325 564.193 402.89 565.037C402.319 565.138 401.755 565.279 401.203 565.46V568.67C401.203 571.88 401.034 575.089 400.949 578.299C400.865 579.651 400.443 581.594 400.781 582.945C400.19 584.297 400.612 584.888 401.878 584.635C402.553 584.719 403.312 584.804 404.072 584.888ZM399.852 590.97C395.126 588.605 396.392 581.34 396.392 576.779C396.392 573.822 396.645 570.95 396.645 567.994C396.73 565.966 396.223 563.517 396.899 561.574C398.164 558.111 404.156 558.195 407.279 558.448C409.472 558.589 411.673 558.56 413.861 558.364C415.043 558.279 416.309 558.533 417.49 558.195C418.34 557.683 419.158 557.119 419.938 556.505C424.073 556.674 424.157 566.642 424.411 569.176C425.086 575.427 425.676 581.678 426.267 587.929C426.436 589.619 427.027 591.477 425.423 592.406C423.989 593.251 420.275 592.406 418.672 592.406C412.427 592.068 406.097 591.055 399.852 590.97Z" fill="white"/>
<path fill-rule="evenodd" clip-rule="evenodd" d="M696.83 219.798C699.615 222.248 698.265 224.866 697.337 227.907C696.83 229.766 693.792 235.848 694.636 237.622C695.564 239.649 700.037 240.156 701.978 240.747C705.333 241.764 708.606 243.035 711.768 244.548C713.202 245.224 718.182 246.829 719.11 248.096C719.388 248.399 719.568 248.778 719.629 249.185C719.689 249.591 719.626 250.007 719.448 250.377C718.772 252.066 717.675 251.137 715.987 250.799C708.055 249.194 700.206 247.083 692.779 243.619C690.754 248.35 688.982 253.249 687.21 258.149C686.703 259.585 686.197 262.879 684.256 263.048C681.893 263.301 681.893 260.176 682.062 258.486C682.315 256.037 683.581 253.334 684.34 250.968C685.015 249.025 687.21 244.971 686.956 242.943C686.788 241.592 685.944 241.676 684.425 241.085C682.99 240.578 681.555 240.071 680.205 239.565C677.926 238.72 675.648 237.875 673.453 236.946C672.272 236.439 669.74 235.763 668.812 234.665C668.306 233.989 667.715 231.709 668.39 231.033C669.909 229.512 679.867 233.567 681.893 234.158C683.243 234.496 684.593 234.834 685.944 235.256C686.45 235.425 687.041 236.186 687.547 236.186C689.826 236.27 689.995 234.496 690.754 232.638C692.452 228.21 694.483 223.918 696.83 219.798Z" fill="white"/>
<path fill-rule="evenodd" clip-rule="evenodd" d="M124.31 307.48C123.044 304.439 136.041 300.807 138.488 299.793C144.396 297.343 150.725 295.823 156.801 293.965C162.793 292.106 168.785 290.079 174.693 287.967C176.549 287.291 189.63 280.871 190.305 281.801C192.584 284.926 164.987 294.64 162.371 295.57C149.881 300.216 136.969 303.594 124.31 307.48Z" fill="white"/>
<path fill-rule="evenodd" clip-rule="evenodd" d="M683.328 72.562C679.952 72.562 675.057 73.5757 672.019 72.2241C675.817 72.3086 679.614 72.393 683.328 72.562Z" fill="white"/>
<path fill-rule="evenodd" clip-rule="evenodd" d="M600.791 163.961H606.108C604.251 163.877 602.564 163.877 600.791 163.961Z" fill="white"/>
<path fill-rule="evenodd" clip-rule="evenodd" d="M407.363 558.364C405.507 558.533 403.65 558.617 401.709 558.786C403.565 558.617 405.507 558.449 407.363 558.364Z" fill="white"/>
<path fill-rule="evenodd" clip-rule="evenodd" d="M417.912 197.919C415.971 198.088 414.115 198.257 412.174 198.426C414.115 198.173 416.056 198.004 417.912 197.919Z" fill="white"/>
<path fill-rule="evenodd" clip-rule="evenodd" d="M417.828 81.8541H412.764C413.561 81.4991 414.424 81.3156 415.296 81.3156C416.168 81.3156 417.031 81.4991 417.828 81.8541Z" fill="white"/>
<path fill-rule="evenodd" clip-rule="evenodd" d="M111.905 371.933C110.47 371.848 109.373 372.524 108.613 371.173C109.879 370.244 110.639 371.426 111.905 371.933Z" fill="white"/>
<path fill-rule="evenodd" clip-rule="evenodd" d="M399.852 590.97C400.781 590.97 401.793 591.055 402.722 591.055C401.793 590.971 400.865 590.97 399.852 590.97Z" fill="white"/>
<path fill-rule="evenodd" clip-rule="evenodd" d="M623.155 75.2652C621.636 75.4341 620.117 75.5186 618.683 75.6876C620.202 75.5186 621.636 75.4341 623.155 75.2652Z" fill="white"/>
<path fill-rule="evenodd" clip-rule="evenodd" d="M399.768 199.102C398.333 199.271 396.814 199.356 395.379 199.525C396.814 199.356 398.249 199.187 399.768 199.102Z" fill="white"/>
<path fill-rule="evenodd" clip-rule="evenodd" d="M358.584 201.467C357.15 201.298 355.715 201.129 354.196 200.96C355.715 201.214 357.318 200.116 358.584 201.467Z" fill="white"/>
<path fill-rule="evenodd" clip-rule="evenodd" d="M489.984 259.753C491.011 259.543 492.059 259.458 493.106 259.5C492.937 260.007 490.321 259.753 489.984 259.753Z" fill="white"/>
<path fill-rule="evenodd" clip-rule="evenodd" d="M397.996 373.622C399.008 373.622 399.937 373.622 400.865 373.707C399.937 373.707 398.924 373.707 397.996 373.622Z" fill="white"/>
<path fill-rule="evenodd" clip-rule="evenodd" d="M310.058 257.642C308.624 257.81 307.189 257.895 305.754 258.064C307.273 257.895 308.708 257.81 310.058 257.642Z" fill="white"/>
<path fill-rule="evenodd" clip-rule="evenodd" d="M150.978 252.827C151.738 252.827 152.497 252.911 153.257 252.911C152.5 252.841 151.739 252.813 150.978 252.827Z" fill="white"/>
<path fill-rule="evenodd" clip-rule="evenodd" d="M360.441 258.74C359.259 258.74 357.993 258.655 356.812 258.655C357.993 258.655 359.175 258.74 360.441 258.74Z" fill="white"/>
<path fill-rule="evenodd" clip-rule="evenodd" d="M134.859 249.532C133.593 249.701 132.412 249.87 131.146 249.954C132.412 249.786 133.593 249.701 134.859 249.532Z" fill="white"/>
<path fill-rule="evenodd" clip-rule="evenodd" d="M303.391 239.057C304.151 239.057 304.91 239.142 305.67 239.142C304.909 239.156 304.148 239.128 303.391 239.057Z" fill="white"/>
<path fill-rule="evenodd" clip-rule="evenodd" d="M361.285 366.865C362.044 366.78 362.804 366.78 363.563 366.696C362.801 366.71 362.041 366.766 361.285 366.865Z" fill="white"/>
<path fill-rule="evenodd" clip-rule="evenodd" d="M420.275 266.764C419.009 266.595 417.828 266.427 416.562 266.342C417.744 266.511 419.009 266.595 420.275 266.764Z" fill="white"/>
<path fill-rule="evenodd" clip-rule="evenodd" d="M55.1925 358.249C53.9266 358.08 52.6607 357.995 51.3105 357.826C52.6607 357.995 53.9266 358.164 55.1925 358.249Z" fill="white"/>
<path fill-rule="evenodd" clip-rule="evenodd" d="M27.8492 504.724C26.5834 504.893 25.3175 504.977 24.0516 505.146C25.3175 505.062 26.5834 504.893 27.8492 504.724Z" fill="white"/>
<path fill-rule="evenodd" clip-rule="evenodd" d="M155.957 529.052C154.692 529.221 153.426 529.305 152.16 529.474C153.426 529.305 154.692 529.136 155.957 529.052Z" fill="white"/>
<path fill-rule="evenodd" clip-rule="evenodd" d="M143.551 530.319C143.005 530.77 142.319 531.016 141.61 531.016C140.902 531.016 140.216 530.77 139.669 530.319H143.551Z" fill="white"/>
<path fill-rule="evenodd" clip-rule="evenodd" d="M264.655 107.28C264.571 106.182 264.402 105.084 264.318 103.986C264.402 105.084 264.486 106.182 264.655 107.28Z" fill="white"/>
<path fill-rule="evenodd" clip-rule="evenodd" d="M400.359 82.6986C399.093 82.8676 397.827 83.0365 396.645 83.121C397.911 82.952 399.093 82.7831 400.359 82.6986Z" fill="white"/>
<path fill-rule="evenodd" clip-rule="evenodd" d="M404.832 82.1076C403.566 82.2765 402.3 82.361 401.034 82.5299C402.215 82.361 403.566 82.192 404.832 82.1076Z" fill="white"/>
<path fill-rule="evenodd" clip-rule="evenodd" d="M320.776 217.01C324.873 216.208 329.086 216.208 333.182 217.01L320.776 217.01Z" fill="white"/>
<path fill-rule="evenodd" clip-rule="evenodd" d="M431.246 170.297C432.09 168.016 432.343 167.171 434.453 165.989C433.609 168.185 433.44 169.368 431.246 170.297Z" fill="white"/>
<path fill-rule="evenodd" clip-rule="evenodd" d="M682.652 77.9682C680.795 78.0527 678.939 78.0527 676.998 78.1372C678.939 78.0527 680.795 77.9682 682.652 77.9682Z" fill="white"/>
<path fill-rule="evenodd" clip-rule="evenodd" d="M203.133 372.524H208.787C206.931 372.609 204.99 372.609 203.133 372.524Z" fill="white"/>
<path fill-rule="evenodd" clip-rule="evenodd" d="M226.172 371.933C227.691 371.764 229.126 371.679 230.645 371.51C229.126 371.679 227.691 371.848 226.172 371.933Z" fill="white"/>
<path fill-rule="evenodd" clip-rule="evenodd" d="M193.934 372.609C195.369 372.609 196.803 372.524 198.323 372.524C196.803 372.609 195.369 372.609 193.934 372.609Z" fill="white"/>
<path fill-rule="evenodd" clip-rule="evenodd" d="M531.674 341.354C531.758 340.256 531.927 339.158 532.011 338.059C531.927 339.158 531.842 340.256 531.674 341.354Z" fill="white"/>
<path fill-rule="evenodd" clip-rule="evenodd" d="M307.442 230.019C308.371 230.103 309.299 230.188 310.312 230.272C309.299 230.357 308.202 230.357 307.189 230.441C307.105 230.188 307.189 230.019 307.442 230.019Z" fill="white"/>
<path fill-rule="evenodd" clip-rule="evenodd" d="M549.481 415.352C549.396 414.338 549.396 413.325 549.312 412.311C549.312 413.325 549.396 414.338 549.481 415.352Z" fill="white"/>
<path fill-rule="evenodd" clip-rule="evenodd" d="M324.321 226.133C323.56 226.119 322.8 226.147 322.042 226.218C322.802 226.218 323.561 226.133 324.321 226.133Z" fill="white"/>
<path fill-rule="evenodd" clip-rule="evenodd" d="M294.446 117.755C295.29 118.177 294.868 120.12 294.024 119.951C294.205 119.227 294.346 118.494 294.446 117.755Z" fill="white"/>
<path fill-rule="evenodd" clip-rule="evenodd" d="M714.299 345.071C713.567 345.086 712.834 345.058 712.105 344.986C712.834 345.056 713.567 345.085 714.299 345.071Z" fill="white"/>
<path fill-rule="evenodd" clip-rule="evenodd" d="M400.612 584.382C401.793 584.55 402.89 584.719 404.072 584.888C402.89 584.719 401.709 584.55 400.612 584.382Z" fill="white"/>
<path fill-rule="evenodd" clip-rule="evenodd" d="M393.016 150.53C388.966 151.375 384.746 151.797 380.78 153.064C379.767 153.402 376.56 155.261 375.378 154.754C373.606 153.994 374.45 152.051 375.21 151.037C376.286 149.677 377.66 148.581 379.225 147.834C380.79 147.087 382.506 146.709 384.24 146.729C387.531 146.814 392.088 146.645 393.016 150.53Z" fill="white"/>
<path fill-rule="evenodd" clip-rule="evenodd" d="M381.708 158.048C386.181 161.174 389.641 162.694 389.978 155.683C394.789 156.359 392.679 164.13 388.966 164.721C384.999 165.313 382.299 161.343 381.708 158.048Z" fill="white"/>
<path fill-rule="evenodd" clip-rule="evenodd" d="M217.95 154.278C217.514 153.249 217.994 152.061 219.022 151.624C219.915 151.245 220.927 151.557 221.464 152.319L229.82 156.986C232.231 158.333 234.188 160.144 235.552 162.292C236.647 164.014 237.34 165.922 237.6 167.928L238.01 171.089C238.235 172.355 238.233 173.606 238.002 174.573C237.769 175.554 237.321 176.163 236.756 176.266C236.737 176.269 236.717 176.273 236.698 176.277C236.151 176.378 235.577 176.484 235.031 175.679C234.508 174.905 233.675 173.61 233.676 172.203L233.673 172.204L233.224 168.748C233.019 167.163 232.471 165.655 231.606 164.294C230.528 162.597 228.981 161.165 227.076 160.101L224.108 158.443L239.436 194.628C239.953 195.426 240.39 196.295 240.729 197.227C243.153 203.879 239.73 211.239 233.084 213.665C226.438 216.091 219.085 212.665 216.662 206.013C214.238 199.36 217.661 192.001 224.307 189.575C227.181 188.526 230.187 188.571 232.869 189.498L217.95 154.278Z" fill="white"/>
</svg>
